{
.appVersion = "909";
classes = (
{
automatic = 1;

glyphs = (
{
color = 11;
glyphname = A;
lastChange = "2015-02-19 03:26:04 +0000";
layers = (
{
anchors = (
{
name = bottom;
position = "{297, 0}";
},
{
name = ogonek;
position = "{535, 10}";
},
{
name = top;
position = "{297, 611}";
}
);
background = {
paths = (
{
closed = 1;
nodes = (
"164 152 LINE",
"393 152 LINE",
"429 50 LINE",
"369 33 LINE",
"369 0 LINE",
"586 0 LINE",
"586 33 LINE",
"514 52 LINE",
"317 624 LINE",
"259 611 LINE",
"72 52 LINE",
"0 33 LINE",
"0 0 LINE",
"203 0 LINE",
"203 33 LINE",
"131 52 LINE"
);
},
{
closed = 1;
nodes = (
"378 198 LINE",
"178 198 LINE",
"276 492 LINE"
);
}
);
};
layerId = "C2E97133-8774-4C1F-A96F-338CBADF7D3D";
paths = (
{
closed = 1;
nodes = (
"164 152 LINE",
"393 152 LINE",
"429 50 LINE",
"369 33 LINE",
"369 0 LINE",
"586 0 LINE",
"586 33 LINE",
"514 52 LINE",
"317 624 LINE",
"259 611 LINE",
"72 52 LINE",
"0 33 LINE",
"0 0 LINE",
"203 0 LINE",
"203 33 LINE",
"131 52 LINE"
);
},
{
closed = 1;
nodes = (
"378 198 LINE",
"178 198 LINE",
"276 492 LINE"
);
}
);
width = 594;
},
{
anchors = (
{
name = bottom;
position = "{297, 0}";
},
{
name = ogonek;
position = "{535, 10}";
},
{
name = top;
position = "{297, 614}";
}
);
background = {
paths = (
{
closed = 1;
nodes = (
"170 153 LINE",
"362 153 LINE",
"391 65 LINE",
"326 45 LINE",
"326 0 LINE",
"604 0 LINE",
"604 45 LINE",
"533 69 LINE",
"328 627 LINE",
"250 614 LINE",
"61 69 LINE",
"-10 44 LINE",
"-10 0 LINE",
"210 0 LINE",
"210 45 LINE",
"142 68 LINE"
);
},
{
closed = 1;
nodes = (
"342 207 LINE",
"189 207 LINE",
"262 423 LINE"
);
}
);
};
layerId = "320D1F10-23EA-4160-876F-9C954522C215";
paths = (
{
closed = 1;
nodes = (
"170 153 LINE",
"362 153 LINE",
"391 65 LINE",
"326 45 LINE",
"326 0 LINE",
"604 0 LINE",
"604 45 LINE",
"533 69 LINE",
"328 627 LINE",
"250 614 LINE",
"61 69 LINE",
"-10 44 LINE",
"-10 0 LINE",
"210 0 LINE",
"210 45 LINE",
"142 68 LINE"
);
},
{
closed = 1;
nodes = (
"342 207 LINE",
"189 207 LINE",
"262 423 LINE"
);
}
);
width = 594;
}
);
leftKerningGroup = A;
rightKerningGroup = A;
unicode = 0041;
},
{
color = 11;
glyphname = Aacute;
lastChange = "2015-02-19 03:26:04 +0000";
layers = (
{
background = {
paths = (
{
closed = 1;
nodes = (
"164 152 LINE",
"393 152 LINE",
"429 50 LINE",
"369 33 LINE",
"369 0 LINE",
"586 0 LINE",
"586 33 LINE",
"514 52 LINE",
"317 624 LINE",
"259 611 LINE",
"72 52 LINE",
"0 33 LINE",
"0 0 LINE",
"203 0 LINE",
"203 33 LINE",
"131 52 LINE"
);
},
{
closed = 1;
nodes = (
"378 198 LINE",
"178 198 LINE",
"276 492 LINE"
);
},
{
closed = 1;
nodes = (
"428 753 LINE",
"428 771 LINE",
"352 799 LINE",
"198 669 LINE",
"214 650 LINE"
);
}
);
};
layerId = "C2E97133-8774-4C1F-A96F-338CBADF7D3D";
paths = (
{
closed = 1;
nodes = (
"164 152 LINE",
"393 152 LINE",
"429 50 LINE",
"369 33 LINE",
"369 0 LINE",
"586 0 LINE",
"586 33 LINE",
"514 52 LINE",
"317 624 LINE",
"259 611 LINE",
"72 52 LINE",
"0 33 LINE",
"0 0 LINE",
"203 0 LINE",
"203 33 LINE",
"131 52 LINE"
);
},
{
closed = 1;
nodes = (
"378 198 LINE",
"178 198 LINE",
"276 492 LINE"
);
},
{
closed = 1;
nodes = (
"428 753 LINE",
"428 771 LINE",
"352 799 LINE",
"198 669 LINE",
"214 650 LINE"
);
}
);
width = 594;
},
{
background = {
paths = (
{
closed = 1;
nodes = (
"170 153 LINE",
"362 153 LINE",
"391 65 LINE",
"326 45 LINE",
"326 0 LINE",
"604 0 LINE",
"604 45 LINE",
"533 69 LINE",
"328 627 LINE",
"250 614 LINE",
"61 69 LINE",
"-10 44 LINE",
"-10 0 LINE",
"210 0 LINE",
"210 45 LINE",
"142 68 LINE"
);
},
{
closed = 1;
nodes = (
"342 207 LINE",
"189 207 LINE",
"262 423 LINE"
);
},
{
closed = 1;
nodes = (
"438 743 LINE",
"438 766 LINE",
"339 800 LINE",
"183 669 LINE",
"210 634 LINE"
);
}
);
};
layerId = "320D1F10-23EA-4160-876F-9C954522C215";
paths = (
{
closed = 1;
nodes = (
"170 153 LINE",
"362 153 LINE",
"391 65 LINE",
"326 45 LINE",
"326 0 LINE",
"604 0 LINE",
"604 45 LINE",
"533 69 LINE",
"328 627 LINE",
"250 614 LINE",
"61 69 LINE",
"-10 44 LINE",
"-10 0 LINE",
"210 0 LINE",
"210 45 LINE",
"142 68 LINE"
);
},
{
closed = 1;
nodes = (
"342 207 LINE",
"189 207 LINE",
"262 423 LINE"
);
},
{
closed = 1;
nodes = (
"438 743 LINE",
"438 766 LINE",
"339 800 LINE",
"183 669 LINE",
"210 634 LINE"
);
}
);
width = 594;
}
);
leftKerningGroup = A;
rightKerningGroup = A;
unicode = 00C1;
},
{
color = 11;
glyphname = Abreve;
lastChange = "2015-02-19 03:26:04 +0000";
layers = (
{
background = {
paths = (
{
closed = 1;
nodes = (
"164 152 LINE",
"393 152 LINE",
"429 50 LINE",
"369 33 LINE",
"369 0 LINE",
"586 0 LINE",
"586 33 LINE",
"514 52 LINE",
"317 624 LINE",
"259 611 LINE",
"72 52 LINE",
"0 33 LINE",
"0 0 LINE",
"203 0 LINE",
"203 33 LINE",
"131 52 LINE"
);
},
{
closed = 1;
nodes = (
"378 198 LINE",
"178 198 LINE",
"276 492 LINE"
);
},
{
closed = 1;
nodes = (
"387 665 OFFCURVE",
"411 720 OFFCURVE",
"411 779 CURVE",
"378 781 LINE",
"378 749 OFFCURVE",
"363 719 OFFCURVE",
"293 719 CURVE SMOOTH",
"225 719 OFFCURVE",
"211 749 OFFCURVE",
"211 781 CURVE",
"177 779 LINE",
"177 720 OFFCURVE",
"202 665 OFFCURVE",
"295 665 CURVE SMOOTH"
);
}
);
};
layerId = "C2E97133-8774-4C1F-A96F-338CBADF7D3D";
paths = (
{
closed = 1;
nodes = (
"164 152 LINE",
"393 152 LINE",
"429 50 LINE",
"369 33 LINE",
"369 0 LINE",
"586 0 LINE",
"586 33 LINE",
"514 52 LINE",
"317 624 LINE",
"259 611 LINE",
"72 52 LINE",
"0 33 LINE",
"0 0 LINE",
"203 0 LINE",
"203 33 LINE",
"131 52 LINE"
);
},
{
closed = 1;
nodes = (
"378 198 LINE",
"178 198 LINE",
"276 492 LINE"
);
},
{
closed = 1;
nodes = (
"387 665 OFFCURVE",
"411 720 OFFCURVE",
"411 779 CURVE",
"378 781 LINE",
"378 749 OFFCURVE",
"363 719 OFFCURVE",
"293 719 CURVE SMOOTH",
"225 719 OFFCURVE",
"211 749 OFFCURVE",
"211 781 CURVE",
"177 779 LINE",
"177 720 OFFCURVE",
"202 665 OFFCURVE",
"295 665 CURVE SMOOTH"
);
}
);
width = 594;
},
{
background = {
paths = (
{
closed = 1;
nodes = (
"170 153 LINE",
"362 153 LINE",
"391 65 LINE",
"326 45 LINE",
"326 0 LINE",
"604 0 LINE",
"604 45 LINE",
"533 69 LINE",
"328 627 LINE",
"250 614 LINE",
"61 69 LINE",
"-10 44 LINE",
"-10 0 LINE",
"210 0 LINE",
"210 45 LINE",
"142 68 LINE"
);
},
{
closed = 1;
nodes = (
"342 207 LINE",
"189 207 LINE",
"262 423 LINE"
);
},
{
closed = 1;
nodes = (
"389 651 OFFCURVE",
"406 716 OFFCURVE",
"406 786 CURVE",
"349 788 LINE",
"349 761 OFFCURVE",
"338 727 OFFCURVE",
"280 727 CURVE SMOOTH",
"231 727 OFFCURVE",
"222 761 OFFCURVE",
"222 788 CURVE",
"163 786 LINE",
"163 716 OFFCURVE",
"184 651 OFFCURVE",
"286 651 CURVE SMOOTH"
);
}
);
};
layerId = "320D1F10-23EA-4160-876F-9C954522C215";
paths = (
{
closed = 1;
nodes = (
"170 153 LINE",
"362 153 LINE",
"391 65 LINE",
"326 45 LINE",
"326 0 LINE",
"604 0 LINE",
"604 45 LINE",
"533 69 LINE",
"328 627 LINE",
"250 614 LINE",
"61 69 LINE",
"-10 44 LINE",
"-10 0 LINE",
"210 0 LINE",
"210 45 LINE",
"142 68 LINE"
);
},
{
closed = 1;
nodes = (
"342 207 LINE",
"189 207 LINE",
"262 423 LINE"
);
},
{
closed = 1;
nodes = (
"389 651 OFFCURVE",
"406 716 OFFCURVE",
"406 786 CURVE",
"349 788 LINE",
"349 761 OFFCURVE",
"338 727 OFFCURVE",
"280 727 CURVE SMOOTH",
"231 727 OFFCURVE",
"222 761 OFFCURVE",
"222 788 CURVE",
"163 786 LINE",
"163 716 OFFCURVE",
"184 651 OFFCURVE",
"286 651 CURVE SMOOTH"
);
}
);
width = 594;
}
);
leftKerningGroup = A;
rightKerningGroup = A;
unicode = 0102;
},
{
color = 11;
glyphname = Acircumflex;
lastChange = "2015-02-19 03:26:04 +0000";
layers = (
{
background = {
paths = (
{
closed = 1;
nodes = (
"164 152 LINE",
"393 152 LINE",
"429 50 LINE",
"369 33 LINE",
"369 0 LINE",
"586 0 LINE",
"586 33 LINE",
"514 52 LINE",
"317 624 LINE",
"259 611 LINE",
"72 52 LINE",
"0 33 LINE",
"0 0 LINE",
"203 0 LINE",
"203 33 LINE",
"131 52 LINE"
);
},
{
closed = 1;
nodes = (
"378 198 LINE",
"178 198 LINE",
"276 492 LINE"
);
},
{
closed = 1;
nodes = (
"416 669 LINE",
"314 800 LINE",
"254 800 LINE",
"154 669 LINE",
"171 651 LINE",
"282 733 LINE",
"398 651 LINE"
);
}
);
};
layerId = "C2E97133-8774-4C1F-A96F-338CBADF7D3D";
paths = (
{
closed = 1;
nodes = (
"164 152 LINE",
"393 152 LINE",
"429 50 LINE",
"369 33 LINE",
"369 0 LINE",
"586 0 LINE",
"586 33 LINE",
"514 52 LINE",
"317 624 LINE",
"259 611 LINE",
"72 52 LINE",
"0 33 LINE",
"0 0 LINE",
"203 0 LINE",
"203 33 LINE",
"131 52 LINE"
);
},
{
closed = 1;
nodes = (
"378 198 LINE",
"178 198 LINE",
"276 492 LINE"
);
},
{
closed = 1;
nodes = (
"416 669 LINE",
"314 800 LINE",
"254 800 LINE",
"154 669 LINE",
"171 651 LINE",
"282 733 LINE",
"398 651 LINE"
);
}
);
width = 594;
},
{
background = {
paths = (
{
closed = 1;
nodes = (
"170 153 LINE",
"362 153 LINE",
"391 65 LINE",
"326 45 LINE",
"326 0 LINE",
"604 0 LINE",
"604 45 LINE",
"533 69 LINE",
"328 627 LINE",
"250 614 LINE",
"61 69 LINE",
"-10 44 LINE",
"-10 0 LINE",
"210 0 LINE",
"210 45 LINE",
"142 68 LINE"
);
},
{
closed = 1;
nodes = (
"342 207 LINE",
"189 207 LINE",
"262 423 LINE"
);
},
{
closed = 1;
nodes = (
"441 665 LINE",
"332 800 LINE",
"247 800 LINE",
"137 665 LINE",
"163 640 LINE",
"289 717 LINE",
"418 640 LINE"
);
}
);
};
layerId = "320D1F10-23EA-4160-876F-9C954522C215";
paths = (
{
closed = 1;
nodes = (
"170 153 LINE",
"362 153 LINE",
"391 65 LINE",
"326 45 LINE",
"326 0 LINE",
"604 0 LINE",
"604 45 LINE",
"533 69 LINE",
"328 627 LINE",
"250 614 LINE",
"61 69 LINE",
"-10 44 LINE",
"-10 0 LINE",
"210 0 LINE",
"210 45 LINE",
"142 68 LINE"
);
},
{
closed = 1;
nodes = (
"342 207 LINE",
"189 207 LINE",
"262 423 LINE"
);
},
{
closed = 1;
nodes = (
"441 665 LINE",
"332 800 LINE",
"247 800 LINE",
"137 665 LINE",
"163 640 LINE",
"289 717 LINE",
"418 640 LINE"
);
}
);
width = 594;
}
);
leftKerningGroup = A;
rightKerningGroup = A;
unicode = 00C2;
},
{
color = 11;
glyphname = Adieresis;
lastChange = "2015-02-19 03:26:04 +0000";
layers = (
{
background = {
paths = (
{
closed = 1;
nodes = (
"164 152 LINE",
"393 152 LINE",
"429 50 LINE",
"369 33 LINE",
"369 0 LINE",
"586 0 LINE",
"586 33 LINE",
"514 52 LINE",
"317 624 LINE",
"259 611 LINE",
"72 52 LINE",
"0 33 LINE",
"0 0 LINE",
"203 0 LINE",
"203 33 LINE",
"131 52 LINE"
);
},
{
closed = 1;
nodes = (
"378 198 LINE",
"178 198 LINE",
"276 492 LINE"
);
},
{
closed = 1;
nodes = (
"246 754 OFFCURVE",
"219 780 OFFCURVE",
"189 780 CURVE SMOOTH",
"159 780 OFFCURVE",
"132 754 OFFCURVE",
"132 722 CURVE SMOOTH",
"132 692 OFFCURVE",
"159 667 OFFCURVE",
"189 667 CURVE SMOOTH",
"219 667 OFFCURVE",
"246 692 OFFCURVE",
"246 722 CURVE SMOOTH"
);
},
{
closed = 1;
nodes = (
"441 754 OFFCURVE",
"413 780 OFFCURVE",
"383 780 CURVE SMOOTH",
"353 780 OFFCURVE",
"326 754 OFFCURVE",
"326 722 CURVE SMOOTH",
"326 692 OFFCURVE",
"353 667 OFFCURVE",
"383 667 CURVE SMOOTH",
"413 667 OFFCURVE",
"441 692 OFFCURVE",
"441 722 CURVE SMOOTH"
);
}
);
};
layerId = "C2E97133-8774-4C1F-A96F-338CBADF7D3D";
paths = (
{
closed = 1;
nodes = (
"164 152 LINE",
"393 152 LINE",
"429 50 LINE",
"369 33 LINE",
"369 0 LINE",
"586 0 LINE",
"586 33 LINE",
"514 52 LINE",
"317 624 LINE",
"259 611 LINE",
"72 52 LINE",
"0 33 LINE",
"0 0 LINE",
"203 0 LINE",
"203 33 LINE",
"131 52 LINE"
);
},
{
closed = 1;
nodes = (
"378 198 LINE",
"178 198 LINE",
"276 492 LINE"
);
},
{
closed = 1;
nodes = (
"246 754 OFFCURVE",
"219 780 OFFCURVE",
"189 780 CURVE SMOOTH",
"159 780 OFFCURVE",
"132 754 OFFCURVE",
"132 722 CURVE SMOOTH",
"132 692 OFFCURVE",
"159 667 OFFCURVE",
"189 667 CURVE SMOOTH",
"219 667 OFFCURVE",
"246 692 OFFCURVE",
"246 722 CURVE SMOOTH"
);
},
{
closed = 1;
nodes = (
"441 754 OFFCURVE",
"413 780 OFFCURVE",
"383 780 CURVE SMOOTH",
"353 780 OFFCURVE",
"326 754 OFFCURVE",
"326 722 CURVE SMOOTH",
"326 692 OFFCURVE",
"353 667 OFFCURVE",
"383 667 CURVE SMOOTH",
"413 667 OFFCURVE",
"441 692 OFFCURVE",
"441 722 CURVE SMOOTH"
);
}
);
width = 594;
},
{
background = {
paths = (
{
closed = 1;
nodes = (
"170 153 LINE",
"362 153 LINE",
"391 65 LINE",
"326 45 LINE",
"326 0 LINE",
"604 0 LINE",
"604 45 LINE",
"533 69 LINE",
"328 627 LINE",
"250 614 LINE",
"61 69 LINE",
"-10 44 LINE",
"-10 0 LINE",
"210 0 LINE",
"210 45 LINE",
"142 68 LINE"
);
},
{
closed = 1;
nodes = (
"342 207 LINE",
"189 207 LINE",
"262 423 LINE"
);
},
{
closed = 1;
nodes = (
"253 760 OFFCURVE",
"219 792 OFFCURVE",
"179 792 CURVE SMOOTH",
"138 792 OFFCURVE",
"101 760 OFFCURVE",
"101 719 CURVE SMOOTH",
"101 677 OFFCURVE",
"138 647 OFFCURVE",
"179 647 CURVE SMOOTH",
"219 647 OFFCURVE",
"253 677 OFFCURVE",
"253 719 CURVE SMOOTH"
);
},
{
closed = 1;
nodes = (
"484 760 OFFCURVE",
"449 792 OFFCURVE",
"411 792 CURVE SMOOTH",
"369 792 OFFCURVE",
"334 760 OFFCURVE",
"334 719 CURVE SMOOTH",
"334 677 OFFCURVE",
"369 647 OFFCURVE",
"411 647 CURVE SMOOTH",
"449 647 OFFCURVE",
"484 677 OFFCURVE",
"484 719 CURVE SMOOTH"
);
}
);
};
layerId = "320D1F10-23EA-4160-876F-9C954522C215";
paths = (
{
closed = 1;
nodes = (
"170 153 LINE",
"362 153 LINE",
"391 65 LINE",
"326 45 LINE",
"326 0 LINE",
"604 0 LINE",
"604 45 LINE",
"533 69 LINE",
"328 627 LINE",
"250 614 LINE",
"61 69 LINE",
"-10 44 LINE",
"-10 0 LINE",
"210 0 LINE",
"210 45 LINE",
"142 68 LINE"
);
},
{
closed = 1;
nodes = (
"342 207 LINE",
"189 207 LINE",
"262 423 LINE"
);
},
{
closed = 1;
nodes = (
"253 760 OFFCURVE",
"219 792 OFFCURVE",
"179 792 CURVE SMOOTH",
"138 792 OFFCURVE",
"101 760 OFFCURVE",
"101 719 CURVE SMOOTH",
"101 677 OFFCURVE",
"138 647 OFFCURVE",
"179 647 CURVE SMOOTH",
"219 647 OFFCURVE",
"253 677 OFFCURVE",
"253 719 CURVE SMOOTH"
);
},
{
closed = 1;
nodes = (
"484 760 OFFCURVE",
"449 792 OFFCURVE",
"411 792 CURVE SMOOTH",
"369 792 OFFCURVE",
"334 760 OFFCURVE",
"334 719 CURVE SMOOTH",
"334 677 OFFCURVE",
"369 647 OFFCURVE",
"411 647 CURVE SMOOTH",
"449 647 OFFCURVE",
"484 677 OFFCURVE",
"484 719 CURVE SMOOTH"
);
}
);
width = 594;
}
);
leftKerningGroup = A;
rightKerningGroup = A;
unicode = 00C4;
},
{
color = 11;
glyphname = Agrave;
lastChange = "2015-02-19 03:26:04 +0000";
layers = (
{
background = {
paths = (
{
closed = 1;
nodes = (
"164 152 LINE",
"393 152 LINE",
"429 50 LINE",
"369 33 LINE",
"369 0 LINE",
"586 0 LINE",
"586 33 LINE",
"514 52 LINE",
"317 624 LINE",
"259 611 LINE",
"72 52 LINE",
"0 33 LINE",
"0 0 LINE",
"203 0 LINE",
"203 33 LINE",
"131 52 LINE"
);
},
{
closed = 1;
nodes = (
"378 198 LINE",
"178 198 LINE",
"276 492 LINE"
);
},
{
closed = 1;
nodes = (
"376 667 LINE",
"223 797 LINE",
"146 769 LINE",
"146 751 LINE",
"362 648 LINE"
);
}
);
};
layerId = "C2E97133-8774-4C1F-A96F-338CBADF7D3D";
paths = (
{
closed = 1;
nodes = (
"164 152 LINE",
"393 152 LINE",
"429 50 LINE",
"369 33 LINE",
"369 0 LINE",
"586 0 LINE",
"586 33 LINE",
"514 52 LINE",
"317 624 LINE",
"259 611 LINE",
"72 52 LINE",
"0 33 LINE",
"0 0 LINE",
"203 0 LINE",
"203 33 LINE",
"131 52 LINE"
);
},
{
closed = 1;
nodes = (
"378 198 LINE",
"178 198 LINE",
"276 492 LINE"
);
},
{
closed = 1;
nodes = (
"376 667 LINE",
"223 797 LINE",
"146 769 LINE",
"146 751 LINE",
"362 648 LINE"
);
}
);
width = 594;
},
{
background = {
paths = (
{
closed = 1;
nodes = (
"170 153 LINE",
"362 153 LINE",
"391 65 LINE",
"326 45 LINE",
"326 0 LINE",
"604 0 LINE",
"604 45 LINE",
"533 69 LINE",
"328 627 LINE",
"250 614 LINE",
"61 69 LINE",
"-10 44 LINE",
"-10 0 LINE",
"210 0 LINE",
"210 45 LINE",
"142 68 LINE"
);
},
{
closed = 1;
nodes = (
"342 207 LINE",
"189 207 LINE",
"262 423 LINE"
);
},
{
closed = 1;
nodes = (
"396 669 LINE",
"242 800 LINE",
"145 766 LINE",
"141 743 LINE",
"373 634 LINE"
);
}
);
};
layerId = "320D1F10-23EA-4160-876F-9C954522C215";
paths = (
{
closed = 1;
nodes = (
"170 153 LINE",
"362 153 LINE",
"391 65 LINE",
"326 45 LINE",
"326 0 LINE",
"604 0 LINE",
"604 45 LINE",
"533 69 LINE",
"328 627 LINE",
"250 614 LINE",
"61 69 LINE",
"-10 44 LINE",
"-10 0 LINE",
"210 0 LINE",
"210 45 LINE",
"142 68 LINE"
);
},
{
closed = 1;
nodes = (
"342 207 LINE",
"189 207 LINE",
"262 423 LINE"
);
},
{
closed = 1;
nodes = (
"396 669 LINE",
"242 800 LINE",
"145 766 LINE",
"141 743 LINE",
"373 634 LINE"
);
}
);
width = 594;
}
);
leftKerningGroup = A;
rightKerningGroup = A;
unicode = 00C0;
},
{
color = 11;
glyphname = Amacron;
lastChange = "2015-02-19 03:26:04 +0000";
layers = (
{
background = {
paths = (
{
closed = 1;
nodes = (
"164 152 LINE",
"393 152 LINE",
"429 50 LINE",
"369 33 LINE",
"369 0 LINE",
"586 0 LINE",
"586 33 LINE",
"514 52 LINE",
"317 624 LINE",
"259 611 LINE",
"72 52 LINE",
"0 33 LINE",
"0 0 LINE",
"203 0 LINE",
"203 33 LINE",
"131 52 LINE"
);
},
{
closed = 1;
nodes = (
"378 198 LINE",
"178 198 LINE",
"276 492 LINE"
);
},
{
closed = 1;
nodes = (
"182 697 LINE",
"399 697 LINE",
"399 749 LINE",
"182 749 LINE"
);
}
);
};
layerId = "C2E97133-8774-4C1F-A96F-338CBADF7D3D";
paths = (
{
closed = 1;
nodes = (
"164 152 LINE",
"393 152 LINE",
"429 50 LINE",
"369 33 LINE",
"369 0 LINE",
"586 0 LINE",
"586 33 LINE",
"514 52 LINE",
"317 624 LINE",
"259 611 LINE",
"72 52 LINE",
"0 33 LINE",
"0 0 LINE",
"203 0 LINE",
"203 33 LINE",
"131 52 LINE"
);
},
{
closed = 1;
nodes = (
"378 198 LINE",
"178 198 LINE",
"276 492 LINE"
);
},
{
closed = 1;
nodes = (
"182 697 LINE",
"399 697 LINE",
"399 749 LINE",
"182 749 LINE"
);
}
);
width = 594;
},
{
background = {
paths = (
{
closed = 1;
nodes = (
"170 153 LINE",
"362 153 LINE",
"391 65 LINE",
"326 45 LINE",
"326 0 LINE",
"604 0 LINE",
"604 45 LINE",
"533 69 LINE",
"328 627 LINE",
"250 614 LINE",
"61 69 LINE",
"-10 44 LINE",
"-10 0 LINE",
"210 0 LINE",
"210 45 LINE",
"142 68 LINE"
);
},
{
closed = 1;
nodes = (
"342 207 LINE",
"189 207 LINE",
"262 423 LINE"
);
},
{
closed = 1;
nodes = (
"167 679 LINE",
"408 679 LINE",
"408 758 LINE",
"167 758 LINE"
);
}
);
};
layerId = "320D1F10-23EA-4160-876F-9C954522C215";
paths = (
{
closed = 1;
nodes = (
"170 153 LINE",
"362 153 LINE",
"391 65 LINE",
"326 45 LINE",
"326 0 LINE",
"604 0 LINE",
"604 45 LINE",
"533 69 LINE",
"328 627 LINE",
"250 614 LINE",
"61 69 LINE",
"-10 44 LINE",
"-10 0 LINE",
"210 0 LINE",
"210 45 LINE",
"142 68 LINE"
);
},
{
closed = 1;
nodes = (
"342 207 LINE",
"189 207 LINE",
"262 423 LINE"
);
},
{
closed = 1;
nodes = (
"167 679 LINE",
"408 679 LINE",
"408 758 LINE",
"167 758 LINE"
);
}
);
width = 594;
}
);
leftKerningGroup = A;
rightKerningGroup = A;
unicode = 0100;
},
{
color = 11;
glyphname = Aogonek;
lastChange = "2015-02-19 03:26:04 +0000";
layers = (
{
background = {
paths = (
{
closed = 1;
nodes = (
"378 198 LINE",
"182 198 LINE",
"278 488 LINE"
);
},
{
closed = 1;
nodes = (
"297 -190 OFFCURVE",
"323 -236 OFFCURVE",
"389 -236 CURVE SMOOTH",
"453 -236 OFFCURVE",
"483 -186 OFFCURVE",
"483 -186 CURVE",
"467 -170 LINE",
"452 -186 OFFCURVE",
"435 -193 OFFCURVE",
"417 -193 CURVE SMOOTH",
"387 -193 OFFCURVE",
"362 -171 OFFCURVE",
"362 -125 CURVE SMOOTH",
"362 -77 OFFCURVE",
"401 0 OFFCURVE",
"468 0 CURVE SMOOTH",
"594 0 LINE",
"594 33 LINE",
"522 52 LINE",
"320 624 LINE",
"259 611 LINE",
"72 53 LINE",
"0 33 LINE",
"0 0 LINE",
"207 0 LINE",
"207 33 LINE",
"136 53 LINE",
"168 152 LINE",
"393 152 LINE",
"421 72 LINE",
"423 65 OFFCURVE",
"424 61 OFFCURVE",
"424 56 CURVE SMOOTH",
"424 13 OFFCURVE",
"297 -38 OFFCURVE",
"297 -151 CURVE SMOOTH"
);
}
);
};
layerId = "C2E97133-8774-4C1F-A96F-338CBADF7D3D";
paths = (
{
closed = 1;
nodes = (
"378 198 LINE",
"182 198 LINE",
"278 488 LINE"
);
},
{
closed = 1;
nodes = (
"297 -190 OFFCURVE",
"323 -236 OFFCURVE",
"389 -236 CURVE SMOOTH",
"453 -236 OFFCURVE",
"483 -186 OFFCURVE",
"483 -186 CURVE",
"467 -170 LINE",
"452 -186 OFFCURVE",
"435 -193 OFFCURVE",
"417 -193 CURVE SMOOTH",
"387 -193 OFFCURVE",
"362 -171 OFFCURVE",
"362 -125 CURVE SMOOTH",
"362 -77 OFFCURVE",
"401 0 OFFCURVE",
"468 0 CURVE SMOOTH",
"594 0 LINE",
"594 33 LINE",
"522 52 LINE",
"320 624 LINE",
"259 611 LINE",
"72 53 LINE",
"0 33 LINE",
"0 0 LINE",
"207 0 LINE",
"207 33 LINE",
"136 53 LINE",
"168 152 LINE",
"393 152 LINE",
"421 72 LINE",
"423 65 OFFCURVE",
"424 61 OFFCURVE",
"424 56 CURVE SMOOTH",
"424 13 OFFCURVE",
"297 -38 OFFCURVE",
"297 -151 CURVE SMOOTH"
);
}
);
width = 594;
},
{
background = {
paths = (
{
closed = 1;
nodes = (
"170 153 LINE",
"362 153 LINE",
"384 85 LINE SMOOTH",
"386 79 OFFCURVE",
"391 60 OFFCURVE",
"391 51 CURVE SMOOTH",
"391 1 OFFCURVE",
"280 -57 OFFCURVE",
"280 -147 CURVE SMOOTH",
"280 -192 OFFCURVE",
"306 -233 OFFCURVE",
"382 -233 CURVE SMOOTH",
"458 -233 OFFCURVE",
"492 -171 OFFCURVE",
"492 -171 CURVE",
"469 -149 LINE",
"449 -163 OFFCURVE",
"430 -171 OFFCURVE",
"408 -171 CURVE SMOOTH",
"376 -171 OFFCURVE",
"365 -151 OFFCURVE",
"365 -116 CURVE SMOOTH",
"365 -50 OFFCURVE",
"423 0 OFFCURVE",
"488 0 CURVE SMOOTH",
"604 0 LINE",
"604 45 LINE",
"533 69 LINE",
"328 627 LINE",
"250 614 LINE",
"61 69 LINE",
"-10 44 LINE",
"-10 0 LINE",
"210 0 LINE",
"210 45 LINE",
"142 68 LINE"
);
},
{
closed = 1;
nodes = (
"342 207 LINE",
"189 207 LINE",
"262 423 LINE"
);
}
);
};
layerId = "320D1F10-23EA-4160-876F-9C954522C215";
paths = (
{
closed = 1;
nodes = (
"170 153 LINE",
"362 153 LINE",
"384 85 LINE SMOOTH",
"386 79 OFFCURVE",
"391 60 OFFCURVE",
"391 51 CURVE SMOOTH",
"391 1 OFFCURVE",
"280 -57 OFFCURVE",
"280 -147 CURVE SMOOTH",
"280 -192 OFFCURVE",
"306 -233 OFFCURVE",
"382 -233 CURVE SMOOTH",
"458 -233 OFFCURVE",
"492 -171 OFFCURVE",
"492 -171 CURVE",
"469 -149 LINE",
"449 -163 OFFCURVE",
"430 -171 OFFCURVE",
"408 -171 CURVE SMOOTH",
"376 -171 OFFCURVE",
"365 -151 OFFCURVE",
"365 -116 CURVE SMOOTH",
"365 -50 OFFCURVE",
"423 0 OFFCURVE",
"488 0 CURVE SMOOTH",
"604 0 LINE",
"604 45 LINE",
"533 69 LINE",
"328 627 LINE",
"250 614 LINE",
"61 69 LINE",
"-10 44 LINE",
"-10 0 LINE",
"210 0 LINE",
"210 45 LINE",
"142 68 LINE"
);
},
{
closed = 1;
nodes = (
"342 207 LINE",
"189 207 LINE",
"262 423 LINE"
);
}
);
width = 594;
}
);
leftKerningGroup = A;
rightKerningGroup = A;
unicode = 0104;
},
{
color = 11;
glyphname = Aring;
lastChange = "2015-02-19 03:26:04 +0000";
layers = (
{
background = {
paths = (
{
closed = 1;
nodes = (
"164 152 LINE",
"393 152 LINE",
"429 50 LINE",
"369 33 LINE",
"369 0 LINE",
"586 0 LINE",
"586 33 LINE",
"514 52 LINE",
"317 624 LINE",
"259 611 LINE",
"72 52 LINE",
"0 33 LINE",
"0 0 LINE",
"203 0 LINE",
"203 33 LINE",
"131 52 LINE"
);
},
{
closed = 1;
nodes = (
"378 198 LINE",
"178 198 LINE",
"276 492 LINE"
);
},
{
closed = 1;
nodes = (
"333 788 OFFCURVE",
"339 761 OFFCURVE",
"339 728 CURVE SMOOTH",
"339 693 OFFCURVE",
"333 668 OFFCURVE",
"288 668 CURVE SMOOTH",
"244 668 OFFCURVE",
"237 693 OFFCURVE",
"237 728 CURVE SMOOTH",
"237 761 OFFCURVE",
"244 788 OFFCURVE",
"288 788 CURVE SMOOTH"
);
},
{
closed = 1;
nodes = (
"388 780 OFFCURVE",
"355 822 OFFCURVE",
"288 822 CURVE SMOOTH",
"222 822 OFFCURVE",
"187 780 OFFCURVE",
"187 728 CURVE SMOOTH",
"187 674 OFFCURVE",
"222 633 OFFCURVE",
"288 633 CURVE SMOOTH",
"355 633 OFFCURVE",
"388 674 OFFCURVE",
"388 728 CURVE SMOOTH"
);
}
);
};
layerId = "C2E97133-8774-4C1F-A96F-338CBADF7D3D";
paths = (
{
closed = 1;
nodes = (
"164 152 LINE",
"393 152 LINE",
"429 50 LINE",
"369 33 LINE",
"369 0 LINE",
"586 0 LINE",
"586 33 LINE",
"514 52 LINE",
"317 624 LINE",
"259 611 LINE",
"72 52 LINE",
"0 33 LINE",
"0 0 LINE",
"203 0 LINE",
"203 33 LINE",
"131 52 LINE"
);
},
{
closed = 1;
nodes = (
"378 198 LINE",
"178 198 LINE",
"276 492 LINE"
);
},
{
closed = 1;
nodes = (
"333 788 OFFCURVE",
"339 761 OFFCURVE",
"339 728 CURVE SMOOTH",
"339 693 OFFCURVE",
"333 668 OFFCURVE",
"288 668 CURVE SMOOTH",
"244 668 OFFCURVE",
"237 693 OFFCURVE",
"237 728 CURVE SMOOTH",
"237 761 OFFCURVE",
"244 788 OFFCURVE",
"288 788 CURVE SMOOTH"
);
},
{
closed = 1;
nodes = (
"388 780 OFFCURVE",
"355 822 OFFCURVE",
"288 822 CURVE SMOOTH",
"222 822 OFFCURVE",
"187 780 OFFCURVE",
"187 728 CURVE SMOOTH",
"187 674 OFFCURVE",
"222 633 OFFCURVE",
"288 633 CURVE SMOOTH",
"355 633 OFFCURVE",
"388 674 OFFCURVE",
"388 728 CURVE SMOOTH"
);
}
);
width = 594;
},
{
background = {
paths = (
{
closed = 1;
nodes = (
"170 153 LINE",
"362 153 LINE",
"391 65 LINE",
"326 45 LINE",
"326 0 LINE",
"604 0 LINE",
"604 45 LINE",
"533 69 LINE",
"328 627 LINE",
"250 614 LINE",
"61 69 LINE",
"-10 44 LINE",
"-10 0 LINE",
"210 0 LINE",
"210 45 LINE",
"142 68 LINE"
);
},
{
closed = 1;
nodes = (
"342 207 LINE",
"189 207 LINE",
"262 423 LINE"
);
},
{
closed = 1;
nodes = (
"400 775 OFFCURVE",
"363 819 OFFCURVE",
"286 819 CURVE SMOOTH",
"211 819 OFFCURVE",
"173 775 OFFCURVE",
"173 721 CURVE SMOOTH",
"173 668 OFFCURVE",
"211 627 OFFCURVE",
"286 627 CURVE SMOOTH",
"363 627 OFFCURVE",
"400 668 OFFCURVE",
"400 721 CURVE SMOOTH"
);
},
{
closed = 1;
nodes = (
"321 771 OFFCURVE",
"326 746 OFFCURVE",
"326 721 CURVE SMOOTH",
"326 697 OFFCURVE",
"321 674 OFFCURVE",
"286 674 CURVE SMOOTH",
"251 674 OFFCURVE",
"247 697 OFFCURVE",
"247 721 CURVE SMOOTH",
"247 746 OFFCURVE",
"251 771 OFFCURVE",
"286 771 CURVE SMOOTH"
);
}
);
};
layerId = "320D1F10-23EA-4160-876F-9C954522C215";
paths = (
{
closed = 1;
nodes = (
"170 153 LINE",
"362 153 LINE",
"391 65 LINE",
"326 45 LINE",
"326 0 LINE",
"604 0 LINE",
"604 45 LINE",
"533 69 LINE",
"328 627 LINE",
"250 614 LINE",
"61 69 LINE",
"-10 44 LINE",
"-10 0 LINE",
"210 0 LINE",
"210 45 LINE",
"142 68 LINE"
);
},
{
closed = 1;
nodes = (
"342 207 LINE",
"189 207 LINE",
"262 423 LINE"
);
},
{
closed = 1;
nodes = (
"400 775 OFFCURVE",
"363 819 OFFCURVE",
"286 819 CURVE SMOOTH",
"211 819 OFFCURVE",
"173 775 OFFCURVE",
"173 721 CURVE SMOOTH",
"173 668 OFFCURVE",
"211 627 OFFCURVE",
"286 627 CURVE SMOOTH",
"363 627 OFFCURVE",
"400 668 OFFCURVE",
"400 721 CURVE SMOOTH"
);
},
{
closed = 1;
nodes = (
"321 771 OFFCURVE",
"326 746 OFFCURVE",
"326 721 CURVE SMOOTH",
"326 697 OFFCURVE",
"321 674 OFFCURVE",
"286 674 CURVE SMOOTH",
"251 674 OFFCURVE",
"247 697 OFFCURVE",
"247 721 CURVE SMOOTH",
"247 746 OFFCURVE",
"251 771 OFFCURVE",
"286 771 CURVE SMOOTH"
);
}
);
width = 594;
}
);
leftKerningGroup = A;
rightKerningGroup = A;
unicode = 00C5;
},
{
color = 11;
glyphname = Atilde;
lastChange = "2015-02-19 03:26:04 +0000";
layers = (
{
background = {
paths = (
{
closed = 1;
nodes = (
"164 152 LINE",
"393 152 LINE",
"429 50 LINE",
"369 33 LINE",
"369 0 LINE",
"586 0 LINE",
"586 33 LINE",
"514 52 LINE",
"317 624 LINE",
"259 611 LINE",
"72 52 LINE",
"0 33 LINE",
"0 0 LINE",
"203 0 LINE",
"203 33 LINE",
"131 52 LINE"
);
},
{
closed = 1;
nodes = (
"378 198 LINE",
"178 198 LINE",
"276 492 LINE"
);
},
{
closed = 1;
nodes = (
"405 774 LINE",
"405 774 OFFCURVE",
"385 739 OFFCURVE",
"362 739 CURVE SMOOTH",
"327 739 OFFCURVE",
"254 779 OFFCURVE",
"220 779 CURVE SMOOTH",
"187 779 OFFCURVE",
"167 737 OFFCURVE",
"146 685 CURVE",
"176 673 LINE",
"176 673 OFFCURVE",
"199 709 OFFCURVE",
"221 709 CURVE SMOOTH",
"254 709 OFFCURVE",
"329 669 OFFCURVE",
"363 669 CURVE SMOOTH",
"395 669 OFFCURVE",
"415 711 OFFCURVE",
"436 762 CURVE"
);
}
);
};
layerId = "C2E97133-8774-4C1F-A96F-338CBADF7D3D";
paths = (
{
closed = 1;
nodes = (
"164 152 LINE",
"393 152 LINE",
"429 50 LINE",
"369 33 LINE",
"369 0 LINE",
"586 0 LINE",
"586 33 LINE",
"514 52 LINE",
"317 624 LINE",
"259 611 LINE",
"72 52 LINE",
"0 33 LINE",
"0 0 LINE",
"203 0 LINE",
"203 33 LINE",
"131 52 LINE"
);
},
{
closed = 1;
nodes = (
"378 198 LINE",
"178 198 LINE",
"276 492 LINE"
);
},
{
closed = 1;
nodes = (
"405 774 LINE",
"405 774 OFFCURVE",
"385 739 OFFCURVE",
"362 739 CURVE SMOOTH",
"327 739 OFFCURVE",
"254 779 OFFCURVE",
"220 779 CURVE SMOOTH",
"187 779 OFFCURVE",
"167 737 OFFCURVE",
"146 685 CURVE",
"176 673 LINE",
"176 673 OFFCURVE",
"199 709 OFFCURVE",
"221 709 CURVE SMOOTH",
"254 709 OFFCURVE",
"329 669 OFFCURVE",
"363 669 CURVE SMOOTH",
"395 669 OFFCURVE",
"415 711 OFFCURVE",
"436 762 CURVE"
);
}
);
width = 594;
},
{
background = {
paths = (
{
closed = 1;
nodes = (
"170 153 LINE",
"362 153 LINE",
"391 65 LINE",
"326 45 LINE",
"326 0 LINE",
"604 0 LINE",
"604 45 LINE",
"533 69 LINE",
"328 627 LINE",
"250 614 LINE",
"61 69 LINE",
"-10 44 LINE",
"-10 0 LINE",
"210 0 LINE",
"210 45 LINE",
"142 68 LINE"
);
},
{
closed = 1;
nodes = (
"342 207 LINE",
"189 207 LINE",
"262 423 LINE"
);
},
{
closed = 1;
nodes = (
"424 784 LINE",
"424 784 OFFCURVE",
"407 753 OFFCURVE",
"382 753 CURVE SMOOTH",
"343 753 OFFCURVE",
"255 790 OFFCURVE",
"206 790 CURVE SMOOTH",
"173 790 OFFCURVE",
"139 744 OFFCURVE",
"119 686 CURVE",
"166 667 LINE",
"166 667 OFFCURVE",
"182 698 OFFCURVE",
"206 698 CURVE SMOOTH",
"244 698 OFFCURVE",
"333 661 OFFCURVE",
"382 661 CURVE SMOOTH",
"416 661 OFFCURVE",
"444 707 OFFCURVE",
"468 765 CURVE"
);
}
);
};
layerId = "320D1F10-23EA-4160-876F-9C954522C215";
paths = (
{
closed = 1;
nodes = (
"170 153 LINE",
"362 153 LINE",
"391 65 LINE",
"326 45 LINE",
"326 0 LINE",
"604 0 LINE",
"604 45 LINE",
"533 69 LINE",
"328 627 LINE",
"250 614 LINE",
"61 69 LINE",
"-10 44 LINE",
"-10 0 LINE",
"210 0 LINE",
"210 45 LINE",
"142 68 LINE"
);
},
{
closed = 1;
nodes = (
"342 207 LINE",
"189 207 LINE",
"262 423 LINE"
);
},
{
closed = 1;
nodes = (
"424 784 LINE",
"424 784 OFFCURVE",
"407 753 OFFCURVE",
"382 753 CURVE SMOOTH",
"343 753 OFFCURVE",
"255 790 OFFCURVE",
"206 790 CURVE SMOOTH",
"173 790 OFFCURVE",
"139 744 OFFCURVE",
"119 686 CURVE",
"166 667 LINE",
"166 667 OFFCURVE",
"182 698 OFFCURVE",
"206 698 CURVE SMOOTH",
"244 698 OFFCURVE",
"333 661 OFFCURVE",
"382 661 CURVE SMOOTH",
"416 661 OFFCURVE",
"444 707 OFFCURVE",
"468 765 CURVE"
);
}
);
width = 594;
}
);
leftKerningGroup = A;
rightKerningGroup = A;
unicode = 00C3;
},
{
color = 11;
glyphname = AE;
lastChange = "2015-02-19 03:26:04 +0000";
layers = (
{
anchors = (
{
name = top;
position = "{368, 611}";
}
);
background = {
paths = (
{
closed = 1;
nodes = (
"408 611 LINE",
"352 611 LINE",
"58 53 LINE",
"-14 33 LINE",
"-14 0 LINE",
"190 0 LINE",
"190 34 LINE",
"121 53 LINE"
);
},
{
closed = 1;
nodes = (
"437 559 LINE",
"600 559 LINE",
"621 479 LINE",
"660 479 LINE",
"660 611 LINE",
"260 611 LINE",
"260 578 LINE",
"356 558 LINE",
"390 53 LINE",
"297 33 LINE",
"297 0 LINE",
"697 0 LINE",
"697 147 LINE",
"658 147 LINE",
"632 56 LINE",
"471 56 LINE"
);
},
{
closed = 1;
nodes = (
"436 263 LINE",
"557 263 LINE",
"580 194 LINE",
"617 194 LINE",
"617 376 LINE",
"580 376 LINE",
"559 310 LINE",
"436 310 LINE"
);
},
{
closed = 1;
nodes = (
"200 263 LINE",
"460 263 LINE",
"444 310 LINE",
"214 310 LINE"
);
}
);
};
layerId = "C2E97133-8774-4C1F-A96F-338CBADF7D3D";
paths = (
{
closed = 1;
nodes = (
"408 611 LINE",
"352 611 LINE",
"58 53 LINE",
"-14 33 LINE",
"-14 0 LINE",
"190 0 LINE",
"190 34 LINE",
"121 53 LINE"
);
},
{
closed = 1;
nodes = (
"437 559 LINE",
"600 559 LINE",
"621 479 LINE",
"660 479 LINE",
"660 611 LINE",
"260 611 LINE",
"260 578 LINE",
"356 558 LINE",
"390 53 LINE",
"297 33 LINE",
"297 0 LINE",
"697 0 LINE",
"697 147 LINE",
"658 147 LINE",
"632 56 LINE",
"471 56 LINE"
);
},
{
closed = 1;
nodes = (
"436 263 LINE",
"557 263 LINE",
"580 194 LINE",
"617 194 LINE",
"617 376 LINE",
"580 376 LINE",
"559 310 LINE",
"436 310 LINE"
);
},
{
closed = 1;
nodes = (
"200 263 LINE",
"460 263 LINE",
"444 310 LINE",
"214 310 LINE"
);
}
);
width = 736;
},
{
anchors = (
{
name = top;
position = "{350, 614}";
}
);
background = {
paths = (
{
closed = 1;
nodes = (
"425 546 LINE",
"556 546 LINE",
"578 468 LINE",
"634 468 LINE",
"634 614 LINE",
"210 614 LINE",
"210 569 LINE",
"275 551 LINE",
"19 69 LINE",
"-52 44 LINE",
"-52 0 LINE",
"168 0 LINE",
"168 45 LINE",
"100 68 LINE",
"195 254 LINE",
"315 254 LINE",
"329 69 LINE",
"245 45 LINE",
"245 0 LINE",
"675 0 LINE",
"675 162 LINE",
"619 162 LINE",
"593 69 LINE",
"459 69 LINE",
"445 260 LINE",
"510 260 LINE",
"529 191 LINE",
"582 191 LINE",
"582 382 LINE",
"529 382 LINE",
"512 316 LINE",
"441 316 LINE"
);
},
{
closed = 1;
nodes = (
"301 459 LINE",
"311 310 LINE",
"224 310 LINE"
);
}
);
};
layerId = "320D1F10-23EA-4160-876F-9C954522C215";
paths = (
{
closed = 1;
nodes = (
"425 546 LINE",
"556 546 LINE",
"578 468 LINE",
"634 468 LINE",
"634 614 LINE",
"210 614 LINE",
"210 569 LINE",
"275 551 LINE",
"19 69 LINE",
"-52 44 LINE",
"-52 0 LINE",
"168 0 LINE",
"168 45 LINE",
"100 68 LINE",
"195 254 LINE",
"315 254 LINE",
"329 69 LINE",
"245 45 LINE",
"245 0 LINE",
"675 0 LINE",
"675 162 LINE",
"619 162 LINE",
"593 69 LINE",
"459 69 LINE",
"445 260 LINE",
"510 260 LINE",
"529 191 LINE",
"582 191 LINE",
"582 382 LINE",
"529 382 LINE",
"512 316 LINE",
"441 316 LINE"
);
},
{
closed = 1;
nodes = (
"301 459 LINE",
"311 310 LINE",
"224 310 LINE"
);
}
);
width = 700;
}
);
unicode = 00C6;
},
{
color = 11;
glyphname = B;
lastChange = "2015-02-19 03:26:04 +0000";
layers = (
{
anchors = (
{
name = bottom;
position = "{279, 0}";
},
{
name = top;
position = "{279, 611}";
}
);
background = {
paths = (
{
closed = 1;
nodes = (
"436 339 OFFCURVE",
"482 387 OFFCURVE",
"482 466 CURVE SMOOTH",
"482 547 OFFCURVE",
"426 611 OFFCURVE",
"277 611 CURVE SMOOTH",
"38 611 LINE",
"38 578 LINE",
"128 558 LINE",
"128 53 LINE",
"38 33 LINE",
"38 0 LINE",
"283 0 LINE SMOOTH",
"421 0 OFFCURVE",
"503 69 OFFCURVE",
"503 169 CURVE SMOOTH",
"503 247 OFFCURVE",
"457 301 OFFCURVE",
"350 323 CURVE"
);
},
{
closed = 1;
nodes = (
"211 340 LINE",
"211 559 LINE",
"232 564 OFFCURVE",
"253 568 OFFCURVE",
"273 568 CURVE SMOOTH",
"340 568 OFFCURVE",
"396 534 OFFCURVE",
"396 457 CURVE SMOOTH",
"396 376 OFFCURVE",
"342 340 OFFCURVE",
"258 340 CURVE SMOOTH"
);
},
{
closed = 1;
nodes = (
"211 299 LINE",
"252 299 LINE SMOOTH",
"357 299 OFFCURVE",
"414 258 OFFCURVE",
"414 174 CURVE SMOOTH",
"414 76 OFFCURVE",
"347 41 OFFCURVE",
"271 41 CURVE SMOOTH",
"252 41 OFFCURVE",
"231 43 OFFCURVE",
"211 49 CURVE"
);
}
);
};
layerId = "C2E97133-8774-4C1F-A96F-338CBADF7D3D";
paths = (
{
closed = 1;
nodes = (
"436 339 OFFCURVE",
"482 387 OFFCURVE",
"482 466 CURVE SMOOTH",
"482 547 OFFCURVE",
"426 611 OFFCURVE",
"277 611 CURVE SMOOTH",
"38 611 LINE",
"38 578 LINE",
"128 558 LINE",
"128 53 LINE",
"38 33 LINE",
"38 0 LINE",
"283 0 LINE SMOOTH",
"421 0 OFFCURVE",
"503 69 OFFCURVE",
"503 169 CURVE SMOOTH",
"503 247 OFFCURVE",
"457 301 OFFCURVE",
"350 323 CURVE"
);
},
{
closed = 1;
nodes = (
"211 340 LINE",
"211 559 LINE",
"232 564 OFFCURVE",
"253 568 OFFCURVE",
"273 568 CURVE SMOOTH",
"340 568 OFFCURVE",
"396 534 OFFCURVE",
"396 457 CURVE SMOOTH",
"396 376 OFFCURVE",
"342 340 OFFCURVE",
"258 340 CURVE SMOOTH"
);
},
{
closed = 1;
nodes = (
"211 299 LINE",
"252 299 LINE SMOOTH",
"357 299 OFFCURVE",
"414 258 OFFCURVE",
"414 174 CURVE SMOOTH",
"414 76 OFFCURVE",
"347 41 OFFCURVE",
"271 41 CURVE SMOOTH",
"252 41 OFFCURVE",
"231 43 OFFCURVE",
"211 49 CURVE"
);
}
);
width = 558;
},
{
anchors = (
{
name = bottom;
position = "{297, 0}";
},
{
name = top;
position = "{297, 614}";
}
);
background = {
paths = (
{
closed = 1;
nodes = (
"466 338 OFFCURVE",
"527 387 OFFCURVE",
"527 464 CURVE SMOOTH",
"527 553 OFFCURVE",
"468 614 OFFCURVE",
"309 614 CURVE SMOOTH",
"35 614 LINE",
"35 569 LINE",
"120 546 LINE",
"120 69 LINE",
"36 45 LINE",
"36 0 LINE",
"300 0 LINE SMOOTH",
"464 0 OFFCURVE",
"543 68 OFFCURVE",
"543 169 CURVE SMOOTH",
"543 248 OFFCURVE",
"494 309 OFFCURVE",
"384 324 CURVE"
);
},
{
closed = 1;
nodes = (
"255 343 LINE",
"255 546 LINE",
"255 546 OFFCURVE",
"276 553 OFFCURVE",
"304 553 CURVE SMOOTH",
"357 553 OFFCURVE",
"392 525 OFFCURVE",
"392 460 CURVE SMOOTH",
"392 365 OFFCURVE",
"335 343 OFFCURVE",
"284 343 CURVE SMOOTH"
);
},
{
closed = 1;
nodes = (
"255 289 LINE",
"282 289 LINE SMOOTH",
"348 289 OFFCURVE",
"404 254 OFFCURVE",
"404 175 CURVE SMOOTH",
"404 97 OFFCURVE",
"362 63 OFFCURVE",
"304 63 CURVE SMOOTH",
"287 63 OFFCURVE",
"268 65 OFFCURVE",
"255 69 CURVE"
);
}
);
};
layerId = "320D1F10-23EA-4160-876F-9C954522C215";
paths = (
{
closed = 1;
nodes = (
"466 338 OFFCURVE",
"527 387 OFFCURVE",
"527 464 CURVE SMOOTH",
"527 553 OFFCURVE",
"468 614 OFFCURVE",
"309 614 CURVE SMOOTH",
"35 614 LINE",
"35 569 LINE",
"120 546 LINE",
"120 69 LINE",
"36 45 LINE",
"36 0 LINE",
"300 0 LINE SMOOTH",
"464 0 OFFCURVE",
"543 68 OFFCURVE",
"543 169 CURVE SMOOTH",
"543 248 OFFCURVE",
"494 309 OFFCURVE",
"384 324 CURVE"
);
},
{
closed = 1;
nodes = (
"255 343 LINE",
"255 546 LINE",
"255 546 OFFCURVE",
"276 553 OFFCURVE",
"304 553 CURVE SMOOTH",
"357 553 OFFCURVE",
"392 525 OFFCURVE",
"392 460 CURVE SMOOTH",
"392 365 OFFCURVE",
"335 343 OFFCURVE",
"284 343 CURVE SMOOTH"
);
},
{
closed = 1;
nodes = (
"255 289 LINE",
"282 289 LINE SMOOTH",
"348 289 OFFCURVE",
"404 254 OFFCURVE",
"404 175 CURVE SMOOTH",
"404 97 OFFCURVE",
"362 63 OFFCURVE",
"304 63 CURVE SMOOTH",
"287 63 OFFCURVE",
"268 65 OFFCURVE",
"255 69 CURVE"
);
}
);
width = 593;
}
);
unicode = 0042;
},
{
color = 11;
glyphname = C;
lastChange = "2015-02-21 01:09:23 +0000";
layers = (
{
anchors = (
{
name = bottom;
position = "{276, 0}";
},
{
name = top;
position = "{326, 611}";
}
);
background = {
paths = (
{
closed = 1;
nodes = (
"494 138 LINE",
"457 138 LINE",
"432 54 LINE",
"397 43 OFFCURVE",
"364 39 OFFCURVE",
"337 39 CURVE SMOOTH",
"179 39 OFFCURVE",
"131 179 OFFCURVE",
"131 309 CURVE SMOOTH",
"131 447 OFFCURVE",
"171 578 OFFCURVE",
"340 578 CURVE SMOOTH",
"368 578 OFFCURVE",
"398 574 OFFCURVE",
"432 567 CURVE",
"457 470 LINE",
"493 470 LINE",
"502 597 LINE",
"458 611 OFFCURVE",
"408 627 OFFCURVE",
"324 627 CURVE SMOOTH",
"119 627 OFFCURVE",
"41 483 OFFCURVE",
"41 309 CURVE SMOOTH",
"41 134 OFFCURVE",
"122 -9 OFFCURVE",
"324 -9 CURVE SMOOTH",
"400 -9 OFFCURVE",
"449 3 OFFCURVE",
"502 23 CURVE"
);
}
);
};
layerId = "C2E97133-8774-4C1F-A96F-338CBADF7D3D";
paths = (
{
closed = 1;
nodes = (
"494 138 LINE",
"457 138 LINE",
"432 54 LINE",
"397 43 OFFCURVE",
"364 39 OFFCURVE",
"337 39 CURVE SMOOTH",
"179 39 OFFCURVE",
"131 179 OFFCURVE",
"131 309 CURVE SMOOTH",
"131 447 OFFCURVE",
"171 578 OFFCURVE",
"340 578 CURVE SMOOTH",
"368 578 OFFCURVE",
"398 574 OFFCURVE",
"432 567 CURVE",
"457 470 LINE",
"493 470 LINE",
"502 597 LINE",
"458 611 OFFCURVE",
"408 627 OFFCURVE",
"324 627 CURVE SMOOTH",
"119 627 OFFCURVE",
"41 483 OFFCURVE",
"41 309 CURVE SMOOTH",
"41 134 OFFCURVE",
"122 -9 OFFCURVE",
"324 -9 CURVE SMOOTH",
"400 -9 OFFCURVE",
"449 3 OFFCURVE",
"502 23 CURVE"
);
}
);
width = 552;
},
{
anchors = (
{
name = bottom;
position = "{274, 0}";
},
{
name = top;
position = "{314, 614}";
}
);
background = {
paths = (
{
closed = 1;
nodes = (
"510 162 LINE",
"457 162 LINE",
"432 76 LINE",
"401 67 OFFCURVE",
"372 63 OFFCURVE",
"345 63 CURVE SMOOTH",
"208 63 OFFCURVE",
"172 192 OFFCURVE",
"172 312 CURVE SMOOTH",
"172 437 OFFCURVE",
"202 558 OFFCURVE",
"349 558 CURVE SMOOTH",
"374 558 OFFCURVE",
"409 554 OFFCURVE",
"432 545 CURVE",
"457 447 LINE",
"507 447 LINE",
"518 600 LINE",
"469 614 OFFCURVE",
"416 629 OFFCURVE",
"330 629 CURVE SMOOTH",
"113 629 OFFCURVE",
"30 485 OFFCURVE",
"30 312 CURVE SMOOTH",
"30 136 OFFCURVE",
"116 -11 OFFCURVE",
"330 -11 CURVE SMOOTH",
"408 -11 OFFCURVE",
"461 1 OFFCURVE",
"518 21 CURVE"
);
}
);
};
layerId = "320D1F10-23EA-4160-876F-9C954522C215";
paths = (
{
closed = 1;
nodes = (
"510 162 LINE",
"457 162 LINE",
"432 76 LINE",
"401 67 OFFCURVE",
"372 63 OFFCURVE",
"345 63 CURVE SMOOTH",
"208 63 OFFCURVE",
"172 192 OFFCURVE",
"172 312 CURVE SMOOTH",
"172 437 OFFCURVE",
"202 558 OFFCURVE",
"349 558 CURVE SMOOTH",
"374 558 OFFCURVE",
"409 554 OFFCURVE",
"432 545 CURVE",
"457 447 LINE",
"507 447 LINE",
"518 600 LINE",
"469 614 OFFCURVE",
"416 629 OFFCURVE",
"330 629 CURVE SMOOTH",
"113 629 OFFCURVE",
"30 485 OFFCURVE",
"30 312 CURVE SMOOTH",
"30 136 OFFCURVE",
"116 -11 OFFCURVE",
"330 -11 CURVE SMOOTH",
"408 -11 OFFCURVE",
"461 1 OFFCURVE",
"518 21 CURVE"
);
}
);
width = 548;
}
);
leftKerningGroup = O;
rightKerningGroup = C;
unicode = 0043;
},
{
color = 11;
glyphname = Cacute;
lastChange = "2015-02-19 03:26:04 +0000";
layers = (
{
background = {
paths = (
{
closed = 1;
nodes = (
"494 138 LINE",
"457 138 LINE",
"432 54 LINE",
"397 43 OFFCURVE",
"364 39 OFFCURVE",
"337 39 CURVE SMOOTH",
"179 39 OFFCURVE",
"131 179 OFFCURVE",
"131 309 CURVE SMOOTH",
"131 447 OFFCURVE",
"171 578 OFFCURVE",
"340 578 CURVE SMOOTH",
"368 578 OFFCURVE",
"398 574 OFFCURVE",
"432 567 CURVE",
"457 470 LINE",
"493 470 LINE",
"502 597 LINE",
"458 611 OFFCURVE",
"408 627 OFFCURVE",
"324 627 CURVE SMOOTH",
"119 627 OFFCURVE",
"41 483 OFFCURVE",
"41 309 CURVE SMOOTH",
"41 134 OFFCURVE",
"122 -9 OFFCURVE",
"324 -9 CURVE SMOOTH",
"400 -9 OFFCURVE",
"449 3 OFFCURVE",
"502 23 CURVE"
);
},
{
closed = 1;
nodes = (
"441 753 LINE",
"441 771 LINE",
"365 799 LINE",
"211 669 LINE",
"227 650 LINE"
);
}
);
};
layerId = "C2E97133-8774-4C1F-A96F-338CBADF7D3D";
paths = (
{
closed = 1;
nodes = (
"494 138 LINE",
"457 138 LINE",
"432 54 LINE",
"397 43 OFFCURVE",
"364 39 OFFCURVE",
"337 39 CURVE SMOOTH",
"179 39 OFFCURVE",
"131 179 OFFCURVE",
"131 309 CURVE SMOOTH",
"131 447 OFFCURVE",
"171 578 OFFCURVE",
"340 578 CURVE SMOOTH",
"368 578 OFFCURVE",
"398 574 OFFCURVE",
"432 567 CURVE",
"457 470 LINE",
"493 470 LINE",
"502 597 LINE",
"458 611 OFFCURVE",
"408 627 OFFCURVE",
"324 627 CURVE SMOOTH",
"119 627 OFFCURVE",
"41 483 OFFCURVE",
"41 309 CURVE SMOOTH",
"41 134 OFFCURVE",
"122 -9 OFFCURVE",
"324 -9 CURVE SMOOTH",
"400 -9 OFFCURVE",
"449 3 OFFCURVE",
"502 23 CURVE"
);
},
{
closed = 1;
nodes = (
"441 753 LINE",
"441 771 LINE",
"365 799 LINE",
"211 669 LINE",
"227 650 LINE"
);
}
);
width = 526;
},
{
background = {
paths = (
{
closed = 1;
nodes = (
"510 162 LINE",
"457 162 LINE",
"432 76 LINE",
"401 67 OFFCURVE",
"372 63 OFFCURVE",
"345 63 CURVE SMOOTH",
"208 63 OFFCURVE",
"172 192 OFFCURVE",
"172 312 CURVE SMOOTH",
"172 437 OFFCURVE",
"202 558 OFFCURVE",
"349 558 CURVE SMOOTH",
"374 558 OFFCURVE",
"409 554 OFFCURVE",
"432 545 CURVE",
"457 447 LINE",
"507 447 LINE",
"518 600 LINE",
"469 614 OFFCURVE",
"416 629 OFFCURVE",
"330 629 CURVE SMOOTH",
"113 629 OFFCURVE",
"30 485 OFFCURVE",
"30 312 CURVE SMOOTH",
"30 136 OFFCURVE",
"116 -11 OFFCURVE",
"330 -11 CURVE SMOOTH",
"408 -11 OFFCURVE",
"461 1 OFFCURVE",
"518 21 CURVE"
);
},
{
closed = 1;
nodes = (
"465 743 LINE",
"465 766 LINE",
"366 800 LINE",
"210 669 LINE",
"237 634 LINE"
);
}
);
};
layerId = "320D1F10-23EA-4160-876F-9C954522C215";
paths = (
{
closed = 1;
nodes = (
"510 162 LINE",
"457 162 LINE",
"432 76 LINE",
"401 67 OFFCURVE",
"372 63 OFFCURVE",
"345 63 CURVE SMOOTH",
"208 63 OFFCURVE",
"172 192 OFFCURVE",
"172 312 CURVE SMOOTH",
"172 437 OFFCURVE",
"202 558 OFFCURVE",
"349 558 CURVE SMOOTH",
"374 558 OFFCURVE",
"409 554 OFFCURVE",
"432 545 CURVE",
"457 447 LINE",
"507 447 LINE",
"518 600 LINE",
"469 614 OFFCURVE",
"416 629 OFFCURVE",
"330 629 CURVE SMOOTH",
"113 629 OFFCURVE",
"30 485 OFFCURVE",
"30 312 CURVE SMOOTH",
"30 136 OFFCURVE",
"116 -11 OFFCURVE",
"330 -11 CURVE SMOOTH",
"408 -11 OFFCURVE",
"461 1 OFFCURVE",
"518 21 CURVE"
);
},
{
closed = 1;
nodes = (
"465 743 LINE",
"465 766 LINE",
"366 800 LINE",
"210 669 LINE",
"237 634 LINE"
);
}
);
width = 548;
}
);
leftKerningGroup = O;
rightKerningGroup = C;
unicode = 0106;
},
{
color = 11;
glyphname = Ccaron;
lastChange = "2015-02-19 03:26:04 +0000";
layers = (
{
background = {
paths = (
{
closed = 1;
nodes = (
"494 138 LINE",
"457 138 LINE",
"432 54 LINE",
"397 43 OFFCURVE",
"364 39 OFFCURVE",
"337 39 CURVE SMOOTH",
"179 39 OFFCURVE",
"131 179 OFFCURVE",
"131 309 CURVE SMOOTH",
"131 447 OFFCURVE",
"171 578 OFFCURVE",
"340 578 CURVE SMOOTH",
"368 578 OFFCURVE",
"398 574 OFFCURVE",
"432 567 CURVE",
"457 470 LINE",
"493 470 LINE",
"502 597 LINE",
"458 611 OFFCURVE",
"408 627 OFFCURVE",
"324 627 CURVE SMOOTH",
"119 627 OFFCURVE",
"41 483 OFFCURVE",
"41 309 CURVE SMOOTH",
"41 134 OFFCURVE",
"122 -9 OFFCURVE",
"324 -9 CURVE SMOOTH",
"400 -9 OFFCURVE",
"449 3 OFFCURVE",
"502 23 CURVE"
);
},
{
closed = 1;
nodes = (
"182 782 LINE",
"284 651 LINE",
"344 651 LINE",
"444 782 LINE",
"426 800 LINE",
"315 718 LINE",
"199 800 LINE"
);
}
);
};
layerId = "C2E97133-8774-4C1F-A96F-338CBADF7D3D";
paths = (
{
closed = 1;
nodes = (
"494 138 LINE",
"457 138 LINE",
"432 54 LINE",
"397 43 OFFCURVE",
"364 39 OFFCURVE",
"337 39 CURVE SMOOTH",
"179 39 OFFCURVE",
"131 179 OFFCURVE",
"131 309 CURVE SMOOTH",
"131 447 OFFCURVE",
"171 578 OFFCURVE",
"340 578 CURVE SMOOTH",
"368 578 OFFCURVE",
"398 574 OFFCURVE",
"432 567 CURVE",
"457 470 LINE",
"493 470 LINE",
"502 597 LINE",
"458 611 OFFCURVE",
"408 627 OFFCURVE",
"324 627 CURVE SMOOTH",
"119 627 OFFCURVE",
"41 483 OFFCURVE",
"41 309 CURVE SMOOTH",
"41 134 OFFCURVE",
"122 -9 OFFCURVE",
"324 -9 CURVE SMOOTH",
"400 -9 OFFCURVE",
"449 3 OFFCURVE",
"502 23 CURVE"
);
},
{
closed = 1;
nodes = (
"182 782 LINE",
"284 651 LINE",
"344 651 LINE",
"444 782 LINE",
"426 800 LINE",
"315 718 LINE",
"199 800 LINE"
);
}
);
width = 526;
},
{
background = {
paths = (
{
closed = 1;
nodes = (
"510 162 LINE",
"457 162 LINE",
"432 76 LINE",
"401 67 OFFCURVE",
"372 63 OFFCURVE",
"345 63 CURVE SMOOTH",
"208 63 OFFCURVE",
"172 192 OFFCURVE",
"172 312 CURVE SMOOTH",
"172 437 OFFCURVE",
"202 558 OFFCURVE",
"349 558 CURVE SMOOTH",
"374 558 OFFCURVE",
"409 554 OFFCURVE",
"432 545 CURVE",
"457 447 LINE",
"507 447 LINE",
"518 600 LINE",
"469 614 OFFCURVE",
"416 629 OFFCURVE",
"330 629 CURVE SMOOTH",
"113 629 OFFCURVE",
"30 485 OFFCURVE",
"30 312 CURVE SMOOTH",
"30 136 OFFCURVE",
"116 -11 OFFCURVE",
"330 -11 CURVE SMOOTH",
"408 -11 OFFCURVE",
"461 1 OFFCURVE",
"518 21 CURVE"
);
},
{
closed = 1;
nodes = (
"445 800 LINE",
"316 723 LINE",
"190 800 LINE",
"164 775 LINE",
"274 641 LINE",
"359 641 LINE",
"468 775 LINE"
);
}
);
};
layerId = "320D1F10-23EA-4160-876F-9C954522C215";
paths = (
{
closed = 1;
nodes = (
"510 162 LINE",
"457 162 LINE",
"432 76 LINE",
"401 67 OFFCURVE",
"372 63 OFFCURVE",
"345 63 CURVE SMOOTH",
"208 63 OFFCURVE",
"172 192 OFFCURVE",
"172 312 CURVE SMOOTH",
"172 437 OFFCURVE",
"202 558 OFFCURVE",
"349 558 CURVE SMOOTH",
"374 558 OFFCURVE",
"409 554 OFFCURVE",
"432 545 CURVE",
"457 447 LINE",
"507 447 LINE",
"518 600 LINE",
"469 614 OFFCURVE",
"416 629 OFFCURVE",
"330 629 CURVE SMOOTH",
"113 629 OFFCURVE",
"30 485 OFFCURVE",
"30 312 CURVE SMOOTH",
"30 136 OFFCURVE",
"116 -11 OFFCURVE",
"330 -11 CURVE SMOOTH",
"408 -11 OFFCURVE",
"461 1 OFFCURVE",
"518 21 CURVE"
);
},
{
closed = 1;
nodes = (
"445 800 LINE",
"316 723 LINE",
"190 800 LINE",
"164 775 LINE",
"274 641 LINE",
"359 641 LINE",
"468 775 LINE"
);
}
);
width = 548;
}
);
leftKerningGroup = O;
rightKerningGroup = C;
unicode = 010C;
},
{
color = 11;
glyphname = Ccedilla;
lastChange = "2015-02-19 03:26:04 +0000";
layers = (
{
background = {
paths = (
{
closed = 1;
nodes = (
"494 138 LINE",
"457 138 LINE",
"432 54 LINE",
"397 43 OFFCURVE",
"364 39 OFFCURVE",
"337 39 CURVE SMOOTH",
"179 39 OFFCURVE",
"131 179 OFFCURVE",
"131 309 CURVE SMOOTH",
"131 447 OFFCURVE",
"171 578 OFFCURVE",
"340 578 CURVE SMOOTH",
"368 578 OFFCURVE",
"398 574 OFFCURVE",
"432 567 CURVE",
"457 470 LINE",
"493 470 LINE",
"502 597 LINE",
"458 611 OFFCURVE",
"408 627 OFFCURVE",
"324 627 CURVE SMOOTH",
"119 627 OFFCURVE",
"41 483 OFFCURVE",
"41 309 CURVE SMOOTH",
"41 134 OFFCURVE",
"122 -9 OFFCURVE",
"324 -9 CURVE SMOOTH",
"400 -9 OFFCURVE",
"449 3 OFFCURVE",
"502 23 CURVE"
);
},
{
closed = 1;
nodes = (
"322 7 LINE",
"292 7 LINE",
"267 -67 LINE",
"270 -76 LINE",
"326 -76 OFFCURVE",
"347 -98 OFFCURVE",
"347 -124 CURVE SMOOTH",
"347 -161 OFFCURVE",
"315 -192 OFFCURVE",
"268 -192 CURVE SMOOTH",
"256 -192 OFFCURVE",
"246 -190 OFFCURVE",
"233 -186 CURVE",
"225 -211 LINE",
"242 -217 OFFCURVE",
"260 -219 OFFCURVE",
"277 -219 CURVE SMOOTH",
"349 -219 OFFCURVE",
"412 -173 OFFCURVE",
"412 -116 CURVE SMOOTH",
"412 -79 OFFCURVE",
"378 -46 OFFCURVE",
"305 -46 CURVE"
);
}
);
};
layerId = "C2E97133-8774-4C1F-A96F-338CBADF7D3D";
paths = (
{
closed = 1;
nodes = (
"494 138 LINE",
"457 138 LINE",
"432 54 LINE",
"397 43 OFFCURVE",
"364 39 OFFCURVE",
"337 39 CURVE SMOOTH",
"179 39 OFFCURVE",
"131 179 OFFCURVE",
"131 309 CURVE SMOOTH",
"131 447 OFFCURVE",
"171 578 OFFCURVE",
"340 578 CURVE SMOOTH",
"368 578 OFFCURVE",
"398 574 OFFCURVE",
"432 567 CURVE",
"457 470 LINE",
"493 470 LINE",
"502 597 LINE",
"458 611 OFFCURVE",
"408 627 OFFCURVE",
"324 627 CURVE SMOOTH",
"119 627 OFFCURVE",
"41 483 OFFCURVE",
"41 309 CURVE SMOOTH",
"41 134 OFFCURVE",
"122 -9 OFFCURVE",
"324 -9 CURVE SMOOTH",
"400 -9 OFFCURVE",
"449 3 OFFCURVE",
"502 23 CURVE"
);
},
{
closed = 1;
nodes = (
"322 7 LINE",
"292 7 LINE",
"267 -67 LINE",
"270 -76 LINE",
"326 -76 OFFCURVE",
"347 -98 OFFCURVE",
"347 -124 CURVE SMOOTH",
"347 -161 OFFCURVE",
"315 -192 OFFCURVE",
"268 -192 CURVE SMOOTH",
"256 -192 OFFCURVE",
"246 -190 OFFCURVE",
"233 -186 CURVE",
"225 -211 LINE",
"242 -217 OFFCURVE",
"260 -219 OFFCURVE",
"277 -219 CURVE SMOOTH",
"349 -219 OFFCURVE",
"412 -173 OFFCURVE",
"412 -116 CURVE SMOOTH",
"412 -79 OFFCURVE",
"378 -46 OFFCURVE",
"305 -46 CURVE"
);
}
);
width = 526;
},
{
background = {
paths = (
{
closed = 1;
nodes = (
"510 162 LINE",
"457 162 LINE",
"432 76 LINE",
"401 67 OFFCURVE",
"372 63 OFFCURVE",
"345 63 CURVE SMOOTH",
"208 63 OFFCURVE",
"172 192 OFFCURVE",
"172 312 CURVE SMOOTH",
"172 437 OFFCURVE",
"202 558 OFFCURVE",
"349 558 CURVE SMOOTH",
"374 558 OFFCURVE",
"409 554 OFFCURVE",
"432 545 CURVE",
"457 447 LINE",
"507 447 LINE",
"518 600 LINE",
"469 614 OFFCURVE",
"416 629 OFFCURVE",
"330 629 CURVE SMOOTH",
"113 629 OFFCURVE",
"30 485 OFFCURVE",
"30 312 CURVE SMOOTH",
"30 146 OFFCURVE",
"106 7 OFFCURVE",
"292 -9 CURVE",
"269 -73 LINE",
"276 -92 LINE",
"317 -93 OFFCURVE",
"331 -112 OFFCURVE",
"331 -131 CURVE SMOOTH",
"331 -152 OFFCURVE",
"312 -176 OFFCURVE",
"273 -176 CURVE SMOOTH",
"263 -176 OFFCURVE",
"254 -174 OFFCURVE",
"245 -169 CURVE",
"237 -209 LINE",
"254 -217 OFFCURVE",
"272 -220 OFFCURVE",
"291 -220 CURVE SMOOTH",
"362 -220 OFFCURVE",
"427 -174 OFFCURVE",
"427 -118 CURVE SMOOTH",
"427 -78 OFFCURVE",
"396 -46 OFFCURVE",
"328 -46 CURVE",
"339 -11 LINE",
"412 -10 OFFCURVE",
"463 2 OFFCURVE",
"518 21 CURVE"
);
}
);
};
layerId = "320D1F10-23EA-4160-876F-9C954522C215";
paths = (
{
closed = 1;
nodes = (
"510 162 LINE",
"457 162 LINE",
"432 76 LINE",
"401 67 OFFCURVE",
"372 63 OFFCURVE",
"345 63 CURVE SMOOTH",
"208 63 OFFCURVE",
"172 192 OFFCURVE",
"172 312 CURVE SMOOTH",
"172 437 OFFCURVE",
"202 558 OFFCURVE",
"349 558 CURVE SMOOTH",
"374 558 OFFCURVE",
"409 554 OFFCURVE",
"432 545 CURVE",
"457 447 LINE",
"507 447 LINE",
"518 600 LINE",
"469 614 OFFCURVE",
"416 629 OFFCURVE",
"330 629 CURVE SMOOTH",
"113 629 OFFCURVE",
"30 485 OFFCURVE",
"30 312 CURVE SMOOTH",
"30 146 OFFCURVE",
"106 7 OFFCURVE",
"292 -9 CURVE",
"269 -73 LINE",
"276 -92 LINE",
"317 -93 OFFCURVE",
"331 -112 OFFCURVE",
"331 -131 CURVE SMOOTH",
"331 -152 OFFCURVE",
"312 -176 OFFCURVE",
"273 -176 CURVE SMOOTH",
"263 -176 OFFCURVE",
"254 -174 OFFCURVE",
"245 -169 CURVE",
"237 -209 LINE",
"254 -217 OFFCURVE",
"272 -220 OFFCURVE",
"291 -220 CURVE SMOOTH",
"362 -220 OFFCURVE",
"427 -174 OFFCURVE",
"427 -118 CURVE SMOOTH",
"427 -78 OFFCURVE",
"396 -46 OFFCURVE",
"328 -46 CURVE",
"339 -11 LINE",
"412 -10 OFFCURVE",
"463 2 OFFCURVE",
"518 21 CURVE"
);
}
);
width = 548;
}
);
leftKerningGroup = O;
rightKerningGroup = C;
unicode = 00C7;
},
{
color = 11;
glyphname = D;
lastChange = "2015-02-19 03:26:04 +0000";
layers = (
{
anchors = (
{
name = bottom;
position = "{320, 0}";
},
{
name = center;
position = "{320, 306}";
},
{
name = top;
position = "{320, 611}";
}
);
background = {
paths = (
{
closed = 1;
nodes = (
"38 611 LINE",
"38 578 LINE",
"128 558 LINE",
"128 53 LINE",
"38 33 LINE",
"38 0 LINE",
"317 0 LINE SMOOTH",
"520 0 OFFCURVE",
"598 143 OFFCURVE",
"598 318 CURVE SMOOTH",
"598 492 OFFCURVE",
"516 611 OFFCURVE",
"300 611 CURVE SMOOTH"
);
},
{
closed = 1;
nodes = (
"431 564 OFFCURVE",
"508 466 OFFCURVE",
"508 318 CURVE SMOOTH",
"508 206 OFFCURVE",
"480 41 OFFCURVE",
"328 41 CURVE SMOOTH",
"289 41 OFFCURVE",
"236 49 OFFCURVE",
"211 58 CURVE",
"211 558 LINE",
"228 561 OFFCURVE",
"257 564 OFFCURVE",
"290 564 CURVE SMOOTH"
);
}
);
};
layerId = "C2E97133-8774-4C1F-A96F-338CBADF7D3D";
paths = (
{
closed = 1;
nodes = (
"38 611 LINE",
"38 578 LINE",
"128 558 LINE",
"128 53 LINE",
"38 33 LINE",
"38 0 LINE",
"317 0 LINE SMOOTH",
"520 0 OFFCURVE",
"598 143 OFFCURVE",
"598 318 CURVE SMOOTH",
"598 492 OFFCURVE",
"516 611 OFFCURVE",
"300 611 CURVE SMOOTH"
);
},
{
closed = 1;
nodes = (
"431 564 OFFCURVE",
"508 466 OFFCURVE",
"508 318 CURVE SMOOTH",
"508 206 OFFCURVE",
"480 41 OFFCURVE",
"328 41 CURVE SMOOTH",
"289 41 OFFCURVE",
"236 49 OFFCURVE",
"211 58 CURVE",
"211 558 LINE",
"228 561 OFFCURVE",
"257 564 OFFCURVE",
"290 564 CURVE SMOOTH"
);
}
);
width = 639;
},
{
anchors = (
{
name = bottom;
position = "{328, 0}";
},
{
name = center;
position = "{328, 307}";
},
{
name = top;
position = "{328, 614}";
}
);
background = {
paths = (
{
closed = 1;
nodes = (
"35 614 LINE",
"35 569 LINE",
"120 546 LINE",
"120 69 LINE",
"36 45 LINE",
"36 0 LINE",
"328 0 LINE SMOOTH",
"540 0 OFFCURVE",
"625 145 OFFCURVE",
"625 320 CURVE SMOOTH",
"625 494 OFFCURVE",
"534 614 OFFCURVE",
"309 614 CURVE SMOOTH"
);
},
{
closed = 1;
nodes = (
"416 552 OFFCURVE",
"483 456 OFFCURVE",
"483 320 CURVE SMOOTH",
"483 184 OFFCURVE",
"459 57 OFFCURVE",
"333 57 CURVE SMOOTH",
"306 57 OFFCURVE",
"277 62 OFFCURVE",
"255 69 CURVE",
"255 546 LINE",
"267 549 OFFCURVE",
"282 552 OFFCURVE",
"308 552 CURVE SMOOTH"
);
}
);
};
layerId = "320D1F10-23EA-4160-876F-9C954522C215";
paths = (
{
closed = 1;
nodes = (
"35 614 LINE",
"35 569 LINE",
"120 546 LINE",
"120 69 LINE",
"36 45 LINE",
"36 0 LINE",
"328 0 LINE SMOOTH",
"540 0 OFFCURVE",
"625 145 OFFCURVE",
"625 320 CURVE SMOOTH",
"625 494 OFFCURVE",
"534 614 OFFCURVE",
"309 614 CURVE SMOOTH"
);
},
{
closed = 1;
nodes = (
"416 552 OFFCURVE",
"483 456 OFFCURVE",
"483 320 CURVE SMOOTH",
"483 184 OFFCURVE",
"459 57 OFFCURVE",
"333 57 CURVE SMOOTH",
"306 57 OFFCURVE",
"277 62 OFFCURVE",
"255 69 CURVE",
"255 546 LINE",
"267 549 OFFCURVE",
"282 552 OFFCURVE",
"308 552 CURVE SMOOTH"
);
}
);
width = 655;
}
);
rightKerningGroup = D;
unicode = 0044;
},
{
color = 11;
glyphname = Eth;
lastChange = "2015-02-19 03:26:04 +0000";
layers = (
{
background = {
paths = (
{
closed = 1;
nodes = (
"323 323 LINE",
"41 323 LINE",
"41 277 LINE",
"323 277 LINE"
);
},
{
closed = 1;
nodes = (
"38 611 LINE",
"38 578 LINE",
"128 558 LINE",
"128 53 LINE",
"38 33 LINE",
"38 0 LINE",
"317 0 LINE SMOOTH",
"520 0 OFFCURVE",
"598 143 OFFCURVE",
"598 318 CURVE SMOOTH",
"598 492 OFFCURVE",
"516 611 OFFCURVE",
"300 611 CURVE SMOOTH"
);
},
{
closed = 1;
nodes = (
"431 564 OFFCURVE",
"508 466 OFFCURVE",
"508 318 CURVE SMOOTH",
"508 206 OFFCURVE",
"480 41 OFFCURVE",
"328 41 CURVE SMOOTH",
"289 41 OFFCURVE",
"236 49 OFFCURVE",
"211 58 CURVE",
"211 558 LINE",
"228 561 OFFCURVE",
"257 564 OFFCURVE",
"290 564 CURVE SMOOTH"
);
}
);
};
layerId = "C2E97133-8774-4C1F-A96F-338CBADF7D3D";
paths = (
{
closed = 1;
nodes = (
"323 323 LINE",
"41 323 LINE",
"41 277 LINE",
"323 277 LINE"
);
},
{
closed = 1;
nodes = (
"38 611 LINE",
"38 578 LINE",
"128 558 LINE",
"128 53 LINE",
"38 33 LINE",
"38 0 LINE",
"317 0 LINE SMOOTH",
"520 0 OFFCURVE",
"598 143 OFFCURVE",
"598 318 CURVE SMOOTH",
"598 492 OFFCURVE",
"516 611 OFFCURVE",
"300 611 CURVE SMOOTH"
);
},
{
closed = 1;
nodes = (
"431 564 OFFCURVE",
"508 466 OFFCURVE",
"508 318 CURVE SMOOTH",
"508 206 OFFCURVE",
"480 41 OFFCURVE",
"328 41 CURVE SMOOTH",
"289 41 OFFCURVE",
"236 49 OFFCURVE",
"211 58 CURVE",
"211 558 LINE",
"228 561 OFFCURVE",
"257 564 OFFCURVE",
"290 564 CURVE SMOOTH"
);
}
);
width = 639;
},
{
background = {
paths = (
{
closed = 1;
nodes = (
"38 614 LINE",
"38 569 LINE",
"123 546 LINE",
"123 330 LINE",
"40 330 LINE",
"40 274 LINE",
"123 274 LINE",
"123 69 LINE",
"39 45 LINE",
"39 0 LINE",
"331 0 LINE SMOOTH",
"543 0 OFFCURVE",
"628 145 OFFCURVE",
"628 320 CURVE SMOOTH",
"628 494 OFFCURVE",
"537 614 OFFCURVE",
"312 614 CURVE SMOOTH"
);
},
{
closed = 1;
nodes = (
"371 330 LINE",
"258 330 LINE",
"258 546 LINE",
"270 549 OFFCURVE",
"285 552 OFFCURVE",
"311 552 CURVE SMOOTH",
"419 552 OFFCURVE",
"486 456 OFFCURVE",
"486 320 CURVE SMOOTH",
"486 184 OFFCURVE",
"462 57 OFFCURVE",
"336 57 CURVE SMOOTH",
"309 57 OFFCURVE",
"280 62 OFFCURVE",
"258 69 CURVE",
"258 274 LINE",
"371 274 LINE"
);
}
);
};
layerId = "320D1F10-23EA-4160-876F-9C954522C215";
paths = (
{
closed = 1;
nodes = (
"38 614 LINE",
"38 569 LINE",
"123 546 LINE",
"123 330 LINE",
"40 330 LINE",
"40 274 LINE",
"123 274 LINE",
"123 69 LINE",
"39 45 LINE",
"39 0 LINE",
"331 0 LINE SMOOTH",
"543 0 OFFCURVE",
"628 145 OFFCURVE",
"628 320 CURVE SMOOTH",
"628 494 OFFCURVE",
"537 614 OFFCURVE",
"312 614 CURVE SMOOTH"
);
},
{
closed = 1;
nodes = (
"371 330 LINE",
"258 330 LINE",
"258 546 LINE",
"270 549 OFFCURVE",
"285 552 OFFCURVE",
"311 552 CURVE SMOOTH",
"419 552 OFFCURVE",
"486 456 OFFCURVE",
"486 320 CURVE SMOOTH",
"486 184 OFFCURVE",
"462 57 OFFCURVE",
"336 57 CURVE SMOOTH",
"309 57 OFFCURVE",
"280 62 OFFCURVE",
"258 69 CURVE",
"258 274 LINE",
"371 274 LINE"
);
}
);
width = 658;
}
);
rightKerningGroup = D;
unicode = 00D0;
},
{
color = 11;
glyphname = Dcaron;
lastChange = "2015-02-19 03:26:04 +0000";
layers = (
{
background = {
paths = (
{
closed = 1;
nodes = (
"38 611 LINE",
"38 578 LINE",
"128 558 LINE",
"128 53 LINE",
"38 33 LINE",
"38 0 LINE",
"317 0 LINE SMOOTH",
"520 0 OFFCURVE",
"598 143 OFFCURVE",
"598 318 CURVE SMOOTH",
"598 492 OFFCURVE",
"516 611 OFFCURVE",
"300 611 CURVE SMOOTH"
);
},
{
closed = 1;
nodes = (
"431 564 OFFCURVE",
"508 466 OFFCURVE",
"508 318 CURVE SMOOTH",
"508 206 OFFCURVE",
"480 41 OFFCURVE",
"328 41 CURVE SMOOTH",
"289 41 OFFCURVE",
"236 49 OFFCURVE",
"211 58 CURVE",
"211 558 LINE",
"228 561 OFFCURVE",
"257 564 OFFCURVE",
"290 564 CURVE SMOOTH"
);
},
{
closed = 1;
nodes = (
"182 782 LINE",
"284 651 LINE",
"344 651 LINE",
"444 782 LINE",
"426 800 LINE",
"315 718 LINE",
"199 800 LINE"
);
}
);
};
layerId = "C2E97133-8774-4C1F-A96F-338CBADF7D3D";
paths = (
{
closed = 1;
nodes = (
"38 611 LINE",
"38 578 LINE",
"128 558 LINE",
"128 53 LINE",
"38 33 LINE",
"38 0 LINE",
"317 0 LINE SMOOTH",
"520 0 OFFCURVE",
"598 143 OFFCURVE",
"598 318 CURVE SMOOTH",
"598 492 OFFCURVE",
"516 611 OFFCURVE",
"300 611 CURVE SMOOTH"
);
},
{
closed = 1;
nodes = (
"431 564 OFFCURVE",
"508 466 OFFCURVE",
"508 318 CURVE SMOOTH",
"508 206 OFFCURVE",
"480 41 OFFCURVE",
"328 41 CURVE SMOOTH",
"289 41 OFFCURVE",
"236 49 OFFCURVE",
"211 58 CURVE",
"211 558 LINE",
"228 561 OFFCURVE",
"257 564 OFFCURVE",
"290 564 CURVE SMOOTH"
);
},
{
closed = 1;
nodes = (
"182 782 LINE",
"284 651 LINE",
"344 651 LINE",
"444 782 LINE",
"426 800 LINE",
"315 718 LINE",
"199 800 LINE"
);
}
);
width = 630;
},
{
background = {
paths = (
{
closed = 1;
nodes = (
"35 614 LINE",
"35 569 LINE",
"120 546 LINE",
"120 69 LINE",
"36 45 LINE",
"36 0 LINE",
"328 0 LINE SMOOTH",
"540 0 OFFCURVE",
"625 145 OFFCURVE",
"625 320 CURVE SMOOTH",
"625 494 OFFCURVE",
"534 614 OFFCURVE",
"309 614 CURVE SMOOTH"
);
},
{
closed = 1;
nodes = (
"416 552 OFFCURVE",
"483 456 OFFCURVE",
"483 320 CURVE SMOOTH",
"483 184 OFFCURVE",
"459 57 OFFCURVE",
"333 57 CURVE SMOOTH",
"306 57 OFFCURVE",
"277 62 OFFCURVE",
"255 69 CURVE",
"255 546 LINE",
"267 549 OFFCURVE",
"282 552 OFFCURVE",
"308 552 CURVE SMOOTH"
);
},
{
closed = 1;
nodes = (
"437 800 LINE",
"308 723 LINE",
"182 800 LINE",
"156 775 LINE",
"266 641 LINE",
"351 641 LINE",
"460 775 LINE"
);
}
);
};
layerId = "320D1F10-23EA-4160-876F-9C954522C215";
paths = (
{
closed = 1;
nodes = (
"35 614 LINE",
"35 569 LINE",
"120 546 LINE",
"120 69 LINE",
"36 45 LINE",
"36 0 LINE",
"328 0 LINE SMOOTH",
"540 0 OFFCURVE",
"625 145 OFFCURVE",
"625 320 CURVE SMOOTH",
"625 494 OFFCURVE",
"534 614 OFFCURVE",
"309 614 CURVE SMOOTH"
);
},
{
closed = 1;
nodes = (
"416 552 OFFCURVE",
"483 456 OFFCURVE",
"483 320 CURVE SMOOTH",
"483 184 OFFCURVE",
"459 57 OFFCURVE",
"333 57 CURVE SMOOTH",
"306 57 OFFCURVE",
"277 62 OFFCURVE",
"255 69 CURVE",
"255 546 LINE",
"267 549 OFFCURVE",
"282 552 OFFCURVE",
"308 552 CURVE SMOOTH"
);
},
{
closed = 1;
nodes = (
"437 800 LINE",
"308 723 LINE",
"182 800 LINE",
"156 775 LINE",
"266 641 LINE",
"351 641 LINE",
"460 775 LINE"
);
}
);
width = 655;
}
);
rightKerningGroup = D;
unicode = 010E;
},
{
color = 11;
glyphname = Dcroat;
lastChange = "2015-02-19 03:26:04 +0000";
layers = (
{
background = {
paths = (
{
closed = 1;
nodes = (
"323 323 LINE",
"41 323 LINE",
"41 277 LINE",
"323 277 LINE"
);
},
{
closed = 1;
nodes = (
"38 611 LINE",
"38 578 LINE",
"128 558 LINE",
"128 53 LINE",
"38 33 LINE",
"38 0 LINE",
"317 0 LINE SMOOTH",
"520 0 OFFCURVE",
"598 143 OFFCURVE",
"598 318 CURVE SMOOTH",
"598 492 OFFCURVE",
"516 611 OFFCURVE",
"300 611 CURVE SMOOTH"
);
},
{
closed = 1;
nodes = (
"431 564 OFFCURVE",
"508 466 OFFCURVE",
"508 318 CURVE SMOOTH",
"508 206 OFFCURVE",
"480 41 OFFCURVE",
"328 41 CURVE SMOOTH",
"289 41 OFFCURVE",
"236 49 OFFCURVE",
"211 58 CURVE",
"211 558 LINE",
"228 561 OFFCURVE",
"257 564 OFFCURVE",
"290 564 CURVE SMOOTH"
);
}
);
};
layerId = "C2E97133-8774-4C1F-A96F-338CBADF7D3D";
paths = (
{
closed = 1;
nodes = (
"323 323 LINE",
"41 323 LINE",
"41 277 LINE",
"323 277 LINE"
);
},
{
closed = 1;
nodes = (
"38 611 LINE",
"38 578 LINE",
"128 558 LINE",
"128 53 LINE",
"38 33 LINE",
"38 0 LINE",
"317 0 LINE SMOOTH",
"520 0 OFFCURVE",
"598 143 OFFCURVE",
"598 318 CURVE SMOOTH",
"598 492 OFFCURVE",
"516 611 OFFCURVE",
"300 611 CURVE SMOOTH"
);
},
{
closed = 1;
nodes = (
"431 564 OFFCURVE",
"508 466 OFFCURVE",
"508 318 CURVE SMOOTH",
"508 206 OFFCURVE",
"480 41 OFFCURVE",
"328 41 CURVE SMOOTH",
"289 41 OFFCURVE",
"236 49 OFFCURVE",
"211 58 CURVE",
"211 558 LINE",
"228 561 OFFCURVE",
"257 564 OFFCURVE",
"290 564 CURVE SMOOTH"
);
}
);
width = 639;
},
{
background = {
paths = (
{
closed = 1;
nodes = (
"35 614 LINE",
"35 569 LINE",
"120 546 LINE",
"120 330 LINE",
"37 330 LINE",
"37 274 LINE",
"120 274 LINE",
"120 69 LINE",
"36 45 LINE",
"36 0 LINE",
"328 0 LINE SMOOTH",
"540 0 OFFCURVE",
"625 145 OFFCURVE",
"625 320 CURVE SMOOTH",
"625 494 OFFCURVE",
"534 614 OFFCURVE",
"309 614 CURVE SMOOTH"
);
},
{
closed = 1;
nodes = (
"416 552 OFFCURVE",
"483 456 OFFCURVE",
"483 320 CURVE SMOOTH",
"483 184 OFFCURVE",
"459 57 OFFCURVE",
"333 57 CURVE SMOOTH",
"306 57 OFFCURVE",
"277 62 OFFCURVE",
"255 69 CURVE",
"255 274 LINE",
"368 274 LINE",
"368 330 LINE",
"255 330 LINE",
"255 546 LINE",
"267 549 OFFCURVE",
"282 552 OFFCURVE",
"308 552 CURVE SMOOTH"
);
}
);
};
layerId = "320D1F10-23EA-4160-876F-9C954522C215";
paths = (
{
closed = 1;
nodes = (
"35 614 LINE",
"35 569 LINE",
"120 546 LINE",
"120 330 LINE",
"37 330 LINE",
"37 274 LINE",
"120 274 LINE",
"120 69 LINE",
"36 45 LINE",
"36 0 LINE",
"328 0 LINE SMOOTH",
"540 0 OFFCURVE",
"625 145 OFFCURVE",
"625 320 CURVE SMOOTH",
"625 494 OFFCURVE",
"534 614 OFFCURVE",
"309 614 CURVE SMOOTH"
);
},
{
closed = 1;
nodes = (
"416 552 OFFCURVE",
"483 456 OFFCURVE",
"483 320 CURVE SMOOTH",
"483 184 OFFCURVE",
"459 57 OFFCURVE",
"333 57 CURVE SMOOTH",
"306 57 OFFCURVE",
"277 62 OFFCURVE",
"255 69 CURVE",
"255 274 LINE",
"368 274 LINE",
"368 330 LINE",
"255 330 LINE",
"255 546 LINE",
"267 549 OFFCURVE",
"282 552 OFFCURVE",
"308 552 CURVE SMOOTH"
);
}
);
width = 655;
}
);
rightKerningGroup = D;
unicode = 0110;
},
{
color = 11;
glyphname = E;
lastChange = "2015-02-19 03:26:04 +0000";
layers = (
{
anchors = (
{
name = bottom;
position = "{272, 0}";
},
{
name = ogonek;
position = "{490, 10}";
},
{
name = top;
position = "{272, 611}";
}
);
background = {
paths = (
{
closed = 1;
nodes = (
"362 323 LINE",
"217 323 LINE",
"217 559 LINE",
"413 559 LINE",
"434 479 LINE",
"473 479 LINE",
"473 611 LINE",
"39 611 LINE",
"39 578 LINE",
"134 558 LINE",
"134 53 LINE",
"39 33 LINE",
"39 0 LINE",
"498 0 LINE",
"498 147 LINE",
"459 147 LINE",
"433 56 LINE",
"217 56 LINE",
"217 277 LINE",
"359 277 LINE",
"383 208 LINE",
"419 208 LINE",
"419 389 LINE",
"383 389 LINE"
);
}
);
};
layerId = "C2E97133-8774-4C1F-A96F-338CBADF7D3D";
paths = (
{
closed = 1;
nodes = (
"362 323 LINE",
"217 323 LINE",
"217 559 LINE",
"413 559 LINE",
"434 479 LINE",
"473 479 LINE",
"473 611 LINE",
"39 611 LINE",
"39 578 LINE",
"134 558 LINE",
"134 53 LINE",
"39 33 LINE",
"39 0 LINE",
"498 0 LINE",
"498 147 LINE",
"459 147 LINE",
"433 56 LINE",
"217 56 LINE",
"217 277 LINE",
"359 277 LINE",
"383 208 LINE",
"419 208 LINE",
"419 389 LINE",
"383 389 LINE"
);
}
);
width = 544;
},
{
anchors = (
{
name = bottom;
position = "{273, 0}";
},
{
name = ogonek;
position = "{490, 10}";
},
{
name = top;
position = "{273, 614}";
}
);
background = {
paths = (
{
closed = 1;
nodes = (
"361 330 LINE",
"255 330 LINE",
"255 546 LINE",
"420 546 LINE",
"442 468 LINE",
"498 468 LINE",
"498 614 LINE",
"35 614 LINE",
"35 569 LINE",
"120 546 LINE",
"120 69 LINE",
"36 45 LINE",
"36 0 LINE",
"518 0 LINE",
"518 162 LINE",
"462 162 LINE",
"436 69 LINE",
"255 69 LINE",
"255 274 LINE",
"359 274 LINE",
"378 205 LINE",
"431 205 LINE",
"431 396 LINE",
"378 396 LINE"
);
}
);
};
layerId = "320D1F10-23EA-4160-876F-9C954522C215";
paths = (
{
closed = 1;
nodes = (
"361 330 LINE",
"255 330 LINE",
"255 546 LINE",
"420 546 LINE",
"442 468 LINE",
"498 468 LINE",
"498 614 LINE",
"35 614 LINE",
"35 569 LINE",
"120 546 LINE",
"120 69 LINE",
"36 45 LINE",
"36 0 LINE",
"518 0 LINE",
"518 162 LINE",
"462 162 LINE",
"436 69 LINE",
"255 69 LINE",
"255 274 LINE",
"359 274 LINE",
"378 205 LINE",
"431 205 LINE",
"431 396 LINE",
"378 396 LINE"
);
}
);
width = 545;
}
);
rightKerningGroup = E;
unicode = 0045;
},
{
color = 11;
glyphname = Eacute;
lastChange = "2015-02-19 03:26:04 +0000";
layers = (
{
background = {
paths = (
{
closed = 1;
nodes = (
"423 753 LINE",
"423 771 LINE",
"347 799 LINE",
"193 669 LINE",
"209 650 LINE"
);
},
{
closed = 1;
nodes = (
"362 323 LINE",
"217 323 LINE",
"217 559 LINE",
"413 559 LINE",
"434 479 LINE",
"473 479 LINE",
"473 611 LINE",
"39 611 LINE",
"39 578 LINE",
"134 558 LINE",
"134 53 LINE",
"39 33 LINE",
"39 0 LINE",
"498 0 LINE",
"498 147 LINE",
"459 147 LINE",
"433 56 LINE",
"217 56 LINE",
"217 277 LINE",
"359 277 LINE",
"383 208 LINE",
"419 208 LINE",
"419 389 LINE",
"383 389 LINE"
);
}
);
};
layerId = "C2E97133-8774-4C1F-A96F-338CBADF7D3D";
paths = (
{
closed = 1;
nodes = (
"423 753 LINE",
"423 771 LINE",
"347 799 LINE",
"193 669 LINE",
"209 650 LINE"
);
},
{
closed = 1;
nodes = (
"362 323 LINE",
"217 323 LINE",
"217 559 LINE",
"413 559 LINE",
"434 479 LINE",
"473 479 LINE",
"473 611 LINE",
"39 611 LINE",
"39 578 LINE",
"134 558 LINE",
"134 53 LINE",
"39 33 LINE",
"39 0 LINE",
"498 0 LINE",
"498 147 LINE",
"459 147 LINE",
"433 56 LINE",
"217 56 LINE",
"217 277 LINE",
"359 277 LINE",
"383 208 LINE",
"419 208 LINE",
"419 389 LINE",
"383 389 LINE"
);
}
);
width = 544;
},
{
background = {
paths = (
{
closed = 1;
nodes = (
"361 330 LINE",
"255 330 LINE",
"255 546 LINE",
"420 546 LINE",
"442 468 LINE",
"498 468 LINE",
"498 614 LINE",
"35 614 LINE",
"35 569 LINE",
"120 546 LINE",
"120 69 LINE",
"36 45 LINE",
"36 0 LINE",
"518 0 LINE",
"518 162 LINE",
"462 162 LINE",
"436 69 LINE",
"255 69 LINE",
"255 274 LINE",
"359 274 LINE",
"378 205 LINE",
"431 205 LINE",
"431 396 LINE",
"378 396 LINE"
);
},
{
closed = 1;
nodes = (
"429 743 LINE",
"429 766 LINE",
"330 800 LINE",
"174 669 LINE",
"201 634 LINE"
);
}
);
};
layerId = "320D1F10-23EA-4160-876F-9C954522C215";
paths = (
{
closed = 1;
nodes = (
"361 330 LINE",
"255 330 LINE",
"255 546 LINE",
"420 546 LINE",
"442 468 LINE",
"498 468 LINE",
"498 614 LINE",
"35 614 LINE",
"35 569 LINE",
"120 546 LINE",
"120 69 LINE",
"36 45 LINE",
"36 0 LINE",
"518 0 LINE",
"518 162 LINE",
"462 162 LINE",
"436 69 LINE",
"255 69 LINE",
"255 274 LINE",
"359 274 LINE",
"378 205 LINE",
"431 205 LINE",
"431 396 LINE",
"378 396 LINE"
);
},
{
closed = 1;
nodes = (
"429 743 LINE",
"429 766 LINE",
"330 800 LINE",
"174 669 LINE",
"201 634 LINE"
);
}
);
width = 545;
}
);
rightKerningGroup = E;
unicode = 00C9;
},
{
color = 11;
glyphname = Ecaron;
lastChange = "2015-02-19 03:26:04 +0000";
layers = (
{
background = {
paths = (
{
closed = 1;
nodes = (
"362 323 LINE",
"217 323 LINE",
"217 559 LINE",
"413 559 LINE",
"434 479 LINE",
"473 479 LINE",
"473 611 LINE",
"39 611 LINE",
"39 578 LINE",
"134 558 LINE",
"134 53 LINE",
"39 33 LINE",
"39 0 LINE",
"498 0 LINE",
"498 147 LINE",
"459 147 LINE",
"433 56 LINE",
"217 56 LINE",
"217 277 LINE",
"359 277 LINE",
"383 208 LINE",
"419 208 LINE",
"419 389 LINE",
"383 389 LINE"
);
},
{
closed = 1;
nodes = (
"155 782 LINE",
"257 651 LINE",
"317 651 LINE",
"417 782 LINE",
"399 800 LINE",
"288 718 LINE",
"172 800 LINE"
);
}
);
};
layerId = "C2E97133-8774-4C1F-A96F-338CBADF7D3D";
paths = (
{
closed = 1;
nodes = (
"362 323 LINE",
"217 323 LINE",
"217 559 LINE",
"413 559 LINE",
"434 479 LINE",
"473 479 LINE",
"473 611 LINE",
"39 611 LINE",
"39 578 LINE",
"134 558 LINE",
"134 53 LINE",
"39 33 LINE",
"39 0 LINE",
"498 0 LINE",
"498 147 LINE",
"459 147 LINE",
"433 56 LINE",
"217 56 LINE",
"217 277 LINE",
"359 277 LINE",
"383 208 LINE",
"419 208 LINE",
"419 389 LINE",
"383 389 LINE"
);
},
{
closed = 1;
nodes = (
"155 782 LINE",
"257 651 LINE",
"317 651 LINE",
"417 782 LINE",
"399 800 LINE",
"288 718 LINE",
"172 800 LINE"
);
}
);
width = 544;
},
{
background = {
paths = (
{
closed = 1;
nodes = (
"361 330 LINE",
"255 330 LINE",
"255 546 LINE",
"420 546 LINE",
"442 468 LINE",
"498 468 LINE",
"498 614 LINE",
"35 614 LINE",
"35 569 LINE",
"120 546 LINE",
"120 69 LINE",
"36 45 LINE",
"36 0 LINE",
"518 0 LINE",
"518 162 LINE",
"462 162 LINE",
"436 69 LINE",
"255 69 LINE",
"255 274 LINE",
"359 274 LINE",
"378 205 LINE",
"431 205 LINE",
"431 396 LINE",
"378 396 LINE"
);
},
{
closed = 1;
nodes = (
"429 800 LINE",
"300 723 LINE",
"174 800 LINE",
"148 775 LINE",
"258 641 LINE",
"343 641 LINE",
"452 775 LINE"
);
}
);
};
layerId = "320D1F10-23EA-4160-876F-9C954522C215";
paths = (
{
closed = 1;
nodes = (
"361 330 LINE",
"255 330 LINE",
"255 546 LINE",
"420 546 LINE",
"442 468 LINE",
"498 468 LINE",
"498 614 LINE",
"35 614 LINE",
"35 569 LINE",
"120 546 LINE",
"120 69 LINE",
"36 45 LINE",
"36 0 LINE",
"518 0 LINE",
"518 162 LINE",
"462 162 LINE",
"436 69 LINE",
"255 69 LINE",
"255 274 LINE",
"359 274 LINE",
"378 205 LINE",
"431 205 LINE",
"431 396 LINE",
"378 396 LINE"
);
},
{
closed = 1;
nodes = (
"429 800 LINE",
"300 723 LINE",
"174 800 LINE",
"148 775 LINE",
"258 641 LINE",
"343 641 LINE",
"452 775 LINE"
);
}
);
width = 545;
}
);
rightKerningGroup = E;
unicode = 011A;
},
{
color = 11;
glyphname = Ecircumflex;
lastChange = "2015-02-19 03:26:04 +0000";
layers = (
{
background = {
paths = (
{
closed = 1;
nodes = (
"362 323 LINE",
"217 323 LINE",
"217 559 LINE",
"413 559 LINE",
"434 479 LINE",
"473 479 LINE",
"473 611 LINE",
"39 611 LINE",
"39 578 LINE",
"134 558 LINE",
"134 53 LINE",
"39 33 LINE",
"39 0 LINE",
"498 0 LINE",
"498 147 LINE",
"459 147 LINE",
"433 56 LINE",
"217 56 LINE",
"217 277 LINE",
"359 277 LINE",
"383 208 LINE",
"419 208 LINE",
"419 389 LINE",
"383 389 LINE"
);
},
{
closed = 1;
nodes = (
"411 669 LINE",
"309 800 LINE",
"249 800 LINE",
"149 669 LINE",
"166 651 LINE",
"277 733 LINE",
"393 651 LINE"
);
}
);
};
layerId = "C2E97133-8774-4C1F-A96F-338CBADF7D3D";
paths = (
{
closed = 1;
nodes = (
"362 323 LINE",
"217 323 LINE",
"217 559 LINE",
"413 559 LINE",
"434 479 LINE",
"473 479 LINE",
"473 611 LINE",
"39 611 LINE",
"39 578 LINE",
"134 558 LINE",
"134 53 LINE",
"39 33 LINE",
"39 0 LINE",
"498 0 LINE",
"498 147 LINE",
"459 147 LINE",
"433 56 LINE",
"217 56 LINE",
"217 277 LINE",
"359 277 LINE",
"383 208 LINE",
"419 208 LINE",
"419 389 LINE",
"383 389 LINE"
);
},
{
closed = 1;
nodes = (
"411 669 LINE",
"309 800 LINE",
"249 800 LINE",
"149 669 LINE",
"166 651 LINE",
"277 733 LINE",
"393 651 LINE"
);
}
);
width = 544;
},
{
background = {
paths = (
{
closed = 1;
nodes = (
"361 330 LINE",
"255 330 LINE",
"255 546 LINE",
"420 546 LINE",
"442 468 LINE",
"498 468 LINE",
"498 614 LINE",
"35 614 LINE",
"35 569 LINE",
"120 546 LINE",
"120 69 LINE",
"36 45 LINE",
"36 0 LINE",
"518 0 LINE",
"518 162 LINE",
"462 162 LINE",
"436 69 LINE",
"255 69 LINE",
"255 274 LINE",
"359 274 LINE",
"378 205 LINE",
"431 205 LINE",
"431 396 LINE",
"378 396 LINE"
);
},
{
closed = 1;
nodes = (
"437 665 LINE",
"328 800 LINE",
"243 800 LINE",
"133 665 LINE",
"159 640 LINE",
"285 717 LINE",
"414 640 LINE"
);
}
);
};
layerId = "320D1F10-23EA-4160-876F-9C954522C215";
paths = (
{
closed = 1;
nodes = (
"361 330 LINE",
"255 330 LINE",
"255 546 LINE",
"420 546 LINE",
"442 468 LINE",
"498 468 LINE",
"498 614 LINE",
"35 614 LINE",
"35 569 LINE",
"120 546 LINE",
"120 69 LINE",
"36 45 LINE",
"36 0 LINE",
"518 0 LINE",
"518 162 LINE",
"462 162 LINE",
"436 69 LINE",
"255 69 LINE",
"255 274 LINE",
"359 274 LINE",
"378 205 LINE",
"431 205 LINE",
"431 396 LINE",
"378 396 LINE"
);
},
{
closed = 1;
nodes = (
"437 665 LINE",
"328 800 LINE",
"243 800 LINE",
"133 665 LINE",
"159 640 LINE",
"285 717 LINE",
"414 640 LINE"
);
}
);
width = 545;
}
);
rightKerningGroup = E;
unicode = 00CA;
},
{
color = 11;
glyphname = Edieresis;
lastChange = "2015-02-19 03:26:04 +0000";
layers = (
{
background = {
paths = (
{
closed = 1;
nodes = (
"362 323 LINE",
"217 323 LINE",
"217 559 LINE",
"413 559 LINE",
"434 479 LINE",
"473 479 LINE",
"473 611 LINE",
"39 611 LINE",
"39 578 LINE",
"134 558 LINE",
"134 53 LINE",
"39 33 LINE",
"39 0 LINE",
"498 0 LINE",
"498 147 LINE",
"459 147 LINE",
"433 56 LINE",
"217 56 LINE",
"217 277 LINE",
"359 277 LINE",
"383 208 LINE",
"419 208 LINE",
"419 389 LINE",
"383 389 LINE"
);
},
{
closed = 1;
nodes = (
"244 754 OFFCURVE",
"217 780 OFFCURVE",
"187 780 CURVE SMOOTH",
"157 780 OFFCURVE",
"130 754 OFFCURVE",
"130 722 CURVE SMOOTH",
"130 692 OFFCURVE",
"157 667 OFFCURVE",
"187 667 CURVE SMOOTH",
"217 667 OFFCURVE",
"244 692 OFFCURVE",
"244 722 CURVE SMOOTH"
);
},
{
closed = 1;
nodes = (
"439 754 OFFCURVE",
"411 780 OFFCURVE",
"381 780 CURVE SMOOTH",
"351 780 OFFCURVE",
"324 754 OFFCURVE",
"324 722 CURVE SMOOTH",
"324 692 OFFCURVE",
"351 667 OFFCURVE",
"381 667 CURVE SMOOTH",
"411 667 OFFCURVE",
"439 692 OFFCURVE",
"439 722 CURVE SMOOTH"
);
}
);
};
layerId = "C2E97133-8774-4C1F-A96F-338CBADF7D3D";
paths = (
{
closed = 1;
nodes = (
"362 323 LINE",
"217 323 LINE",
"217 559 LINE",
"413 559 LINE",
"434 479 LINE",
"473 479 LINE",
"473 611 LINE",
"39 611 LINE",
"39 578 LINE",
"134 558 LINE",
"134 53 LINE",
"39 33 LINE",
"39 0 LINE",
"498 0 LINE",
"498 147 LINE",
"459 147 LINE",
"433 56 LINE",
"217 56 LINE",
"217 277 LINE",
"359 277 LINE",
"383 208 LINE",
"419 208 LINE",
"419 389 LINE",
"383 389 LINE"
);
},
{
closed = 1;
nodes = (
"244 754 OFFCURVE",
"217 780 OFFCURVE",
"187 780 CURVE SMOOTH",
"157 780 OFFCURVE",
"130 754 OFFCURVE",
"130 722 CURVE SMOOTH",
"130 692 OFFCURVE",
"157 667 OFFCURVE",
"187 667 CURVE SMOOTH",
"217 667 OFFCURVE",
"244 692 OFFCURVE",
"244 722 CURVE SMOOTH"
);
},
{
closed = 1;
nodes = (
"439 754 OFFCURVE",
"411 780 OFFCURVE",
"381 780 CURVE SMOOTH",
"351 780 OFFCURVE",
"324 754 OFFCURVE",
"324 722 CURVE SMOOTH",
"324 692 OFFCURVE",
"351 667 OFFCURVE",
"381 667 CURVE SMOOTH",
"411 667 OFFCURVE",
"439 692 OFFCURVE",
"439 722 CURVE SMOOTH"
);
}
);
width = 544;
},
{
background = {
paths = (
{
closed = 1;
nodes = (
"361 330 LINE",
"255 330 LINE",
"255 546 LINE",
"420 546 LINE",
"442 468 LINE",
"498 468 LINE",
"498 614 LINE",
"35 614 LINE",
"35 569 LINE",
"120 546 LINE",
"120 69 LINE",
"36 45 LINE",
"36 0 LINE",
"518 0 LINE",
"518 162 LINE",
"462 162 LINE",
"436 69 LINE",
"255 69 LINE",
"255 274 LINE",
"359 274 LINE",
"378 205 LINE",
"431 205 LINE",
"431 396 LINE",
"378 396 LINE"
);
},
{
closed = 1;
nodes = (
"236 760 OFFCURVE",
"202 792 OFFCURVE",
"162 792 CURVE SMOOTH",
"121 792 OFFCURVE",
"84 760 OFFCURVE",
"84 719 CURVE SMOOTH",
"84 677 OFFCURVE",
"121 647 OFFCURVE",
"162 647 CURVE SMOOTH",
"202 647 OFFCURVE",
"236 677 OFFCURVE",
"236 719 CURVE SMOOTH"
);
},
{
closed = 1;
nodes = (
"467 760 OFFCURVE",
"432 792 OFFCURVE",
"394 792 CURVE SMOOTH",
"352 792 OFFCURVE",
"317 760 OFFCURVE",
"317 719 CURVE SMOOTH",
"317 677 OFFCURVE",
"352 647 OFFCURVE",
"394 647 CURVE SMOOTH",
"432 647 OFFCURVE",
"467 677 OFFCURVE",
"467 719 CURVE SMOOTH"
);
}
);
};
layerId = "320D1F10-23EA-4160-876F-9C954522C215";
paths = (
{
closed = 1;
nodes = (
"361 330 LINE",
"255 330 LINE",
"255 546 LINE",
"420 546 LINE",
"442 468 LINE",
"498 468 LINE",
"498 614 LINE",
"35 614 LINE",
"35 569 LINE",
"120 546 LINE",
"120 69 LINE",
"36 45 LINE",
"36 0 LINE",
"518 0 LINE",
"518 162 LINE",
"462 162 LINE",
"436 69 LINE",
"255 69 LINE",
"255 274 LINE",
"359 274 LINE",
"378 205 LINE",
"431 205 LINE",
"431 396 LINE",
"378 396 LINE"
);
},
{
closed = 1;
nodes = (
"236 760 OFFCURVE",
"202 792 OFFCURVE",
"162 792 CURVE SMOOTH",
"121 792 OFFCURVE",
"84 760 OFFCURVE",
"84 719 CURVE SMOOTH",
"84 677 OFFCURVE",
"121 647 OFFCURVE",
"162 647 CURVE SMOOTH",
"202 647 OFFCURVE",
"236 677 OFFCURVE",
"236 719 CURVE SMOOTH"
);
},
{
closed = 1;
nodes = (
"467 760 OFFCURVE",
"432 792 OFFCURVE",
"394 792 CURVE SMOOTH",
"352 792 OFFCURVE",
"317 760 OFFCURVE",
"317 719 CURVE SMOOTH",
"317 677 OFFCURVE",
"352 647 OFFCURVE",
"394 647 CURVE SMOOTH",
"432 647 OFFCURVE",
"467 677 OFFCURVE",
"467 719 CURVE SMOOTH"
);
}
);
width = 545;
}
);
rightKerningGroup = E;
unicode = 00CB;
},
{
color = 11;
glyphname = Edotaccent;
lastChange = "2015-02-19 03:26:04 +0000";
layers = (
{
background = {
paths = (
{
closed = 1;
nodes = (
"362 323 LINE",
"217 323 LINE",
"217 559 LINE",
"413 559 LINE",
"434 479 LINE",
"473 479 LINE",
"473 611 LINE",
"39 611 LINE",
"39 578 LINE",
"134 558 LINE",
"134 53 LINE",
"39 33 LINE",
"39 0 LINE",
"498 0 LINE",
"498 147 LINE",
"459 147 LINE",
"433 56 LINE",
"217 56 LINE",
"217 277 LINE",
"359 277 LINE",
"383 208 LINE",
"419 208 LINE",
"419 389 LINE",
"383 389 LINE"
);
},
{
closed = 1;
nodes = (
"356 758 OFFCURVE",
"327 785 OFFCURVE",
"296 785 CURVE SMOOTH",
"264 785 OFFCURVE",
"236 758 OFFCURVE",
"236 725 CURVE SMOOTH",
"236 692 OFFCURVE",
"264 668 OFFCURVE",
"296 668 CURVE SMOOTH",
"327 668 OFFCURVE",
"356 692 OFFCURVE",
"356 725 CURVE SMOOTH"
);
}
);
};
layerId = "C2E97133-8774-4C1F-A96F-338CBADF7D3D";
paths = (
{
closed = 1;
nodes = (
"362 323 LINE",
"217 323 LINE",
"217 559 LINE",
"413 559 LINE",
"434 479 LINE",
"473 479 LINE",
"473 611 LINE",
"39 611 LINE",
"39 578 LINE",
"134 558 LINE",
"134 53 LINE",
"39 33 LINE",
"39 0 LINE",
"498 0 LINE",
"498 147 LINE",
"459 147 LINE",
"433 56 LINE",
"217 56 LINE",
"217 277 LINE",
"359 277 LINE",
"383 208 LINE",
"419 208 LINE",
"419 389 LINE",
"383 389 LINE"
);
},
{
closed = 1;
nodes = (
"356 758 OFFCURVE",
"327 785 OFFCURVE",
"296 785 CURVE SMOOTH",
"264 785 OFFCURVE",
"236 758 OFFCURVE",
"236 725 CURVE SMOOTH",
"236 692 OFFCURVE",
"264 668 OFFCURVE",
"296 668 CURVE SMOOTH",
"327 668 OFFCURVE",
"356 692 OFFCURVE",
"356 725 CURVE SMOOTH"
);
}
);
width = 544;
},
{
background = {
paths = (
{
closed = 1;
nodes = (
"361 330 LINE",
"255 330 LINE",
"255 546 LINE",
"420 546 LINE",
"442 468 LINE",
"498 468 LINE",
"498 614 LINE",
"35 614 LINE",
"35 569 LINE",
"120 546 LINE",
"120 69 LINE",
"36 45 LINE",
"36 0 LINE",
"518 0 LINE",
"518 162 LINE",
"462 162 LINE",
"436 69 LINE",
"255 69 LINE",
"255 274 LINE",
"359 274 LINE",
"378 205 LINE",
"431 205 LINE",
"431 396 LINE",
"378 396 LINE"
);
},
{
closed = 1;
nodes = (
"376 760 OFFCURVE",
"339 799 OFFCURVE",
"294 799 CURVE SMOOTH",
"249 799 OFFCURVE",
"208 760 OFFCURVE",
"208 715 CURVE SMOOTH",
"208 670 OFFCURVE",
"249 635 OFFCURVE",
"294 635 CURVE SMOOTH",
"339 635 OFFCURVE",
"376 670 OFFCURVE",
"376 715 CURVE SMOOTH"
);
}
);
};
layerId = "320D1F10-23EA-4160-876F-9C954522C215";
paths = (
{
closed = 1;
nodes = (
"361 330 LINE",
"255 330 LINE",
"255 546 LINE",
"420 546 LINE",
"442 468 LINE",
"498 468 LINE",
"498 614 LINE",
"35 614 LINE",
"35 569 LINE",
"120 546 LINE",
"120 69 LINE",
"36 45 LINE",
"36 0 LINE",
"518 0 LINE",
"518 162 LINE",
"462 162 LINE",
"436 69 LINE",
"255 69 LINE",
"255 274 LINE",
"359 274 LINE",
"378 205 LINE",
"431 205 LINE",
"431 396 LINE",
"378 396 LINE"
);
},
{
closed = 1;
nodes = (
"376 760 OFFCURVE",
"339 799 OFFCURVE",
"294 799 CURVE SMOOTH",
"249 799 OFFCURVE",
"208 760 OFFCURVE",
"208 715 CURVE SMOOTH",
"208 670 OFFCURVE",
"249 635 OFFCURVE",
"294 635 CURVE SMOOTH",
"339 635 OFFCURVE",
"376 670 OFFCURVE",
"376 715 CURVE SMOOTH"
);
}
);
width = 545;
}
);
rightKerningGroup = E;
unicode = 0116;
},
{
color = 11;
glyphname = Egrave;
lastChange = "2015-02-19 03:26:04 +0000";
layers = (
{
background = {
paths = (
{
closed = 1;
nodes = (
"401 669 LINE",
"248 799 LINE",
"171 771 LINE",
"171 753 LINE",
"387 650 LINE"
);
},
{
closed = 1;
nodes = (
"362 323 LINE",
"217 323 LINE",
"217 559 LINE",
"413 559 LINE",
"434 479 LINE",
"473 479 LINE",
"473 611 LINE",
"39 611 LINE",
"39 578 LINE",
"134 558 LINE",
"134 53 LINE",
"39 33 LINE",
"39 0 LINE",
"498 0 LINE",
"498 147 LINE",
"459 147 LINE",
"433 56 LINE",
"217 56 LINE",
"217 277 LINE",
"359 277 LINE",
"383 208 LINE",
"419 208 LINE",
"419 389 LINE",
"383 389 LINE"
);
}
);
};
layerId = "C2E97133-8774-4C1F-A96F-338CBADF7D3D";
paths = (
{
closed = 1;
nodes = (
"401 669 LINE",
"248 799 LINE",
"171 771 LINE",
"171 753 LINE",
"387 650 LINE"
);
},
{
closed = 1;
nodes = (
"362 323 LINE",
"217 323 LINE",
"217 559 LINE",
"413 559 LINE",
"434 479 LINE",
"473 479 LINE",
"473 611 LINE",
"39 611 LINE",
"39 578 LINE",
"134 558 LINE",
"134 53 LINE",
"39 33 LINE",
"39 0 LINE",
"498 0 LINE",
"498 147 LINE",
"459 147 LINE",
"433 56 LINE",
"217 56 LINE",
"217 277 LINE",
"359 277 LINE",
"383 208 LINE",
"419 208 LINE",
"419 389 LINE",
"383 389 LINE"
);
}
);
width = 544;
},
{
background = {
paths = (
{
closed = 1;
nodes = (
"361 330 LINE",
"255 330 LINE",
"255 546 LINE",
"420 546 LINE",
"442 468 LINE",
"498 468 LINE",
"498 614 LINE",
"35 614 LINE",
"35 569 LINE",
"120 546 LINE",
"120 69 LINE",
"36 45 LINE",
"36 0 LINE",
"518 0 LINE",
"518 162 LINE",
"462 162 LINE",
"436 69 LINE",
"255 69 LINE",
"255 274 LINE",
"359 274 LINE",
"378 205 LINE",
"431 205 LINE",
"431 396 LINE",
"378 396 LINE"
);
},
{
closed = 1;
nodes = (
"396 669 LINE",
"242 800 LINE",
"145 766 LINE",
"141 743 LINE",
"373 634 LINE"
);
}
);
};
layerId = "320D1F10-23EA-4160-876F-9C954522C215";
paths = (
{
closed = 1;
nodes = (
"361 330 LINE",
"255 330 LINE",
"255 546 LINE",
"420 546 LINE",
"442 468 LINE",
"498 468 LINE",
"498 614 LINE",
"35 614 LINE",
"35 569 LINE",
"120 546 LINE",
"120 69 LINE",
"36 45 LINE",
"36 0 LINE",
"518 0 LINE",
"518 162 LINE",
"462 162 LINE",
"436 69 LINE",
"255 69 LINE",
"255 274 LINE",
"359 274 LINE",
"378 205 LINE",
"431 205 LINE",
"431 396 LINE",
"378 396 LINE"
);
},
{
closed = 1;
nodes = (
"396 669 LINE",
"242 800 LINE",
"145 766 LINE",
"141 743 LINE",
"373 634 LINE"
);
}
);
width = 545;
}
);
rightKerningGroup = E;
unicode = 00C8;
},
{
color = 11;
glyphname = Emacron;
lastChange = "2015-02-19 03:26:04 +0000";
layers = (
{
background = {
paths = (
{
closed = 1;
nodes = (
"362 323 LINE",
"217 323 LINE",
"217 559 LINE",
"413 559 LINE",
"434 479 LINE",
"473 479 LINE",
"473 611 LINE",
"39 611 LINE",
"39 578 LINE",
"134 558 LINE",
"134 53 LINE",
"39 33 LINE",
"39 0 LINE",
"498 0 LINE",
"498 147 LINE",
"459 147 LINE",
"433 56 LINE",
"217 56 LINE",
"217 277 LINE",
"359 277 LINE",
"383 208 LINE",
"419 208 LINE",
"419 389 LINE",
"383 389 LINE"
);
},
{
closed = 1;
nodes = (
"172 697 LINE",
"389 697 LINE",
"389 749 LINE",
"172 749 LINE"
);
}
);
};
layerId = "C2E97133-8774-4C1F-A96F-338CBADF7D3D";
paths = (
{
closed = 1;
nodes = (
"362 323 LINE",
"217 323 LINE",
"217 559 LINE",
"413 559 LINE",
"434 479 LINE",
"473 479 LINE",
"473 611 LINE",
"39 611 LINE",
"39 578 LINE",
"134 558 LINE",
"134 53 LINE",
"39 33 LINE",
"39 0 LINE",
"498 0 LINE",
"498 147 LINE",
"459 147 LINE",
"433 56 LINE",
"217 56 LINE",
"217 277 LINE",
"359 277 LINE",
"383 208 LINE",
"419 208 LINE",
"419 389 LINE",
"383 389 LINE"
);
},
{
closed = 1;
nodes = (
"172 697 LINE",
"389 697 LINE",
"389 749 LINE",
"172 749 LINE"
);
}
);
width = 544;
},
{
background = {
paths = (
{
closed = 1;
nodes = (
"361 330 LINE",
"255 330 LINE",
"255 546 LINE",
"420 546 LINE",
"442 468 LINE",
"498 468 LINE",
"498 614 LINE",
"35 614 LINE",
"35 569 LINE",
"120 546 LINE",
"120 69 LINE",
"36 45 LINE",
"36 0 LINE",
"518 0 LINE",
"518 162 LINE",
"462 162 LINE",
"436 69 LINE",
"255 69 LINE",
"255 274 LINE",
"359 274 LINE",
"378 205 LINE",
"431 205 LINE",
"431 396 LINE",
"378 396 LINE"
);
},
{
closed = 1;
nodes = (
"173 679 LINE",
"414 679 LINE",
"414 758 LINE",
"173 758 LINE"
);
}
);
};
layerId = "320D1F10-23EA-4160-876F-9C954522C215";
paths = (
{
closed = 1;
nodes = (
"361 330 LINE",
"255 330 LINE",
"255 546 LINE",
"420 546 LINE",
"442 468 LINE",
"498 468 LINE",
"498 614 LINE",
"35 614 LINE",
"35 569 LINE",
"120 546 LINE",
"120 69 LINE",
"36 45 LINE",
"36 0 LINE",
"518 0 LINE",
"518 162 LINE",
"462 162 LINE",
"436 69 LINE",
"255 69 LINE",
"255 274 LINE",
"359 274 LINE",
"378 205 LINE",
"431 205 LINE",
"431 396 LINE",
"378 396 LINE"
);
},
{
closed = 1;
nodes = (
"173 679 LINE",
"414 679 LINE",
"414 758 LINE",
"173 758 LINE"
);
}
);
width = 545;
}
);
rightKerningGroup = E;
unicode = 0112;
},
{
color = 11;
glyphname = Eogonek;
lastChange = "2015-02-19 03:26:04 +0000";
layers = (
{
background = {
paths = (
{
closed = 1;
nodes = (
"362 323 LINE",
"217 323 LINE",
"217 559 LINE",
"413 559 LINE",
"434 479 LINE",
"473 479 LINE",
"473 611 LINE",
"39 611 LINE",
"39 578 LINE",
"134 558 LINE",
"134 53 LINE",
"39 33 LINE",
"39 0 LINE",
"498 0 LINE",
"498 147 LINE",
"459 147 LINE",
"433 56 LINE",
"217 56 LINE",
"217 277 LINE",
"359 277 LINE",
"383 208 LINE",
"419 208 LINE",
"419 389 LINE",
"383 389 LINE"
);
},
{
closed = 1;
nodes = (
"421 0 LINE",
"354 -53 OFFCURVE",
"327 -109 OFFCURVE",
"327 -151 CURVE SMOOTH",
"327 -194 OFFCURVE",
"354 -236 OFFCURVE",
"421 -236 CURVE SMOOTH",
"485 -236 OFFCURVE",
"515 -186 OFFCURVE",
"515 -186 CURVE",
"499 -170 LINE",
"483 -186 OFFCURVE",
"465 -192 OFFCURVE",
"449 -192 CURVE SMOOTH",
"415 -192 OFFCURVE",
"394 -171 OFFCURVE",
"394 -133 CURVE SMOOTH",
"394 -82 OFFCURVE",
"425 -31 OFFCURVE",
"455 0 CURVE"
);
}
);
};
layerId = "C2E97133-8774-4C1F-A96F-338CBADF7D3D";
paths = (
{
closed = 1;
nodes = (
"362 323 LINE",
"217 323 LINE",
"217 559 LINE",
"413 559 LINE",
"434 479 LINE",
"473 479 LINE",
"473 611 LINE",
"39 611 LINE",
"39 578 LINE",
"134 558 LINE",
"134 53 LINE",
"39 33 LINE",
"39 0 LINE",
"498 0 LINE",
"498 147 LINE",
"459 147 LINE",
"433 56 LINE",
"217 56 LINE",
"217 277 LINE",
"359 277 LINE",
"383 208 LINE",
"419 208 LINE",
"419 389 LINE",
"383 389 LINE"
);
},
{
closed = 1;
nodes = (
"421 0 LINE",
"354 -53 OFFCURVE",
"327 -109 OFFCURVE",
"327 -151 CURVE SMOOTH",
"327 -194 OFFCURVE",
"354 -236 OFFCURVE",
"421 -236 CURVE SMOOTH",
"485 -236 OFFCURVE",
"515 -186 OFFCURVE",
"515 -186 CURVE",
"499 -170 LINE",
"483 -186 OFFCURVE",
"465 -192 OFFCURVE",
"449 -192 CURVE SMOOTH",
"415 -192 OFFCURVE",
"394 -171 OFFCURVE",
"394 -133 CURVE SMOOTH",
"394 -82 OFFCURVE",
"425 -31 OFFCURVE",
"455 0 CURVE"
);
}
);
width = 544;
},
{
background = {
paths = (
{
closed = 1;
nodes = (
"361 330 LINE",
"255 330 LINE",
"255 546 LINE",
"420 546 LINE",
"442 468 LINE",
"498 468 LINE",
"498 614 LINE",
"35 614 LINE",
"35 569 LINE",
"120 546 LINE",
"120 69 LINE",
"36 45 LINE",
"36 0 LINE",
"422 0 LINE",
"360 -51 OFFCURVE",
"332 -108 OFFCURVE",
"332 -147 CURVE SMOOTH",
"332 -189 OFFCURVE",
"355 -233 OFFCURVE",
"434 -233 CURVE SMOOTH",
"510 -233 OFFCURVE",
"544 -171 OFFCURVE",
"544 -171 CURVE",
"521 -149 LINE",
"501 -163 OFFCURVE",
"482 -171 OFFCURVE",
"460 -171 CURVE SMOOTH",
"428 -171 OFFCURVE",
"417 -151 OFFCURVE",
"417 -126 CURVE SMOOTH",
"417 -61 OFFCURVE",
"462 -5 OFFCURVE",
"467 0 CURVE",
"518 0 LINE",
"518 162 LINE",
"462 162 LINE",
"436 69 LINE",
"255 69 LINE",
"255 274 LINE",
"359 274 LINE",
"378 205 LINE",
"431 205 LINE",
"431 396 LINE",
"378 396 LINE"
);
}
);
};
layerId = "320D1F10-23EA-4160-876F-9C954522C215";
paths = (
{
closed = 1;
nodes = (
"361 330 LINE",
"255 330 LINE",
"255 546 LINE",
"420 546 LINE",
"442 468 LINE",
"498 468 LINE",
"498 614 LINE",
"35 614 LINE",
"35 569 LINE",
"120 546 LINE",
"120 69 LINE",
"36 45 LINE",
"36 0 LINE",
"422 0 LINE",
"360 -51 OFFCURVE",
"332 -108 OFFCURVE",
"332 -147 CURVE SMOOTH",
"332 -189 OFFCURVE",
"355 -233 OFFCURVE",
"434 -233 CURVE SMOOTH",
"510 -233 OFFCURVE",
"544 -171 OFFCURVE",
"544 -171 CURVE",
"521 -149 LINE",
"501 -163 OFFCURVE",
"482 -171 OFFCURVE",
"460 -171 CURVE SMOOTH",
"428 -171 OFFCURVE",
"417 -151 OFFCURVE",
"417 -126 CURVE SMOOTH",
"417 -61 OFFCURVE",
"462 -5 OFFCURVE",
"467 0 CURVE",
"518 0 LINE",
"518 162 LINE",
"462 162 LINE",
"436 69 LINE",
"255 69 LINE",
"255 274 LINE",
"359 274 LINE",
"378 205 LINE",
"431 205 LINE",
"431 396 LINE",
"378 396 LINE"
);
}
);
width = 545;
}
);
rightKerningGroup = E;
unicode = 0118;
},
{
color = 11;
glyphname = Etilde;
lastChange = "2015-02-19 03:26:04 +0000";
layers = (
{
background = {
paths = (
{
closed = 1;
nodes = (
"362 323 LINE",
"217 323 LINE",
"217 559 LINE",
"413 559 LINE",
"434 479 LINE",
"473 479 LINE",
"473 611 LINE",
"39 611 LINE",
"39 578 LINE",
"134 558 LINE",
"134 53 LINE",
"39 33 LINE",
"39 0 LINE",
"498 0 LINE",
"498 147 LINE",
"459 147 LINE",
"433 56 LINE",
"217 56 LINE",
"217 277 LINE",
"359 277 LINE",
"383 208 LINE",
"419 208 LINE",
"419 389 LINE",
"383 389 LINE"
);
},
{
closed = 1;
nodes = (
"403 804 LINE",
"403 804 OFFCURVE",
"383 769 OFFCURVE",
"360 769 CURVE SMOOTH",
"325 769 OFFCURVE",
"252 809 OFFCURVE",
"218 809 CURVE SMOOTH",
"185 809 OFFCURVE",
"165 767 OFFCURVE",
"144 715 CURVE",
"174 703 LINE",
"174 703 OFFCURVE",
"197 739 OFFCURVE",
"219 739 CURVE SMOOTH",
"252 739 OFFCURVE",
"327 699 OFFCURVE",
"361 699 CURVE SMOOTH",
"393 699 OFFCURVE",
"413 741 OFFCURVE",
"434 792 CURVE"
);
}
);
};
layerId = "C2E97133-8774-4C1F-A96F-338CBADF7D3D";
paths = (
{
closed = 1;
nodes = (
"362 323 LINE",
"217 323 LINE",
"217 559 LINE",
"413 559 LINE",
"434 479 LINE",
"473 479 LINE",
"473 611 LINE",
"39 611 LINE",
"39 578 LINE",
"134 558 LINE",
"134 53 LINE",
"39 33 LINE",
"39 0 LINE",
"498 0 LINE",
"498 147 LINE",
"459 147 LINE",
"433 56 LINE",
"217 56 LINE",
"217 277 LINE",
"359 277 LINE",
"383 208 LINE",
"419 208 LINE",
"419 389 LINE",
"383 389 LINE"
);
},
{
closed = 1;
nodes = (
"403 804 LINE",
"403 804 OFFCURVE",
"383 769 OFFCURVE",
"360 769 CURVE SMOOTH",
"325 769 OFFCURVE",
"252 809 OFFCURVE",
"218 809 CURVE SMOOTH",
"185 809 OFFCURVE",
"165 767 OFFCURVE",
"144 715 CURVE",
"174 703 LINE",
"174 703 OFFCURVE",
"197 739 OFFCURVE",
"219 739 CURVE SMOOTH",
"252 739 OFFCURVE",
"327 699 OFFCURVE",
"361 699 CURVE SMOOTH",
"393 699 OFFCURVE",
"413 741 OFFCURVE",
"434 792 CURVE"
);
}
);
width = 544;
},
{
background = {
paths = (
{
closed = 1;
nodes = (
"361 330 LINE",
"255 330 LINE",
"255 546 LINE",
"420 546 LINE",
"442 468 LINE",
"498 468 LINE",
"498 614 LINE",
"35 614 LINE",
"35 569 LINE",
"120 546 LINE",
"120 69 LINE",
"36 45 LINE",
"36 0 LINE",
"518 0 LINE",
"518 162 LINE",
"462 162 LINE",
"436 69 LINE",
"255 69 LINE",
"255 274 LINE",
"359 274 LINE",
"378 205 LINE",
"431 205 LINE",
"431 396 LINE",
"378 396 LINE"
);
},
{
closed = 1;
nodes = (
"410 784 LINE",
"410 784 OFFCURVE",
"393 753 OFFCURVE",
"368 753 CURVE SMOOTH",
"329 753 OFFCURVE",
"241 790 OFFCURVE",
"192 790 CURVE SMOOTH",
"159 790 OFFCURVE",
"125 744 OFFCURVE",
"105 686 CURVE",
"152 667 LINE",
"152 667 OFFCURVE",
"168 698 OFFCURVE",
"192 698 CURVE SMOOTH",
"230 698 OFFCURVE",
"319 661 OFFCURVE",
"368 661 CURVE SMOOTH",
"402 661 OFFCURVE",
"430 707 OFFCURVE",
"454 765 CURVE"
);
}
);
};
layerId = "320D1F10-23EA-4160-876F-9C954522C215";
paths = (
{
closed = 1;
nodes = (
"361 330 LINE",
"255 330 LINE",
"255 546 LINE",
"420 546 LINE",
"442 468 LINE",
"498 468 LINE",
"498 614 LINE",
"35 614 LINE",
"35 569 LINE",
"120 546 LINE",
"120 69 LINE",
"36 45 LINE",
"36 0 LINE",
"518 0 LINE",
"518 162 LINE",
"462 162 LINE",
"436 69 LINE",
"255 69 LINE",
"255 274 LINE",
"359 274 LINE",
"378 205 LINE",
"431 205 LINE",
"431 396 LINE",
"378 396 LINE"
);
},
{
closed = 1;
nodes = (
"410 784 LINE",
"410 784 OFFCURVE",
"393 753 OFFCURVE",
"368 753 CURVE SMOOTH",
"329 753 OFFCURVE",
"241 790 OFFCURVE",
"192 790 CURVE SMOOTH",
"159 790 OFFCURVE",
"125 744 OFFCURVE",
"105 686 CURVE",
"152 667 LINE",
"152 667 OFFCURVE",
"168 698 OFFCURVE",
"192 698 CURVE SMOOTH",
"230 698 OFFCURVE",
"319 661 OFFCURVE",
"368 661 CURVE SMOOTH",
"402 661 OFFCURVE",
"430 707 OFFCURVE",
"454 765 CURVE"
);
}
);
width = 545;
}
);
rightKerningGroup = E;
unicode = 1EBC;
},
{
color = 11;
glyphname = F;
lastChange = "2015-02-19 03:26:04 +0000";
layers = (
{
anchors = (
{
name = bottom;
position = "{249, 0}";
},
{
name = top;
position = "{249, 611}";
}
);
background = {
paths = (
{
closed = 1;
nodes = (
"38 611 LINE",
"38 578 LINE",
"133 558 LINE",
"133 53 LINE",
"38 33 LINE",
"38 0 LINE",
"330 0 LINE",
"330 34 LINE",
"217 54 LINE",
"217 267 LINE",
"359 267 LINE",
"383 198 LINE",
"419 198 LINE",
"419 379 LINE",
"383 379 LINE",
"362 313 LINE",
"217 313 LINE",
"217 559 LINE",
"413 559 LINE",
"434 479 LINE",
"473 479 LINE",
"473 611 LINE"
);
}
);
};
layerId = "C2E97133-8774-4C1F-A96F-338CBADF7D3D";
paths = (
{
closed = 1;
nodes = (
"38 611 LINE",
"38 578 LINE",
"133 558 LINE",
"133 53 LINE",
"38 33 LINE",
"38 0 LINE",
"330 0 LINE",
"330 34 LINE",
"217 54 LINE",
"217 267 LINE",
"359 267 LINE",
"383 198 LINE",
"419 198 LINE",
"419 379 LINE",
"383 379 LINE",
"362 313 LINE",
"217 313 LINE",
"217 559 LINE",
"413 559 LINE",
"434 479 LINE",
"473 479 LINE",
"473 611 LINE"
);
}
);
width = 498;
},
{
anchors = (
{
name = bottom;
position = "{257, 0}";
},
{
name = top;
position = "{257, 614}";
}
);
background = {
paths = (
{
closed = 1;
nodes = (
"35 614 LINE",
"35 569 LINE",
"120 546 LINE",
"120 69 LINE",
"36 45 LINE",
"36 0 LINE",
"361 0 LINE",
"361 50 LINE",
"255 75 LINE",
"255 264 LINE",
"359 264 LINE",
"378 195 LINE",
"431 195 LINE",
"431 386 LINE",
"378 386 LINE",
"361 320 LINE",
"255 320 LINE",
"255 546 LINE",
"420 546 LINE",
"442 468 LINE",
"498 468 LINE",
"498 614 LINE"
);
}
);
};
layerId = "320D1F10-23EA-4160-876F-9C954522C215";
paths = (
{
closed = 1;
nodes = (
"35 614 LINE",
"35 569 LINE",
"120 546 LINE",
"120 69 LINE",
"36 45 LINE",
"36 0 LINE",
"361 0 LINE",
"361 50 LINE",
"255 75 LINE",
"255 264 LINE",
"359 264 LINE",
"378 195 LINE",
"431 195 LINE",
"431 386 LINE",
"378 386 LINE",
"361 320 LINE",
"255 320 LINE",
"255 546 LINE",
"420 546 LINE",
"442 468 LINE",
"498 468 LINE",
"498 614 LINE"
);
}
);
width = 513;
}
);
unicode = 0046;
},
{
color = 11;
glyphname = G;
lastChange = "2015-02-19 03:26:04 +0000";
layers = (
{
anchors = (
{
name = bottom;
position = "{300, 0}";
},
{
name = top;
position = "{300, 611}";
}
);
background = {
paths = (
{
closed = 1;
nodes = (
"472 470 LINE",
"510 470 LINE",
"524 597 LINE",
"479 618 OFFCURVE",
"400 627 OFFCURVE",
"346 627 CURVE SMOOTH",
"121 627 OFFCURVE",
"41 483 OFFCURVE",
"41 309 CURVE SMOOTH",
"41 136 OFFCURVE",
"117 -11 OFFCURVE",
"339 -11 CURVE SMOOTH",
"412 -11 OFFCURVE",
"474 4 OFFCURVE",
"519 31 CURVE",
"519 234 LINE",
"590 254 LINE",
"590 288 LINE",
"347 288 LINE",
"347 254 LINE",
"436 234 LINE",
"436 56 LINE",
"408 42 OFFCURVE",
"378 37 OFFCURVE",
"343 37 CURVE SMOOTH",
"169 37 OFFCURVE",
"131 196 OFFCURVE",
"131 309 CURVE SMOOTH",
"131 422 OFFCURVE",
"167 578 OFFCURVE",
"346 578 CURVE SMOOTH",
"386 578 OFFCURVE",
"423 573 OFFCURVE",
"448 567 CURVE"
);
}
);
};
layerId = "C2E97133-8774-4C1F-A96F-338CBADF7D3D";
paths = (
{
closed = 1;
nodes = (
"472 470 LINE",
"510 470 LINE",
"524 597 LINE",
"479 618 OFFCURVE",
"400 627 OFFCURVE",
"346 627 CURVE SMOOTH",
"121 627 OFFCURVE",
"41 483 OFFCURVE",
"41 309 CURVE SMOOTH",
"41 136 OFFCURVE",
"117 -11 OFFCURVE",
"339 -11 CURVE SMOOTH",
"412 -11 OFFCURVE",
"474 4 OFFCURVE",
"519 31 CURVE",
"519 234 LINE",
"590 254 LINE",
"590 288 LINE",
"347 288 LINE",
"347 254 LINE",
"436 234 LINE",
"436 56 LINE",
"408 42 OFFCURVE",
"378 37 OFFCURVE",
"343 37 CURVE SMOOTH",
"169 37 OFFCURVE",
"131 196 OFFCURVE",
"131 309 CURVE SMOOTH",
"131 422 OFFCURVE",
"167 578 OFFCURVE",
"346 578 CURVE SMOOTH",
"386 578 OFFCURVE",
"423 573 OFFCURVE",
"448 567 CURVE"
);
}
);
width = 600;
},
{
anchors = (
{
name = bottom;
position = "{310, 0}";
},
{
name = top;
position = "{310, 614}";
}
);
background = {
paths = (
{
closed = 1;
nodes = (
"475 447 LINE",
"531 447 LINE",
"542 600 LINE",
"500 616 OFFCURVE",
"422 629 OFFCURVE",
"358 629 CURVE SMOOTH",
"120 629 OFFCURVE",
"30 485 OFFCURVE",
"30 312 CURVE SMOOTH",
"30 138 OFFCURVE",
"112 -9 OFFCURVE",
"346 -9 CURVE SMOOTH",
"421 -9 OFFCURVE",
"496 6 OFFCURVE",
"544 33 CURVE",
"544 223 LINE",
"604 242 LINE",
"604 289 LINE",
"325 289 LINE",
"325 244 LINE",
"409 221 LINE",
"409 71 LINE",
"383 63 OFFCURVE",
"357 63 OFFCURVE",
"339 63 CURVE SMOOTH",
"211 63 OFFCURVE",
"172 180 OFFCURVE",
"172 312 CURVE SMOOTH",
"172 420 OFFCURVE",
"205 558 OFFCURVE",
"360 558 CURVE SMOOTH",
"397 558 OFFCURVE",
"429 554 OFFCURVE",
"450 545 CURVE"
);
}
);
};
layerId = "320D1F10-23EA-4160-876F-9C954522C215";
paths = (
{
closed = 1;
nodes = (
"475 447 LINE",
"531 447 LINE",
"542 600 LINE",
"500 616 OFFCURVE",
"422 629 OFFCURVE",
"358 629 CURVE SMOOTH",
"120 629 OFFCURVE",
"30 485 OFFCURVE",
"30 312 CURVE SMOOTH",
"30 138 OFFCURVE",
"112 -9 OFFCURVE",
"346 -9 CURVE SMOOTH",
"421 -9 OFFCURVE",
"496 6 OFFCURVE",
"544 33 CURVE",
"544 223 LINE",
"604 242 LINE",
"604 289 LINE",
"325 289 LINE",
"325 244 LINE",
"409 221 LINE",
"409 71 LINE",
"383 63 OFFCURVE",
"357 63 OFFCURVE",
"339 63 CURVE SMOOTH",
"211 63 OFFCURVE",
"172 180 OFFCURVE",
"172 312 CURVE SMOOTH",
"172 420 OFFCURVE",
"205 558 OFFCURVE",
"360 558 CURVE SMOOTH",
"397 558 OFFCURVE",
"429 554 OFFCURVE",
"450 545 CURVE"
);
}
);
width = 619;
}
);
leftKerningGroup = G;
rightKerningGroup = G;
unicode = 0047;
},
{
color = 11;
glyphname = Gbreve;
lastChange = "2015-02-19 03:26:04 +0000";
layers = (
{
background = {
paths = (
{
closed = 1;
nodes = (
"472 470 LINE",
"510 470 LINE",
"524 597 LINE",
"479 618 OFFCURVE",
"400 627 OFFCURVE",
"346 627 CURVE SMOOTH",
"121 627 OFFCURVE",
"41 483 OFFCURVE",
"41 309 CURVE SMOOTH",
"41 136 OFFCURVE",
"117 -11 OFFCURVE",
"339 -11 CURVE SMOOTH",
"412 -11 OFFCURVE",
"474 4 OFFCURVE",
"519 31 CURVE",
"519 234 LINE",
"590 254 LINE",
"590 288 LINE",
"347 288 LINE",
"347 254 LINE",
"436 234 LINE",
"436 56 LINE",
"408 42 OFFCURVE",
"378 37 OFFCURVE",
"343 37 CURVE SMOOTH",
"169 37 OFFCURVE",
"131 196 OFFCURVE",
"131 309 CURVE SMOOTH",
"131 422 OFFCURVE",
"167 578 OFFCURVE",
"346 578 CURVE SMOOTH",
"386 578 OFFCURVE",
"423 573 OFFCURVE",
"448 567 CURVE"
);
},
{
closed = 1;
nodes = (
"413 665 OFFCURVE",
"437 720 OFFCURVE",
"437 779 CURVE",
"404 781 LINE",
"404 749 OFFCURVE",
"389 719 OFFCURVE",
"319 719 CURVE SMOOTH",
"251 719 OFFCURVE",
"237 749 OFFCURVE",
"237 781 CURVE",
"203 779 LINE",
"203 720 OFFCURVE",
"228 665 OFFCURVE",
"321 665 CURVE SMOOTH"
);
}
);
};
layerId = "C2E97133-8774-4C1F-A96F-338CBADF7D3D";
paths = (
{
closed = 1;
nodes = (
"472 470 LINE",
"510 470 LINE",
"524 597 LINE",
"479 618 OFFCURVE",
"400 627 OFFCURVE",
"346 627 CURVE SMOOTH",
"121 627 OFFCURVE",
"41 483 OFFCURVE",
"41 309 CURVE SMOOTH",
"41 136 OFFCURVE",
"117 -11 OFFCURVE",
"339 -11 CURVE SMOOTH",
"412 -11 OFFCURVE",
"474 4 OFFCURVE",
"519 31 CURVE",
"519 234 LINE",
"590 254 LINE",
"590 288 LINE",
"347 288 LINE",
"347 254 LINE",
"436 234 LINE",
"436 56 LINE",
"408 42 OFFCURVE",
"378 37 OFFCURVE",
"343 37 CURVE SMOOTH",
"169 37 OFFCURVE",
"131 196 OFFCURVE",
"131 309 CURVE SMOOTH",
"131 422 OFFCURVE",
"167 578 OFFCURVE",
"346 578 CURVE SMOOTH",
"386 578 OFFCURVE",
"423 573 OFFCURVE",
"448 567 CURVE"
);
},
{
closed = 1;
nodes = (
"413 665 OFFCURVE",
"437 720 OFFCURVE",
"437 779 CURVE",
"404 781 LINE",
"404 749 OFFCURVE",
"389 719 OFFCURVE",
"319 719 CURVE SMOOTH",
"251 719 OFFCURVE",
"237 749 OFFCURVE",
"237 781 CURVE",
"203 779 LINE",
"203 720 OFFCURVE",
"228 665 OFFCURVE",
"321 665 CURVE SMOOTH"
);
}
);
width = 581;
},
{
background = {
paths = (
{
closed = 1;
nodes = (
"475 447 LINE",
"531 447 LINE",
"542 600 LINE",
"500 616 OFFCURVE",
"422 629 OFFCURVE",
"358 629 CURVE SMOOTH",
"120 629 OFFCURVE",
"30 485 OFFCURVE",
"30 312 CURVE SMOOTH",
"30 138 OFFCURVE",
"112 -9 OFFCURVE",
"346 -9 CURVE SMOOTH",
"421 -9 OFFCURVE",
"496 6 OFFCURVE",
"544 33 CURVE",
"544 223 LINE",
"604 242 LINE",
"604 289 LINE",
"325 289 LINE",
"325 244 LINE",
"409 221 LINE",
"409 71 LINE",
"383 63 OFFCURVE",
"357 63 OFFCURVE",
"339 63 CURVE SMOOTH",
"211 63 OFFCURVE",
"172 180 OFFCURVE",
"172 312 CURVE SMOOTH",
"172 420 OFFCURVE",
"205 558 OFFCURVE",
"360 558 CURVE SMOOTH",
"397 558 OFFCURVE",
"429 554 OFFCURVE",
"450 545 CURVE"
);
},
{
closed = 1;
nodes = (
"427 651 OFFCURVE",
"449 716 OFFCURVE",
"449 786 CURVE",
"393 788 LINE",
"393 761 OFFCURVE",
"381 727 OFFCURVE",
"328 727 CURVE SMOOTH",
"278 727 OFFCURVE",
"265 761 OFFCURVE",
"265 788 CURVE",
"206 786 LINE",
"206 716 OFFCURVE",
"222 651 OFFCURVE",
"324 651 CURVE SMOOTH"
);
}
);
};
layerId = "320D1F10-23EA-4160-876F-9C954522C215";
paths = (
{
closed = 1;
nodes = (
"475 447 LINE",
"531 447 LINE",
"542 600 LINE",
"500 616 OFFCURVE",
"422 629 OFFCURVE",
"358 629 CURVE SMOOTH",
"120 629 OFFCURVE",
"30 485 OFFCURVE",
"30 312 CURVE SMOOTH",
"30 138 OFFCURVE",
"112 -9 OFFCURVE",
"346 -9 CURVE SMOOTH",
"421 -9 OFFCURVE",
"496 6 OFFCURVE",
"544 33 CURVE",
"544 223 LINE",
"604 242 LINE",
"604 289 LINE",
"325 289 LINE",
"325 244 LINE",
"409 221 LINE",
"409 71 LINE",
"383 63 OFFCURVE",
"357 63 OFFCURVE",
"339 63 CURVE SMOOTH",
"211 63 OFFCURVE",
"172 180 OFFCURVE",
"172 312 CURVE SMOOTH",
"172 420 OFFCURVE",
"205 558 OFFCURVE",
"360 558 CURVE SMOOTH",
"397 558 OFFCURVE",
"429 554 OFFCURVE",
"450 545 CURVE"
);
},
{
closed = 1;
nodes = (
"427 651 OFFCURVE",
"449 716 OFFCURVE",
"449 786 CURVE",
"393 788 LINE",
"393 761 OFFCURVE",
"381 727 OFFCURVE",
"328 727 CURVE SMOOTH",
"278 727 OFFCURVE",
"265 761 OFFCURVE",
"265 788 CURVE",
"206 786 LINE",
"206 716 OFFCURVE",
"222 651 OFFCURVE",
"324 651 CURVE SMOOTH"
);
}
);
width = 619;
}
);
leftKerningGroup = G;
rightKerningGroup = G;
unicode = 011E;
},
{
color = 11;
glyphname = Gcommaaccent;
lastChange = "2015-02-19 03:26:04 +0000";
layers = (
{
background = {
paths = (
{
closed = 1;
nodes = (
"374 -42 LINE",
"361 -28 LINE",
"291 -43 LINE",
"277 -221 LINE",
"310 -221 LINE"
);
},
{
closed = 1;
nodes = (
"472 470 LINE",
"510 470 LINE",
"524 597 LINE",
"479 618 OFFCURVE",
"400 627 OFFCURVE",
"346 627 CURVE SMOOTH",
"121 627 OFFCURVE",
"41 483 OFFCURVE",
"41 309 CURVE SMOOTH",
"41 136 OFFCURVE",
"117 -11 OFFCURVE",
"339 -11 CURVE SMOOTH",
"412 -11 OFFCURVE",
"474 4 OFFCURVE",
"519 31 CURVE",
"519 234 LINE",
"590 254 LINE",
"590 288 LINE",
"347 288 LINE",
"347 254 LINE",
"436 234 LINE",
"436 56 LINE",
"408 42 OFFCURVE",
"378 37 OFFCURVE",
"343 37 CURVE SMOOTH",
"169 37 OFFCURVE",
"131 196 OFFCURVE",
"131 309 CURVE SMOOTH",
"131 422 OFFCURVE",
"167 578 OFFCURVE",
"346 578 CURVE SMOOTH",
"386 578 OFFCURVE",
"423 573 OFFCURVE",
"448 567 CURVE"
);
}
);
};
layerId = "C2E97133-8774-4C1F-A96F-338CBADF7D3D";
paths = (
{
closed = 1;
nodes = (
"374 -42 LINE",
"361 -28 LINE",
"291 -43 LINE",
"277 -221 LINE",
"310 -221 LINE"
);
},
{
closed = 1;
nodes = (
"472 470 LINE",
"510 470 LINE",
"524 597 LINE",
"479 618 OFFCURVE",
"400 627 OFFCURVE",
"346 627 CURVE SMOOTH",
"121 627 OFFCURVE",
"41 483 OFFCURVE",
"41 309 CURVE SMOOTH",
"41 136 OFFCURVE",
"117 -11 OFFCURVE",
"339 -11 CURVE SMOOTH",
"412 -11 OFFCURVE",
"474 4 OFFCURVE",
"519 31 CURVE",
"519 234 LINE",
"590 254 LINE",
"590 288 LINE",
"347 288 LINE",
"347 254 LINE",
"436 234 LINE",
"436 56 LINE",
"408 42 OFFCURVE",
"378 37 OFFCURVE",
"343 37 CURVE SMOOTH",
"169 37 OFFCURVE",
"131 196 OFFCURVE",
"131 309 CURVE SMOOTH",
"131 422 OFFCURVE",
"167 578 OFFCURVE",
"346 578 CURVE SMOOTH",
"386 578 OFFCURVE",
"423 573 OFFCURVE",
"448 567 CURVE"
);
}
);
width = 581;
},
{
background = {
paths = (
{
closed = 1;
nodes = (
"475 447 LINE",
"531 447 LINE",
"542 600 LINE",
"500 616 OFFCURVE",
"422 629 OFFCURVE",
"358 629 CURVE SMOOTH",
"120 629 OFFCURVE",
"30 485 OFFCURVE",
"30 312 CURVE SMOOTH",
"30 138 OFFCURVE",
"112 -9 OFFCURVE",
"346 -9 CURVE SMOOTH",
"421 -9 OFFCURVE",
"496 6 OFFCURVE",
"544 33 CURVE",
"544 223 LINE",
"604 242 LINE",
"604 289 LINE",
"325 289 LINE",
"325 244 LINE",
"409 221 LINE",
"409 71 LINE",
"383 63 OFFCURVE",
"357 63 OFFCURVE",
"339 63 CURVE SMOOTH",
"211 63 OFFCURVE",
"172 180 OFFCURVE",
"172 312 CURVE SMOOTH",
"172 420 OFFCURVE",
"205 558 OFFCURVE",
"360 558 CURVE SMOOTH",
"397 558 OFFCURVE",
"429 554 OFFCURVE",
"450 545 CURVE"
);
},
{
closed = 1;
nodes = (
"392 -48 LINE",
"367 -24 LINE",
"277 -44 LINE",
"268 -229 LINE",
"312 -236 LINE"
);
}
);
};
layerId = "320D1F10-23EA-4160-876F-9C954522C215";
paths = (
{
closed = 1;
nodes = (
"475 447 LINE",
"531 447 LINE",
"542 600 LINE",
"500 616 OFFCURVE",
"422 629 OFFCURVE",
"358 629 CURVE SMOOTH",
"120 629 OFFCURVE",
"30 485 OFFCURVE",
"30 312 CURVE SMOOTH",
"30 138 OFFCURVE",
"112 -9 OFFCURVE",
"346 -9 CURVE SMOOTH",
"421 -9 OFFCURVE",
"496 6 OFFCURVE",
"544 33 CURVE",
"544 223 LINE",
"604 242 LINE",
"604 289 LINE",
"325 289 LINE",
"325 244 LINE",
"409 221 LINE",
"409 71 LINE",
"383 63 OFFCURVE",
"357 63 OFFCURVE",
"339 63 CURVE SMOOTH",
"211 63 OFFCURVE",
"172 180 OFFCURVE",
"172 312 CURVE SMOOTH",
"172 420 OFFCURVE",
"205 558 OFFCURVE",
"360 558 CURVE SMOOTH",
"397 558 OFFCURVE",
"429 554 OFFCURVE",
"450 545 CURVE"
);
},
{
closed = 1;
nodes = (
"392 -48 LINE",
"367 -24 LINE",
"277 -44 LINE",
"268 -229 LINE",
"312 -236 LINE"
);
}
);
width = 619;
}
);
leftKerningGroup = G;
rightKerningGroup = G;
unicode = 0122;
},
{
color = 11;
glyphname = H;
lastChange = "2015-02-19 03:26:04 +0000";
layers = (
{
anchors = (
{
name = bottom;
position = "{362, 0}";
},
{
name = center;
position = "{362, 306}";
},
{
name = top;
position = "{362, 611}";
}
);
background = {
paths = (
{
closed = 1;
nodes = (
"424 33 LINE",
"424 0 LINE",
"686 0 LINE",
"686 33 LINE",
"596 53 LINE",
"596 559 LINE",
"685 578 LINE",
"685 611 LINE",
"424 611 LINE",
"424 578 LINE",
"513 559 LINE",
"513 329 LINE",
"211 329 LINE",
"211 559 LINE",
"300 578 LINE",
"300 611 LINE",
"39 611 LINE",
"39 578 LINE",
"128 559 LINE",
"128 53 LINE",
"39 33 LINE",
"39 0 LINE",
"300 0 LINE",
"300 33 LINE",
"211 53 LINE",
"211 280 LINE",
"513 280 LINE",
"513 53 LINE"
);
}
);
};
layerId = "C2E97133-8774-4C1F-A96F-338CBADF7D3D";
paths = (
{
closed = 1;
nodes = (
"424 33 LINE",
"424 0 LINE",
"686 0 LINE",
"686 33 LINE",
"596 53 LINE",
"596 559 LINE",
"685 578 LINE",
"685 611 LINE",
"424 611 LINE",
"424 578 LINE",
"513 559 LINE",
"513 329 LINE",
"211 329 LINE",
"211 559 LINE",
"300 578 LINE",
"300 611 LINE",
"39 611 LINE",
"39 578 LINE",
"128 559 LINE",
"128 53 LINE",
"39 33 LINE",
"39 0 LINE",
"300 0 LINE",
"300 33 LINE",
"211 53 LINE",
"211 280 LINE",
"513 280 LINE",
"513 53 LINE"
);
}
);
width = 723;
},
{
anchors = (
{
name = bottom;
position = "{368, 0}";
},
{
name = center;
position = "{368, 307}";
},
{
name = top;
position = "{368, 614}";
}
);
background = {
paths = (
{
closed = 1;
nodes = (
"701 0 LINE",
"701 45 LINE",
"616 69 LINE",
"616 546 LINE",
"701 569 LINE",
"701 614 LINE",
"395 614 LINE",
"395 569 LINE",
"481 546 LINE",
"481 335 LINE",
"255 335 LINE",
"255 546 LINE",
"340 569 LINE",
"340 614 LINE",
"35 614 LINE",
"35 569 LINE",
"120 546 LINE",
"120 69 LINE",
"35 45 LINE",
"35 0 LINE",
"340 0 LINE",
"340 45 LINE",
"255 69 LINE",
"255 276 LINE",
"481 276 LINE",
"481 69 LINE",
"396 45 LINE",
"396 0 LINE"
);
}
);
};
layerId = "320D1F10-23EA-4160-876F-9C954522C215";
paths = (
{
closed = 1;
nodes = (
"701 0 LINE",
"701 45 LINE",
"616 69 LINE",
"616 546 LINE",
"701 569 LINE",
"701 614 LINE",
"395 614 LINE",
"395 569 LINE",
"481 546 LINE",
"481 335 LINE",
"255 335 LINE",
"255 546 LINE",
"340 569 LINE",
"340 614 LINE",
"35 614 LINE",
"35 569 LINE",
"120 546 LINE",
"120 69 LINE",
"35 45 LINE",
"35 0 LINE",
"340 0 LINE",
"340 45 LINE",
"255 69 LINE",
"255 276 LINE",
"481 276 LINE",
"481 69 LINE",
"396 45 LINE",
"396 0 LINE"
);
}
);
width = 736;
}
);
unicode = 0048;
},
{
color = 0;
glyphname = Hbar;
lastChange = "2015-02-19 03:48:50 +0000";
layers = (
{
anchors = (
{
name = bottom;
position = "{362, 0}";
},
{
name = center;
position = "{362, 276}";
},
{
name = top;
position = "{362, 611}";
}
);
layerId = "C2E97133-8774-4C1F-A96F-338CBADF7D3D";
paths = (
{
closed = 1;
nodes = (
"424 33 LINE",
"424 0 LINE",
"686 0 LINE",
"686 33 LINE",
"596 53 LINE",
"596 559 LINE",
"685 578 LINE",
"685 611 LINE",
"424 611 LINE",
"424 578 LINE",
"513 559 LINE",
"513 299 LINE",
"211 299 LINE",
"211 559 LINE",
"300 578 LINE",
"300 611 LINE",
"39 611 LINE",
"39 578 LINE",
"128 559 LINE",
"128 53 LINE",
"39 33 LINE",
"39 0 LINE",
"300 0 LINE",
"300 33 LINE",
"211 53 LINE",
"211 250 LINE",
"513 250 LINE",
"513 53 LINE"
);
},
{
closed = 1;
nodes = (
"42 393 LINE",
"682 393 LINE",
"682 439 LINE",
"42 439 LINE"
);
}
);
width = 723;
},
{
anchors = (
{
name = bottom;
position = "{368, 0}";
},
{
name = center;
position = "{368, 277}";
},
{
name = top;
position = "{368, 614}";
}
);
layerId = "320D1F10-23EA-4160-876F-9C954522C215";
paths = (
{
closed = 1;
nodes = (
"701 0 LINE",
"701 45 LINE",
"616 69 LINE",
"616 546 LINE",
"701 569 LINE",
"701 614 LINE",
"395 614 LINE",
"395 569 LINE",
"481 546 LINE",
"481 305 LINE",
"255 305 LINE",
"255 546 LINE",
"340 569 LINE",
"340 614 LINE",
"35 614 LINE",
"35 569 LINE",
"120 546 LINE",
"120 69 LINE",
"35 45 LINE",
"35 0 LINE",
"340 0 LINE",
"340 45 LINE",
"255 69 LINE",
"255 246 LINE",
"481 246 LINE",
"481 69 LINE",
"396 45 LINE",
"396 0 LINE"
);
},
{
closed = 1;
nodes = (
"39 390 LINE",
"697 390 LINE",
"697 445 LINE",
"39 445 LINE"
);
}
);
width = 736;
}
);
unicode = 0126;
},
{
color = 11;
glyphname = I;
lastChange = "2015-02-19 03:26:04 +0000";
layers = (
{
anchors = (
{
name = bottom;
position = "{170, 0}";
},
{
name = ogonek;
position = "{305, 10}";
},
{
name = top;
position = "{170, 611}";
}
);
background = {
paths = (
{
closed = 1;
nodes = (
"38 578 LINE",
"128 558 LINE",
"128 53 LINE",
"38 33 LINE",
"38 0 LINE",
"301 0 LINE",
"301 33 LINE",
"211 53 LINE",
"211 558 LINE",
"301 578 LINE",
"301 611 LINE",
"38 611 LINE"
);
}
);
};
layerId = "C2E97133-8774-4C1F-A96F-338CBADF7D3D";
paths = (
{
closed = 1;
nodes = (
"38 578 LINE",
"128 558 LINE",
"128 53 LINE",
"38 33 LINE",
"38 0 LINE",
"301 0 LINE",
"301 33 LINE",
"211 53 LINE",
"211 558 LINE",
"301 578 LINE",
"301 611 LINE",
"38 611 LINE"
);
}
);
width = 339;
},
{
anchors = (
{
name = bottom;
position = "{188, 0}";
},
{
name = ogonek;
position = "{337, 10}";
},
{
name = top;
position = "{188, 614}";
}
);
background = {
paths = (
{
closed = 1;
nodes = (
"255 546 LINE",
"340 569 LINE",
"340 614 LINE",
"35 614 LINE",
"35 569 LINE",
"120 546 LINE",
"120 69 LINE",
"36 45 LINE",
"36 0 LINE",
"340 0 LINE",
"340 45 LINE",
"255 69 LINE"
);
}
);
};
layerId = "320D1F10-23EA-4160-876F-9C954522C215";
paths = (
{
closed = 1;
nodes = (
"255 546 LINE",
"340 569 LINE",
"340 614 LINE",
"35 614 LINE",
"35 569 LINE",
"120 546 LINE",
"120 69 LINE",
"36 45 LINE",
"36 0 LINE",
"340 0 LINE",
"340 45 LINE",
"255 69 LINE"
);
}
);
width = 375;
}
);
unicode = 0049;
},
{
color = 11;
glyphname = Iacute;
lastChange = "2015-02-19 03:26:04 +0000";
layers = (
{
background = {
paths = (
{
closed = 1;
nodes = (
"38 578 LINE",
"128 558 LINE",
"128 53 LINE",
"38 33 LINE",
"38 0 LINE",
"301 0 LINE",
"301 33 LINE",
"211 53 LINE",
"211 558 LINE",
"301 578 LINE",
"301 611 LINE",
"38 611 LINE"
);
},
{
closed = 1;
nodes = (
"287 753 LINE",
"287 771 LINE",
"211 799 LINE",
"57 669 LINE",
"73 650 LINE"
);
}
);
};
layerId = "C2E97133-8774-4C1F-A96F-338CBADF7D3D";
paths = (
{
closed = 1;
nodes = (
"38 578 LINE",
"128 558 LINE",
"128 53 LINE",
"38 33 LINE",
"38 0 LINE",
"301 0 LINE",
"301 33 LINE",
"211 53 LINE",
"211 558 LINE",
"301 578 LINE",
"301 611 LINE",
"38 611 LINE"
);
},
{
closed = 1;
nodes = (
"287 753 LINE",
"287 771 LINE",
"211 799 LINE",
"57 669 LINE",
"73 650 LINE"
);
}
);
width = 339;
},
{
background = {
paths = (
{
closed = 1;
nodes = (
"255 546 LINE",
"340 569 LINE",
"340 614 LINE",
"35 614 LINE",
"35 569 LINE",
"120 546 LINE",
"120 69 LINE",
"36 45 LINE",
"36 0 LINE",
"340 0 LINE",
"340 45 LINE",
"255 69 LINE"
);
},
{
closed = 1;
nodes = (
"315 743 LINE",
"315 766 LINE",
"216 800 LINE",
"60 669 LINE",
"87 634 LINE"
);
}
);
};
layerId = "320D1F10-23EA-4160-876F-9C954522C215";
paths = (
{
closed = 1;
nodes = (
"255 546 LINE",
"340 569 LINE",
"340 614 LINE",
"35 614 LINE",
"35 569 LINE",
"120 546 LINE",
"120 69 LINE",
"36 45 LINE",
"36 0 LINE",
"340 0 LINE",
"340 45 LINE",
"255 69 LINE"
);
},
{
closed = 1;
nodes = (
"315 743 LINE",
"315 766 LINE",
"216 800 LINE",
"60 669 LINE",
"87 634 LINE"
);
}
);
width = 375;
}
);
unicode = 00CD;
},
{
color = 11;
glyphname = Icircumflex;
lastChange = "2015-02-19 03:26:04 +0000";
layers = (
{
background = {
paths = (
{
closed = 1;
nodes = (
"38 578 LINE",
"128 558 LINE",
"128 53 LINE",
"38 33 LINE",
"38 0 LINE",
"301 0 LINE",
"301 33 LINE",
"211 53 LINE",
"211 558 LINE",
"301 578 LINE",
"301 611 LINE",
"38 611 LINE"
);
},
{
closed = 1;
nodes = (
"300 669 LINE",
"198 800 LINE",
"138 800 LINE",
"38 669 LINE",
"55 651 LINE",
"166 733 LINE",
"282 651 LINE"
);
}
);
};
layerId = "C2E97133-8774-4C1F-A96F-338CBADF7D3D";
paths = (
{
closed = 1;
nodes = (
"38 578 LINE",
"128 558 LINE",
"128 53 LINE",
"38 33 LINE",
"38 0 LINE",
"301 0 LINE",
"301 33 LINE",
"211 53 LINE",
"211 558 LINE",
"301 578 LINE",
"301 611 LINE",
"38 611 LINE"
);
},
{
closed = 1;
nodes = (
"300 669 LINE",
"198 800 LINE",
"138 800 LINE",
"38 669 LINE",
"55 651 LINE",
"166 733 LINE",
"282 651 LINE"
);
}
);
width = 339;
},
{
background = {
paths = (
{
closed = 1;
nodes = (
"255 546 LINE",
"340 569 LINE",
"340 614 LINE",
"35 614 LINE",
"35 569 LINE",
"120 546 LINE",
"120 69 LINE",
"36 45 LINE",
"36 0 LINE",
"340 0 LINE",
"340 45 LINE",
"255 69 LINE"
);
},
{
closed = 1;
nodes = (
"339 665 LINE",
"230 800 LINE",
"145 800 LINE",
"35 665 LINE",
"61 640 LINE",
"187 717 LINE",
"316 640 LINE"
);
}
);
};
layerId = "320D1F10-23EA-4160-876F-9C954522C215";
paths = (
{
closed = 1;
nodes = (
"255 546 LINE",
"340 569 LINE",
"340 614 LINE",
"35 614 LINE",
"35 569 LINE",
"120 546 LINE",
"120 69 LINE",
"36 45 LINE",
"36 0 LINE",
"340 0 LINE",
"340 45 LINE",
"255 69 LINE"
);
},
{
closed = 1;
nodes = (
"339 665 LINE",
"230 800 LINE",
"145 800 LINE",
"35 665 LINE",
"61 640 LINE",
"187 717 LINE",
"316 640 LINE"
);
}
);
width = 375;
}
);
unicode = 00CE;
},
{
color = 11;
glyphname = Idieresis;
lastChange = "2015-02-19 03:26:04 +0000";
layers = (
{
background = {
paths = (
{
closed = 1;
nodes = (
"38 578 LINE",
"128 558 LINE",
"128 53 LINE",
"38 33 LINE",
"38 0 LINE",
"301 0 LINE",
"301 33 LINE",
"211 53 LINE",
"211 558 LINE",
"301 578 LINE",
"301 611 LINE",
"38 611 LINE"
);
},
{
closed = 1;
nodes = (
"130 754 OFFCURVE",
"103 780 OFFCURVE",
"73 780 CURVE SMOOTH",
"43 780 OFFCURVE",
"16 754 OFFCURVE",
"16 722 CURVE SMOOTH",
"16 692 OFFCURVE",
"43 667 OFFCURVE",
"73 667 CURVE SMOOTH",
"103 667 OFFCURVE",
"130 692 OFFCURVE",
"130 722 CURVE SMOOTH"
);
},
{
closed = 1;
nodes = (
"325 754 OFFCURVE",
"297 780 OFFCURVE",
"267 780 CURVE SMOOTH",
"237 780 OFFCURVE",
"210 754 OFFCURVE",
"210 722 CURVE SMOOTH",
"210 692 OFFCURVE",
"237 667 OFFCURVE",
"267 667 CURVE SMOOTH",
"297 667 OFFCURVE",
"325 692 OFFCURVE",
"325 722 CURVE SMOOTH"
);
}
);
};
layerId = "C2E97133-8774-4C1F-A96F-338CBADF7D3D";
paths = (
{
closed = 1;
nodes = (
"38 578 LINE",
"128 558 LINE",
"128 53 LINE",
"38 33 LINE",
"38 0 LINE",
"301 0 LINE",
"301 33 LINE",
"211 53 LINE",
"211 558 LINE",
"301 578 LINE",
"301 611 LINE",
"38 611 LINE"
);
},
{
closed = 1;
nodes = (
"130 754 OFFCURVE",
"103 780 OFFCURVE",
"73 780 CURVE SMOOTH",
"43 780 OFFCURVE",
"16 754 OFFCURVE",
"16 722 CURVE SMOOTH",
"16 692 OFFCURVE",
"43 667 OFFCURVE",
"73 667 CURVE SMOOTH",
"103 667 OFFCURVE",
"130 692 OFFCURVE",
"130 722 CURVE SMOOTH"
);
},
{
closed = 1;
nodes = (
"325 754 OFFCURVE",
"297 780 OFFCURVE",
"267 780 CURVE SMOOTH",
"237 780 OFFCURVE",
"210 754 OFFCURVE",
"210 722 CURVE SMOOTH",
"210 692 OFFCURVE",
"237 667 OFFCURVE",
"267 667 CURVE SMOOTH",
"297 667 OFFCURVE",
"325 692 OFFCURVE",
"325 722 CURVE SMOOTH"
);
}
);
width = 339;
},
{
background = {
paths = (
{
closed = 1;
nodes = (
"255 546 LINE",
"340 569 LINE",
"340 614 LINE",
"35 614 LINE",
"35 569 LINE",
"120 546 LINE",
"120 69 LINE",
"36 45 LINE",
"36 0 LINE",
"340 0 LINE",
"340 45 LINE",
"255 69 LINE"
);
},
{
closed = 1;
nodes = (
"148 760 OFFCURVE",
"114 792 OFFCURVE",
"74 792 CURVE SMOOTH",
"33 792 OFFCURVE",
"-4 760 OFFCURVE",
"-4 719 CURVE SMOOTH",
"-4 677 OFFCURVE",
"33 647 OFFCURVE",
"74 647 CURVE SMOOTH",
"114 647 OFFCURVE",
"148 677 OFFCURVE",
"148 719 CURVE SMOOTH"
);
},
{
closed = 1;
nodes = (
"379 760 OFFCURVE",
"344 792 OFFCURVE",
"306 792 CURVE SMOOTH",
"264 792 OFFCURVE",
"229 760 OFFCURVE",
"229 719 CURVE SMOOTH",
"229 677 OFFCURVE",
"264 647 OFFCURVE",
"306 647 CURVE SMOOTH",
"344 647 OFFCURVE",
"379 677 OFFCURVE",
"379 719 CURVE SMOOTH"
);
}
);
};
layerId = "320D1F10-23EA-4160-876F-9C954522C215";
paths = (
{
closed = 1;
nodes = (
"255 546 LINE",
"340 569 LINE",
"340 614 LINE",
"35 614 LINE",
"35 569 LINE",
"120 546 LINE",
"120 69 LINE",
"36 45 LINE",
"36 0 LINE",
"340 0 LINE",
"340 45 LINE",
"255 69 LINE"
);
},
{
closed = 1;
nodes = (
"148 760 OFFCURVE",
"114 792 OFFCURVE",
"74 792 CURVE SMOOTH",
"33 792 OFFCURVE",
"-4 760 OFFCURVE",
"-4 719 CURVE SMOOTH",
"-4 677 OFFCURVE",
"33 647 OFFCURVE",
"74 647 CURVE SMOOTH",
"114 647 OFFCURVE",
"148 677 OFFCURVE",
"148 719 CURVE SMOOTH"
);
},
{
closed = 1;
nodes = (
"379 760 OFFCURVE",
"344 792 OFFCURVE",
"306 792 CURVE SMOOTH",
"264 792 OFFCURVE",
"229 760 OFFCURVE",
"229 719 CURVE SMOOTH",
"229 677 OFFCURVE",
"264 647 OFFCURVE",
"306 647 CURVE SMOOTH",
"344 647 OFFCURVE",
"379 677 OFFCURVE",
"379 719 CURVE SMOOTH"
);
}
);
width = 375;
}
);
unicode = 00CF;
},
{
color = 11;
glyphname = Idotaccent;
lastChange = "2015-02-19 03:26:04 +0000";
layers = (
{
background = {
paths = (
{
closed = 1;
nodes = (
"38 578 LINE",
"128 558 LINE",
"128 53 LINE",
"38 33 LINE",
"38 0 LINE",
"301 0 LINE",
"301 33 LINE",
"211 53 LINE",
"211 558 LINE",
"301 578 LINE",
"301 611 LINE",
"38 611 LINE"
);
},
{
closed = 1;
nodes = (
"229 758 OFFCURVE",
"200 785 OFFCURVE",
"169 785 CURVE SMOOTH",
"137 785 OFFCURVE",
"109 758 OFFCURVE",
"109 725 CURVE SMOOTH",
"109 692 OFFCURVE",
"137 668 OFFCURVE",
"169 668 CURVE SMOOTH",
"200 668 OFFCURVE",
"229 692 OFFCURVE",
"229 725 CURVE SMOOTH"
);
}
);
};
layerId = "C2E97133-8774-4C1F-A96F-338CBADF7D3D";
paths = (
{
closed = 1;
nodes = (
"38 578 LINE",
"128 558 LINE",
"128 53 LINE",
"38 33 LINE",
"38 0 LINE",
"301 0 LINE",
"301 33 LINE",
"211 53 LINE",
"211 558 LINE",
"301 578 LINE",
"301 611 LINE",
"38 611 LINE"
);
},
{
closed = 1;
nodes = (
"229 758 OFFCURVE",
"200 785 OFFCURVE",
"169 785 CURVE SMOOTH",
"137 785 OFFCURVE",
"109 758 OFFCURVE",
"109 725 CURVE SMOOTH",
"109 692 OFFCURVE",
"137 668 OFFCURVE",
"169 668 CURVE SMOOTH",
"200 668 OFFCURVE",
"229 692 OFFCURVE",
"229 725 CURVE SMOOTH"
);
}
);
width = 339;
},
{
background = {
paths = (
{
closed = 1;
nodes = (
"255 546 LINE",
"340 569 LINE",
"340 614 LINE",
"35 614 LINE",
"35 569 LINE",
"120 546 LINE",
"120 69 LINE",
"36 45 LINE",
"36 0 LINE",
"340 0 LINE",
"340 45 LINE",
"255 69 LINE"
);
},
{
closed = 1;
nodes = (
"271 760 OFFCURVE",
"234 799 OFFCURVE",
"189 799 CURVE SMOOTH",
"144 799 OFFCURVE",
"103 760 OFFCURVE",
"103 715 CURVE SMOOTH",
"103 670 OFFCURVE",
"144 635 OFFCURVE",
"189 635 CURVE SMOOTH",
"234 635 OFFCURVE",
"271 670 OFFCURVE",
"271 715 CURVE SMOOTH"
);
}
);
};
layerId = "320D1F10-23EA-4160-876F-9C954522C215";
paths = (
{
closed = 1;
nodes = (
"255 546 LINE",
"340 569 LINE",
"340 614 LINE",
"35 614 LINE",
"35 569 LINE",
"120 546 LINE",
"120 69 LINE",
"36 45 LINE",
"36 0 LINE",
"340 0 LINE",
"340 45 LINE",
"255 69 LINE"
);
},
{
closed = 1;
nodes = (
"271 760 OFFCURVE",
"234 799 OFFCURVE",
"189 799 CURVE SMOOTH",
"144 799 OFFCURVE",
"103 760 OFFCURVE",
"103 715 CURVE SMOOTH",
"103 670 OFFCURVE",
"144 635 OFFCURVE",
"189 635 CURVE SMOOTH",
"234 635 OFFCURVE",
"271 670 OFFCURVE",
"271 715 CURVE SMOOTH"
);
}
);
width = 375;
}
);
unicode = 0130;
},
{
color = 11;
glyphname = Igrave;
lastChange = "2015-02-19 03:26:04 +0000";
layers = (
{
background = {
paths = (
{
closed = 1;
nodes = (
"38 578 LINE",
"128 558 LINE",
"128 53 LINE",
"38 33 LINE",
"38 0 LINE",
"301 0 LINE",
"301 33 LINE",
"211 53 LINE",
"211 558 LINE",
"301 578 LINE",
"301 611 LINE",
"38 611 LINE"
);
},
{
closed = 1;
nodes = (
"283 669 LINE",
"130 799 LINE",
"53 771 LINE",
"53 753 LINE",
"269 650 LINE"
);
}
);
};
layerId = "C2E97133-8774-4C1F-A96F-338CBADF7D3D";
paths = (
{
closed = 1;
nodes = (
"38 578 LINE",
"128 558 LINE",
"128 53 LINE",
"38 33 LINE",
"38 0 LINE",
"301 0 LINE",
"301 33 LINE",
"211 53 LINE",
"211 558 LINE",
"301 578 LINE",
"301 611 LINE",
"38 611 LINE"
);
},
{
closed = 1;
nodes = (
"283 669 LINE",
"130 799 LINE",
"53 771 LINE",
"53 753 LINE",
"269 650 LINE"
);
}
);
width = 339;
},
{
background = {
paths = (
{
closed = 1;
nodes = (
"255 546 LINE",
"340 569 LINE",
"340 614 LINE",
"35 614 LINE",
"35 569 LINE",
"120 546 LINE",
"120 69 LINE",
"36 45 LINE",
"36 0 LINE",
"340 0 LINE",
"340 45 LINE",
"255 69 LINE"
);
},
{
closed = 1;
nodes = (
"315 669 LINE",
"161 800 LINE",
"64 766 LINE",
"60 743 LINE",
"292 634 LINE"
);
}
);
};
layerId = "320D1F10-23EA-4160-876F-9C954522C215";
paths = (
{
closed = 1;
nodes = (
"255 546 LINE",
"340 569 LINE",
"340 614 LINE",
"35 614 LINE",
"35 569 LINE",
"120 546 LINE",
"120 69 LINE",
"36 45 LINE",
"36 0 LINE",
"340 0 LINE",
"340 45 LINE",
"255 69 LINE"
);
},
{
closed = 1;
nodes = (
"315 669 LINE",
"161 800 LINE",
"64 766 LINE",
"60 743 LINE",
"292 634 LINE"
);
}
);
width = 375;
}
);
unicode = 00CC;
},
{
color = 11;
glyphname = Imacron;
lastChange = "2015-02-19 03:26:04 +0000";
layers = (
{
background = {
paths = (
{
closed = 1;
nodes = (
"38 578 LINE",
"128 558 LINE",
"128 53 LINE",
"38 33 LINE",
"38 0 LINE",
"301 0 LINE",
"301 33 LINE",
"211 53 LINE",
"211 558 LINE",
"301 578 LINE",
"301 611 LINE",
"38 611 LINE"
);
},
{
closed = 1;
nodes = (
"61 697 LINE",
"278 697 LINE",
"278 749 LINE",
"61 749 LINE"
);
}
);
};
layerId = "C2E97133-8774-4C1F-A96F-338CBADF7D3D";
paths = (
{
closed = 1;
nodes = (
"38 578 LINE",
"128 558 LINE",
"128 53 LINE",
"38 33 LINE",
"38 0 LINE",
"301 0 LINE",
"301 33 LINE",
"211 53 LINE",
"211 558 LINE",
"301 578 LINE",
"301 611 LINE",
"38 611 LINE"
);
},
{
closed = 1;
nodes = (
"61 697 LINE",
"278 697 LINE",
"278 749 LINE",
"61 749 LINE"
);
}
);
width = 339;
},
{
background = {
paths = (
{
closed = 1;
nodes = (
"255 546 LINE",
"340 569 LINE",
"340 614 LINE",
"35 614 LINE",
"35 569 LINE",
"120 546 LINE",
"120 69 LINE",
"36 45 LINE",
"36 0 LINE",
"340 0 LINE",
"340 45 LINE",
"255 69 LINE"
);
},
{
closed = 1;
nodes = (
"65 679 LINE",
"306 679 LINE",
"306 758 LINE",
"65 758 LINE"
);
}
);
};
layerId = "320D1F10-23EA-4160-876F-9C954522C215";
paths = (
{
closed = 1;
nodes = (
"255 546 LINE",
"340 569 LINE",
"340 614 LINE",
"35 614 LINE",
"35 569 LINE",
"120 546 LINE",
"120 69 LINE",
"36 45 LINE",
"36 0 LINE",
"340 0 LINE",
"340 45 LINE",
"255 69 LINE"
);
},
{
closed = 1;
nodes = (
"65 679 LINE",
"306 679 LINE",
"306 758 LINE",
"65 758 LINE"
);
}
);
width = 375;
}
);
unicode = 012A;
},
{
color = 11;
glyphname = Iogonek;
lastChange = "2015-02-19 03:26:04 +0000";
layers = (
{
background = {
paths = (
{
closed = 1;
nodes = (
"301 28 LINE",
"187 4 OFFCURVE",
"112 -76 OFFCURVE",
"112 -151 CURVE SMOOTH",
"112 -194 OFFCURVE",
"140 -236 OFFCURVE",
"207 -236 CURVE SMOOTH",
"271 -236 OFFCURVE",
"301 -186 OFFCURVE",
"301 -186 CURVE",
"284 -170 LINE",
"269 -186 OFFCURVE",
"251 -192 OFFCURVE",
"234 -192 CURVE SMOOTH",
"201 -192 OFFCURVE",
"180 -171 OFFCURVE",
"180 -133 CURVE SMOOTH",
"180 -82 OFFCURVE",
"208 -24 OFFCURVE",
"301 0 CURVE"
);
},
{
closed = 1;
nodes = (
"38 578 LINE",
"128 558 LINE",
"128 53 LINE",
"38 33 LINE",
"38 0 LINE",
"301 0 LINE",
"301 33 LINE",
"211 53 LINE",
"211 558 LINE",
"301 578 LINE",
"301 611 LINE",
"38 611 LINE"
);
}
);
};
layerId = "C2E97133-8774-4C1F-A96F-338CBADF7D3D";
paths = (
{
closed = 1;
nodes = (
"301 28 LINE",
"187 4 OFFCURVE",
"112 -76 OFFCURVE",
"112 -151 CURVE SMOOTH",
"112 -194 OFFCURVE",
"140 -236 OFFCURVE",
"207 -236 CURVE SMOOTH",
"271 -236 OFFCURVE",
"301 -186 OFFCURVE",
"301 -186 CURVE",
"284 -170 LINE",
"269 -186 OFFCURVE",
"251 -192 OFFCURVE",
"234 -192 CURVE SMOOTH",
"201 -192 OFFCURVE",
"180 -171 OFFCURVE",
"180 -133 CURVE SMOOTH",
"180 -82 OFFCURVE",
"208 -24 OFFCURVE",
"301 0 CURVE"
);
},
{
closed = 1;
nodes = (
"38 578 LINE",
"128 558 LINE",
"128 53 LINE",
"38 33 LINE",
"38 0 LINE",
"301 0 LINE",
"301 33 LINE",
"211 53 LINE",
"211 558 LINE",
"301 578 LINE",
"301 611 LINE",
"38 611 LINE"
);
}
);
width = 339;
},
{
background = {
paths = (
{
closed = 1;
nodes = (
"255 546 LINE",
"340 569 LINE",
"340 614 LINE",
"35 614 LINE",
"35 569 LINE",
"120 546 LINE",
"120 69 LINE",
"36 45 LINE",
"36 0 LINE",
"242 0 LINE",
"186 -36 OFFCURVE",
"140 -90 OFFCURVE",
"140 -149 CURVE SMOOTH",
"140 -192 OFFCURVE",
"165 -233 OFFCURVE",
"243 -233 CURVE SMOOTH",
"303 -233 OFFCURVE",
"337 -195 OFFCURVE",
"352 -171 CURVE",
"329 -149 LINE",
"316 -158 OFFCURVE",
"295 -171 OFFCURVE",
"269 -171 CURVE SMOOTH",
"241 -171 OFFCURVE",
"225 -157 OFFCURVE",
"225 -125 CURVE SMOOTH",
"225 -83 OFFCURVE",
"257 -20 OFFCURVE",
"340 0 CURVE",
"340 45 LINE",
"255 69 LINE"
);
}
);
};
layerId = "320D1F10-23EA-4160-876F-9C954522C215";
paths = (
{
closed = 1;
nodes = (
"255 546 LINE",
"340 569 LINE",
"340 614 LINE",
"35 614 LINE",
"35 569 LINE",
"120 546 LINE",
"120 69 LINE",
"36 45 LINE",
"36 0 LINE",
"242 0 LINE",
"186 -36 OFFCURVE",
"140 -90 OFFCURVE",
"140 -149 CURVE SMOOTH",
"140 -192 OFFCURVE",
"165 -233 OFFCURVE",
"243 -233 CURVE SMOOTH",
"303 -233 OFFCURVE",
"337 -195 OFFCURVE",
"352 -171 CURVE",
"329 -149 LINE",
"316 -158 OFFCURVE",
"295 -171 OFFCURVE",
"269 -171 CURVE SMOOTH",
"241 -171 OFFCURVE",
"225 -157 OFFCURVE",
"225 -125 CURVE SMOOTH",
"225 -83 OFFCURVE",
"257 -20 OFFCURVE",
"340 0 CURVE",
"340 45 LINE",
"255 69 LINE"
);
}
);
width = 375;
}
);
unicode = 012E;
},
{
color = 11;
glyphname = Itilde;
lastChange = "2015-02-19 03:26:04 +0000";
layers = (
{
background = {
paths = (
{
closed = 1;
nodes = (
"38 578 LINE",
"128 558 LINE",
"128 53 LINE",
"38 33 LINE",
"38 0 LINE",
"301 0 LINE",
"301 33 LINE",
"211 53 LINE",
"211 558 LINE",
"301 578 LINE",
"301 611 LINE",
"38 611 LINE"
);
},
{
closed = 1;
nodes = (
"284 804 LINE",
"284 804 OFFCURVE",
"264 769 OFFCURVE",
"241 769 CURVE SMOOTH",
"206 769 OFFCURVE",
"133 809 OFFCURVE",
"99 809 CURVE SMOOTH",
"66 809 OFFCURVE",
"46 767 OFFCURVE",
"25 715 CURVE",
"55 703 LINE",
"55 703 OFFCURVE",
"78 739 OFFCURVE",
"100 739 CURVE SMOOTH",
"133 739 OFFCURVE",
"208 699 OFFCURVE",
"242 699 CURVE SMOOTH",
"274 699 OFFCURVE",
"294 741 OFFCURVE",
"315 792 CURVE"
);
}
);
};
layerId = "C2E97133-8774-4C1F-A96F-338CBADF7D3D";
paths = (
{
closed = 1;
nodes = (
"38 578 LINE",
"128 558 LINE",
"128 53 LINE",
"38 33 LINE",
"38 0 LINE",
"301 0 LINE",
"301 33 LINE",
"211 53 LINE",
"211 558 LINE",
"301 578 LINE",
"301 611 LINE",
"38 611 LINE"
);
},
{
closed = 1;
nodes = (
"284 804 LINE",
"284 804 OFFCURVE",
"264 769 OFFCURVE",
"241 769 CURVE SMOOTH",
"206 769 OFFCURVE",
"133 809 OFFCURVE",
"99 809 CURVE SMOOTH",
"66 809 OFFCURVE",
"46 767 OFFCURVE",
"25 715 CURVE",
"55 703 LINE",
"55 703 OFFCURVE",
"78 739 OFFCURVE",
"100 739 CURVE SMOOTH",
"133 739 OFFCURVE",
"208 699 OFFCURVE",
"242 699 CURVE SMOOTH",
"274 699 OFFCURVE",
"294 741 OFFCURVE",
"315 792 CURVE"
);
}
);
width = 339;
},
{
background = {
paths = (
{
closed = 1;
nodes = (
"255 546 LINE",
"340 569 LINE",
"340 614 LINE",
"35 614 LINE",
"35 569 LINE",
"120 546 LINE",
"120 69 LINE",
"36 45 LINE",
"36 0 LINE",
"340 0 LINE",
"340 45 LINE",
"255 69 LINE"
);
},
{
closed = 1;
nodes = (
"305 784 LINE",
"305 784 OFFCURVE",
"288 753 OFFCURVE",
"263 753 CURVE SMOOTH",
"224 753 OFFCURVE",
"136 790 OFFCURVE",
"87 790 CURVE SMOOTH",
"54 790 OFFCURVE",
"20 744 OFFCURVE",
"0 686 CURVE",
"47 667 LINE",
"47 667 OFFCURVE",
"63 698 OFFCURVE",
"87 698 CURVE SMOOTH",
"125 698 OFFCURVE",
"214 661 OFFCURVE",
"263 661 CURVE SMOOTH",
"297 661 OFFCURVE",
"325 707 OFFCURVE",
"349 765 CURVE"
);
}
);
};
layerId = "320D1F10-23EA-4160-876F-9C954522C215";
paths = (
{
closed = 1;
nodes = (
"255 546 LINE",
"340 569 LINE",
"340 614 LINE",
"35 614 LINE",
"35 569 LINE",
"120 546 LINE",
"120 69 LINE",
"36 45 LINE",
"36 0 LINE",
"340 0 LINE",
"340 45 LINE",
"255 69 LINE"
);
},
{
closed = 1;
nodes = (
"305 784 LINE",
"305 784 OFFCURVE",
"288 753 OFFCURVE",
"263 753 CURVE SMOOTH",
"224 753 OFFCURVE",
"136 790 OFFCURVE",
"87 790 CURVE SMOOTH",
"54 790 OFFCURVE",
"20 744 OFFCURVE",
"0 686 CURVE",
"47 667 LINE",
"47 667 OFFCURVE",
"63 698 OFFCURVE",
"87 698 CURVE SMOOTH",
"125 698 OFFCURVE",
"214 661 OFFCURVE",
"263 661 CURVE SMOOTH",
"297 661 OFFCURVE",
"325 707 OFFCURVE",
"349 765 CURVE"
);
}
);
width = 375;
}
);
unicode = 0128;
},
{
color = 11;
glyphname = J;
lastChange = "2015-02-19 03:26:04 +0000";
layers = (
{
anchors = (
{
name = bottom;
position = "{146, 0}";
},
{
name = top;
position = "{146, 611}";
}
);
background = {
paths = (
{
closed = 1;
nodes = (
"143 -149 OFFCURVE",
"191 -102 OFFCURVE",
"191 63 CURVE SMOOTH",
"191 558 LINE",
"279 578 LINE",
"279 611 LINE",
"19 611 LINE",
"19 578 LINE",
"108 558 LINE",
"108 30 LINE SMOOTH",
"108 -42 OFFCURVE",
"97 -94 OFFCURVE",
"33 -94 CURVE SMOOTH",
"-41 -94 LINE",
"-45 -122 LINE",
"-22 -137 OFFCURVE",
"8 -149 OFFCURVE",
"55 -149 CURVE SMOOTH"
);
}
);
};
layerId = "C2E97133-8774-4C1F-A96F-338CBADF7D3D";
paths = (
{
closed = 1;
nodes = (
"143 -149 OFFCURVE",
"191 -102 OFFCURVE",
"191 63 CURVE SMOOTH",
"191 558 LINE",
"279 578 LINE",
"279 611 LINE",
"19 611 LINE",
"19 578 LINE",
"108 558 LINE",
"108 30 LINE SMOOTH",
"108 -42 OFFCURVE",
"97 -94 OFFCURVE",
"33 -94 CURVE SMOOTH",
"-41 -94 LINE",
"-45 -122 LINE",
"-22 -137 OFFCURVE",
"8 -149 OFFCURVE",
"55 -149 CURVE SMOOTH"
);
}
);
width = 292;
},
{
anchors = (
{
name = bottom;
position = "{176, 0}";
},
{
name = top;
position = "{176, 614}";
}
);
background = {
paths = (
{
closed = 1;
nodes = (
"185 -150 OFFCURVE",
"248 -103 OFFCURVE",
"248 63 CURVE SMOOTH",
"248 546 LINE",
"333 569 LINE",
"333 614 LINE",
"29 614 LINE",
"29 569 LINE",
"114 546 LINE",
"114 41 LINE SMOOTH",
"114 -29 OFFCURVE",
"102 -81 OFFCURVE",
"42 -81 CURVE SMOOTH",
"-26 -81 LINE",
"-30 -118 LINE",
"-6 -134 OFFCURVE",
"28 -150 OFFCURVE",
"81 -150 CURVE SMOOTH"
);
}
);
};
layerId = "320D1F10-23EA-4160-876F-9C954522C215";
paths = (
{
closed = 1;
nodes = (
"185 -150 OFFCURVE",
"248 -103 OFFCURVE",
"248 63 CURVE SMOOTH",
"248 546 LINE",
"333 569 LINE",
"333 614 LINE",
"29 614 LINE",
"29 569 LINE",
"114 546 LINE",
"114 41 LINE SMOOTH",
"114 -29 OFFCURVE",
"102 -81 OFFCURVE",
"42 -81 CURVE SMOOTH",
"-26 -81 LINE",
"-30 -118 LINE",
"-6 -134 OFFCURVE",
"28 -150 OFFCURVE",
"81 -150 CURVE SMOOTH"
);
}
);
width = 351;
}
);
unicode = 004A;
},
{
color = 11;
glyphname = K;
lastChange = "2015-02-19 03:26:04 +0000";
layers = (
{
anchors = (
{
name = bottom;
position = "{292, 0}";
},
{
name = top;
position = "{292, 611}";
}
);
background = {
paths = (
{
closed = 1;
nodes = (
"574 33 LINE",
"493 53 LINE",
"291 338 LINE",
"491 558 LINE",
"563 578 LINE",
"563 611 LINE",
"359 611 LINE",
"359 578 LINE",
"424 558 LINE",
"211 324 LINE",
"211 558 LINE",
"301 578 LINE",
"301 611 LINE",
"38 611 LINE",
"38 578 LINE",
"128 558 LINE",
"128 53 LINE",
"38 33 LINE",
"38 0 LINE",
"301 0 LINE",
"301 33 LINE",
"211 53 LINE",
"211 312 LINE",
"431 0 LINE",
"574 0 LINE"
);
}
);
};
layerId = "C2E97133-8774-4C1F-A96F-338CBADF7D3D";
paths = (
{
closed = 1;
nodes = (
"574 33 LINE",
"493 53 LINE",
"291 338 LINE",
"491 558 LINE",
"563 578 LINE",
"563 611 LINE",
"359 611 LINE",
"359 578 LINE",
"424 558 LINE",
"211 324 LINE",
"211 558 LINE",
"301 578 LINE",
"301 611 LINE",
"38 611 LINE",
"38 578 LINE",
"128 558 LINE",
"128 53 LINE",
"38 33 LINE",
"38 0 LINE",
"301 0 LINE",
"301 33 LINE",
"211 53 LINE",
"211 312 LINE",
"431 0 LINE",
"574 0 LINE"
);
}
);
width = 584;
},
{
anchors = (
{
name = bottom;
position = "{297, 0}";
},
{
name = top;
position = "{297, 614}";
}
);
background = {
paths = (
{
closed = 1;
nodes = (
"613 45 LINE",
"532 73 LINE",
"344 343 LINE",
"519 549 LINE",
"587 571 LINE",
"587 614 LINE",
"382 614 LINE",
"382 569 LINE",
"437 554 LINE",
"254 347 LINE",
"254 546 LINE",
"319 568 LINE",
"319 614 LINE",
"35 614 LINE",
"35 569 LINE",
"119 546 LINE",
"119 69 LINE",
"35 45 LINE",
"35 0 LINE",
"319 0 LINE",
"319 46 LINE",
"254 68 LINE",
"254 253 LINE",
"429 0 LINE",
"613 0 LINE"
);
}
);
};
layerId = "320D1F10-23EA-4160-876F-9C954522C215";
paths = (
{
closed = 1;
nodes = (
"613 45 LINE",
"532 73 LINE",
"344 343 LINE",
"519 549 LINE",
"587 571 LINE",
"587 614 LINE",
"382 614 LINE",
"382 569 LINE",
"437 554 LINE",
"254 347 LINE",
"254 546 LINE",
"319 568 LINE",
"319 614 LINE",
"35 614 LINE",
"35 569 LINE",
"119 546 LINE",
"119 69 LINE",
"35 45 LINE",
"35 0 LINE",
"319 0 LINE",
"319 46 LINE",
"254 68 LINE",
"254 253 LINE",
"429 0 LINE",
"613 0 LINE"
);
}
);
width = 593;
}
);
unicode = 004B;
},
{
color = 11;
glyphname = Kcommaaccent;
lastChange = "2015-02-19 03:26:04 +0000";
layers = (
{
background = {
paths = (
{
closed = 1;
nodes = (
"369 -42 LINE",
"356 -28 LINE",
"286 -43 LINE",
"271 -221 LINE",
"304 -221 LINE"
);
},
{
closed = 1;
nodes = (
"574 33 LINE",
"493 53 LINE",
"291 338 LINE",
"491 558 LINE",
"563 578 LINE",
"563 611 LINE",
"359 611 LINE",
"359 578 LINE",
"424 558 LINE",
"211 324 LINE",
"211 558 LINE",
"301 578 LINE",
"301 611 LINE",
"38 611 LINE",
"38 578 LINE",
"128 558 LINE",
"128 53 LINE",
"38 33 LINE",
"38 0 LINE",
"301 0 LINE",
"301 33 LINE",
"211 53 LINE",
"211 312 LINE",
"431 0 LINE",
"574 0 LINE"
);
}
);
};
layerId = "C2E97133-8774-4C1F-A96F-338CBADF7D3D";
paths = (
{
closed = 1;
nodes = (
"369 -42 LINE",
"356 -28 LINE",
"286 -43 LINE",
"271 -221 LINE",
"304 -221 LINE"
);
},
{
closed = 1;
nodes = (
"574 33 LINE",
"493 53 LINE",
"291 338 LINE",
"491 558 LINE",
"563 578 LINE",
"563 611 LINE",
"359 611 LINE",
"359 578 LINE",
"424 558 LINE",
"211 324 LINE",
"211 558 LINE",
"301 578 LINE",
"301 611 LINE",
"38 611 LINE",
"38 578 LINE",
"128 558 LINE",
"128 53 LINE",
"38 33 LINE",
"38 0 LINE",
"301 0 LINE",
"301 33 LINE",
"211 53 LINE",
"211 312 LINE",
"431 0 LINE",
"574 0 LINE"
);
}
);
width = 584;
},
{
background = {
paths = (
{
closed = 1;
nodes = (
"613 45 LINE",
"532 73 LINE",
"344 343 LINE",
"519 549 LINE",
"587 571 LINE",
"587 614 LINE",
"382 614 LINE",
"382 569 LINE",
"437 554 LINE",
"254 347 LINE",
"254 546 LINE",
"319 568 LINE",
"319 614 LINE",
"35 614 LINE",
"35 569 LINE",
"119 546 LINE",
"119 69 LINE",
"35 45 LINE",
"35 0 LINE",
"319 0 LINE",
"319 46 LINE",
"254 68 LINE",
"254 253 LINE",
"429 0 LINE",
"613 0 LINE"
);
},
{
closed = 1;
nodes = (
"397 -48 LINE",
"372 -24 LINE",
"282 -44 LINE",
"273 -229 LINE",
"317 -236 LINE"
);
}
);
};
layerId = "320D1F10-23EA-4160-876F-9C954522C215";
paths = (
{
closed = 1;
nodes = (
"613 45 LINE",
"532 73 LINE",
"344 343 LINE",
"519 549 LINE",
"587 571 LINE",
"587 614 LINE",
"382 614 LINE",
"382 569 LINE",
"437 554 LINE",
"254 347 LINE",
"254 546 LINE",
"319 568 LINE",
"319 614 LINE",
"35 614 LINE",
"35 569 LINE",
"119 546 LINE",
"119 69 LINE",
"35 45 LINE",
"35 0 LINE",
"319 0 LINE",
"319 46 LINE",
"254 68 LINE",
"254 253 LINE",
"429 0 LINE",
"613 0 LINE"
);
},
{
closed = 1;
nodes = (
"397 -48 LINE",
"372 -24 LINE",
"282 -44 LINE",
"273 -229 LINE",
"317 -236 LINE"
);
}
);
width = 593;
}
);
unicode = 0136;
},
{
color = 11;
glyphname = L;
lastChange = "2015-02-21 01:44:39 +0000";
layers = (
{
anchors = (
{
name = bottom;
position = "{239, 0}";
},
{
name = center;
position = "{170, 306}";
},
{
name = top;
position = "{239, 611}";
},
{
name = topright;
position = "{403, 491}";
}
);
background = {
paths = (
{
closed = 1;
nodes = (
"466 147 LINE",
"428 147 LINE",
"403 56 LINE",
"211 56 LINE",
"211 558 LINE",
"301 578 LINE",
"301 611 LINE",
"38 611 LINE",
"38 578 LINE",
"128 558 LINE",
"128 53 LINE",
"38 33 LINE",
"38 0 LINE",
"466 0 LINE"
);
}
);
};
layerId = "C2E97133-8774-4C1F-A96F-338CBADF7D3D";
paths = (
{
closed = 1;
nodes = (
"466 147 LINE",
"428 147 LINE",
"403 56 LINE",
"211 56 LINE",
"211 558 LINE",
"301 578 LINE",
"301 611 LINE",
"38 611 LINE",
"38 578 LINE",
"128 558 LINE",
"128 53 LINE",
"38 33 LINE",
"38 0 LINE",
"466 0 LINE"
);
}
);
width = 478;
},
{
anchors = (
{
name = bottom;
position = "{246, 0}";
},
{
name = center;
position = "{187, 307}";
},
{
name = top;
position = "{246, 614}";
},
{
name = topright;
position = "{419, 492}";
}
);
background = {
paths = (
{
closed = 1;
nodes = (
"486 162 LINE",
"430 162 LINE",
"404 69 LINE",
"254 69 LINE",
"254 546 LINE",
"339 569 LINE",
"339 614 LINE",
"35 614 LINE",
"35 569 LINE",
"119 546 LINE",
"119 69 LINE",
"35 45 LINE",
"35 0 LINE",
"486 0 LINE"
);
}
);
};
layerId = "320D1F10-23EA-4160-876F-9C954522C215";
paths = (
{
closed = 1;
nodes = (
"486 162 LINE",
"430 162 LINE",
"404 69 LINE",
"254 69 LINE",
"254 546 LINE",
"339 569 LINE",
"339 614 LINE",
"35 614 LINE",
"35 569 LINE",
"119 546 LINE",
"119 69 LINE",
"35 45 LINE",
"35 0 LINE",
"486 0 LINE"
);
}
);
width = 491;
}
);
unicode = 004C;
},
{
color = 11;
glyphname = Lacute;
lastChange = "2015-02-19 03:26:04 +0000";
layers = (
{
background = {
paths = (
{
closed = 1;
nodes = (
"466 147 LINE",
"428 147 LINE",
"403 56 LINE",
"211 56 LINE",
"211 558 LINE",
"301 578 LINE",
"301 611 LINE",
"38 611 LINE",
"38 578 LINE",
"128 558 LINE",
"128 53 LINE",
"38 33 LINE",
"38 0 LINE",
"466 0 LINE"
);
},
{
closed = 1;
nodes = (
"324 753 LINE",
"324 771 LINE",
"248 799 LINE",
"94 669 LINE",
"110 650 LINE"
);
}
);
};
layerId = "C2E97133-8774-4C1F-A96F-338CBADF7D3D";
paths = (
{
closed = 1;
nodes = (
"466 147 LINE",
"428 147 LINE",
"403 56 LINE",
"211 56 LINE",
"211 558 LINE",
"301 578 LINE",
"301 611 LINE",
"38 611 LINE",
"38 578 LINE",
"128 558 LINE",
"128 53 LINE",
"38 33 LINE",
"38 0 LINE",
"466 0 LINE"
);
},
{
closed = 1;
nodes = (
"324 753 LINE",
"324 771 LINE",
"248 799 LINE",
"94 669 LINE",
"110 650 LINE"
);
}
);
width = 478;
},
{
background = {
paths = (
{
closed = 1;
nodes = (
"486 162 LINE",
"430 162 LINE",
"404 69 LINE",
"254 69 LINE",
"254 546 LINE",
"339 569 LINE",
"339 614 LINE",
"35 614 LINE",
"35 569 LINE",
"119 546 LINE",
"119 69 LINE",
"35 45 LINE",
"35 0 LINE",
"486 0 LINE"
);
},
{
closed = 1;
nodes = (
"333 743 LINE",
"333 766 LINE",
"234 800 LINE",
"78 669 LINE",
"105 634 LINE"
);
}
);
};
layerId = "320D1F10-23EA-4160-876F-9C954522C215";
paths = (
{
closed = 1;
nodes = (
"486 162 LINE",
"430 162 LINE",
"404 69 LINE",
"254 69 LINE",
"254 546 LINE",
"339 569 LINE",
"339 614 LINE",
"35 614 LINE",
"35 569 LINE",
"119 546 LINE",
"119 69 LINE",
"35 45 LINE",
"35 0 LINE",
"486 0 LINE"
);
},
{
closed = 1;
nodes = (
"333 743 LINE",
"333 766 LINE",
"234 800 LINE",
"78 669 LINE",
"105 634 LINE"
);
}
);
width = 491;
}
);
unicode = 0139;
},
{
color = 11;
glyphname = Lcaron;
lastChange = "2015-02-19 03:26:04 +0000";
layers = (
{
background = {
paths = (
{
closed = 1;
nodes = (
"466 147 LINE",
"428 147 LINE",
"403 56 LINE",
"211 56 LINE",
"211 558 LINE",
"301 578 LINE",
"301 611 LINE",
"38 611 LINE",
"38 578 LINE",
"128 558 LINE",
"128 53 LINE",
"38 33 LINE",
"38 0 LINE",
"466 0 LINE"
);
},
{
closed = 1;
nodes = (
"32 782 LINE",
"134 651 LINE",
"194 651 LINE",
"294 782 LINE",
"276 800 LINE",
"165 718 LINE",
"49 800 LINE"
);
}
);
};
layerId = "C2E97133-8774-4C1F-A96F-338CBADF7D3D";
paths = (
{
closed = 1;
nodes = (
"466 147 LINE",
"428 147 LINE",
"403 56 LINE",
"211 56 LINE",
"211 558 LINE",
"301 578 LINE",
"301 611 LINE",
"38 611 LINE",
"38 578 LINE",
"128 558 LINE",
"128 53 LINE",
"38 33 LINE",
"38 0 LINE",
"466 0 LINE"
);
},
{
closed = 1;
nodes = (
"32 782 LINE",
"134 651 LINE",
"194 651 LINE",
"294 782 LINE",
"276 800 LINE",
"165 718 LINE",
"49 800 LINE"
);
}
);
width = 478;
},
{
background = {
paths = (
{
closed = 1;
nodes = (
"486 162 LINE",
"430 162 LINE",
"404 69 LINE",
"254 69 LINE",
"254 546 LINE",
"339 569 LINE",
"339 614 LINE",
"35 614 LINE",
"35 569 LINE",
"119 546 LINE",
"119 69 LINE",
"35 45 LINE",
"35 0 LINE",
"486 0 LINE"
);
},
{
closed = 1;
nodes = (
"321 800 LINE",
"192 723 LINE",
"66 800 LINE",
"40 775 LINE",
"150 641 LINE",
"235 641 LINE",
"344 775 LINE"
);
}
);
};
layerId = "320D1F10-23EA-4160-876F-9C954522C215";
paths = (
{
closed = 1;
nodes = (
"486 162 LINE",
"430 162 LINE",
"404 69 LINE",
"254 69 LINE",
"254 546 LINE",
"339 569 LINE",
"339 614 LINE",
"35 614 LINE",
"35 569 LINE",
"119 546 LINE",
"119 69 LINE",
"35 45 LINE",
"35 0 LINE",
"486 0 LINE"
);
},
{
closed = 1;
nodes = (
"321 800 LINE",
"192 723 LINE",
"66 800 LINE",
"40 775 LINE",
"150 641 LINE",
"235 641 LINE",
"344 775 LINE"
);
}
);
width = 491;
}
);
unicode = 013D;
},
{
color = 11;
glyphname = Lcommaaccent;
lastChange = "2015-02-19 03:26:04 +0000";
layers = (
{
background = {
paths = (
{
closed = 1;
nodes = (
"322 -42 LINE",
"309 -28 LINE",
"239 -43 LINE",
"224 -221 LINE",
"258 -221 LINE"
);
},
{
closed = 1;
nodes = (
"466 147 LINE",
"428 147 LINE",
"403 56 LINE",
"211 56 LINE",
"211 558 LINE",
"301 578 LINE",
"301 611 LINE",
"38 611 LINE",
"38 578 LINE",
"128 558 LINE",
"128 53 LINE",
"38 33 LINE",
"38 0 LINE",
"466 0 LINE"
);
}
);
};
layerId = "C2E97133-8774-4C1F-A96F-338CBADF7D3D";
paths = (
{
closed = 1;
nodes = (
"322 -42 LINE",
"309 -28 LINE",
"239 -43 LINE",
"224 -221 LINE",
"258 -221 LINE"
);
},
{
closed = 1;
nodes = (
"466 147 LINE",
"428 147 LINE",
"403 56 LINE",
"211 56 LINE",
"211 558 LINE",
"301 578 LINE",
"301 611 LINE",
"38 611 LINE",
"38 578 LINE",
"128 558 LINE",
"128 53 LINE",
"38 33 LINE",
"38 0 LINE",
"466 0 LINE"
);
}
);
width = 478;
},
{
background = {
paths = (
{
closed = 1;
nodes = (
"486 162 LINE",
"430 162 LINE",
"404 69 LINE",
"254 69 LINE",
"254 546 LINE",
"339 569 LINE",
"339 614 LINE",
"35 614 LINE",
"35 569 LINE",
"119 546 LINE",
"119 69 LINE",
"35 45 LINE",
"35 0 LINE",
"486 0 LINE"
);
},
{
closed = 1;
nodes = (
"344 -48 LINE",
"319 -24 LINE",
"229 -44 LINE",
"220 -229 LINE",
"264 -236 LINE"
);
}
);
};
layerId = "320D1F10-23EA-4160-876F-9C954522C215";
paths = (
{
closed = 1;
nodes = (
"486 162 LINE",
"430 162 LINE",
"404 69 LINE",
"254 69 LINE",
"254 546 LINE",
"339 569 LINE",
"339 614 LINE",
"35 614 LINE",
"35 569 LINE",
"119 546 LINE",
"119 69 LINE",
"35 45 LINE",
"35 0 LINE",
"486 0 LINE"
);
},
{
closed = 1;
nodes = (
"344 -48 LINE",
"319 -24 LINE",
"229 -44 LINE",
"220 -229 LINE",
"264 -236 LINE"
);
}
);
width = 491;
}
);
unicode = 013B;
},
{
color = 11;
glyphname = Lslash;
lastChange = "2015-02-19 03:26:04 +0000";
layers = (
{
background = {
paths = (
{
closed = 1;
nodes = (
"36 255 LINE",
"58 218 LINE",
"334 373 LINE",
"310 412 LINE"
);
},
{
closed = 1;
nodes = (
"466 147 LINE",
"428 147 LINE",
"403 56 LINE",
"211 56 LINE",
"211 558 LINE",
"301 578 LINE",
"301 611 LINE",
"38 611 LINE",
"38 578 LINE",
"128 558 LINE",
"128 53 LINE",
"38 33 LINE",
"38 0 LINE",
"466 0 LINE"
);
}
);
};
layerId = "C2E97133-8774-4C1F-A96F-338CBADF7D3D";
paths = (
{
closed = 1;
nodes = (
"36 255 LINE",
"58 218 LINE",
"334 373 LINE",
"310 412 LINE"
);
},
{
closed = 1;
nodes = (
"466 147 LINE",
"428 147 LINE",
"403 56 LINE",
"211 56 LINE",
"211 558 LINE",
"301 578 LINE",
"301 611 LINE",
"38 611 LINE",
"38 578 LINE",
"128 558 LINE",
"128 53 LINE",
"38 33 LINE",
"38 0 LINE",
"466 0 LINE"
);
}
);
width = 478;
},
{
background = {
paths = (
{
closed = 1;
nodes = (
"486 162 LINE",
"430 162 LINE",
"404 69 LINE",
"254 69 LINE",
"254 310 LINE",
"370 380 LINE",
"338 436 LINE",
"254 386 LINE",
"254 546 LINE",
"339 569 LINE",
"339 614 LINE",
"35 614 LINE",
"35 569 LINE",
"119 546 LINE",
"119 305 LINE",
"28 251 LINE",
"60 195 LINE",
"119 230 LINE",
"119 69 LINE",
"35 45 LINE",
"35 0 LINE",
"486 0 LINE"
);
}
);
};
layerId = "320D1F10-23EA-4160-876F-9C954522C215";
paths = (
{
closed = 1;
nodes = (
"486 162 LINE",
"430 162 LINE",
"404 69 LINE",
"254 69 LINE",
"254 310 LINE",
"370 380 LINE",
"338 436 LINE",
"254 386 LINE",
"254 546 LINE",
"339 569 LINE",
"339 614 LINE",
"35 614 LINE",
"35 569 LINE",
"119 546 LINE",
"119 305 LINE",
"28 251 LINE",
"60 195 LINE",
"119 230 LINE",
"119 69 LINE",
"35 45 LINE",
"35 0 LINE",
"486 0 LINE"
);
}
);
width = 491;
}
);
unicode = 0141;
},
{
color = 11;
glyphname = M;
lastChange = "2015-02-19 03:26:04 +0000";
layers = (
{
anchors = (
{
name = bottom;
position = "{397, 0}";
},
{
name = top;
position = "{397, 611}";
}
);
background = {
paths = (
{
closed = 1;
nodes = (
"247 33 LINE",
"158 53 LINE",
"173 511 LINE",
"360 -10 LINE",
"410 0 LINE",
"587 508 LINE",
"603 53 LINE",
"514 33 LINE",
"514 0 LINE",
"776 0 LINE",
"776 33 LINE",
"684 53 LINE",
"665 558 LINE",
"755 578 LINE",
"755 611 LINE",
"564 611 LINE",
"399 122 LINE",
"225 611 LINE",
"40 611 LINE",
"40 578 LINE",
"120 559 LINE",
"103 53 LINE",
"22 33 LINE",
"22 0 LINE",
"247 0 LINE"
);
}
);
};
layerId = "C2E97133-8774-4C1F-A96F-338CBADF7D3D";
paths = (
{
closed = 1;
nodes = (
"247 33 LINE",
"158 53 LINE",
"173 511 LINE",
"360 -10 LINE",
"410 0 LINE",
"587 508 LINE",
"603 53 LINE",
"514 33 LINE",
"514 0 LINE",
"776 0 LINE",
"776 33 LINE",
"684 53 LINE",
"665 558 LINE",
"755 578 LINE",
"755 611 LINE",
"564 611 LINE",
"399 122 LINE",
"225 611 LINE",
"40 611 LINE",
"40 578 LINE",
"120 559 LINE",
"103 53 LINE",
"22 33 LINE",
"22 0 LINE",
"247 0 LINE"
);
}
);
width = 794;
},
{
anchors = (
{
name = bottom;
position = "{407, 0}";
},
{
name = top;
position = "{407, 614}";
}
);
background = {
paths = (
{
closed = 1;
nodes = (
"256 45 LINE",
"171 69 LINE",
"185 432 LINE",
"343 -10 LINE",
"417 0 LINE",
"565 435 LINE",
"580 69 LINE",
"496 45 LINE",
"496 0 LINE",
"792 0 LINE",
"792 45 LINE",
"707 69 LINE",
"686 546 LINE",
"771 569 LINE",
"771 614 LINE",
"555 614 LINE",
"401 146 LINE",
"245 614 LINE",
"37 614 LINE",
"37 569 LINE",
"121 546 LINE",
"103 69 LINE",
"19 45 LINE",
"19 0 LINE",
"256 0 LINE"
);
}
);
};
layerId = "320D1F10-23EA-4160-876F-9C954522C215";
paths = (
{
closed = 1;
nodes = (
"256 45 LINE",
"171 69 LINE",
"185 432 LINE",
"343 -10 LINE",
"417 0 LINE",
"565 435 LINE",
"580 69 LINE",
"496 45 LINE",
"496 0 LINE",
"792 0 LINE",
"792 45 LINE",
"707 69 LINE",
"686 546 LINE",
"771 569 LINE",
"771 614 LINE",
"555 614 LINE",
"401 146 LINE",
"245 614 LINE",
"37 614 LINE",
"37 569 LINE",
"121 546 LINE",
"103 69 LINE",
"19 45 LINE",
"19 0 LINE",
"256 0 LINE"
);
}
);
width = 814;
}
);
unicode = 004D;
},
{
color = 11;
glyphname = N;
lastChange = "2015-02-19 03:26:04 +0000";
layers = (
{
anchors = (
{
name = bottom;
position = "{346, 0}";
},
{
name = top;
position = "{346, 611}";
}
);
background = {
paths = (
{
closed = 1;
nodes = (
"444 578 LINE",
"529 559 LINE",
"529 130 LINE",
"184 611 LINE",
"36 611 LINE",
"36 578 LINE",
"116 559 LINE",
"116 53 LINE",
"36 33 LINE",
"36 0 LINE",
"260 0 LINE",
"260 33 LINE",
"174 53 LINE",
"174 488 LINE",
"523 -10 LINE",
"585 0 LINE",
"585 559 LINE",
"666 578 LINE",
"666 611 LINE",
"444 611 LINE"
);
}
);
};
layerId = "C2E97133-8774-4C1F-A96F-338CBADF7D3D";
paths = (
{
closed = 1;
nodes = (
"444 578 LINE",
"529 559 LINE",
"529 130 LINE",
"184 611 LINE",
"36 611 LINE",
"36 578 LINE",
"116 559 LINE",
"116 53 LINE",
"36 33 LINE",
"36 0 LINE",
"260 0 LINE",
"260 33 LINE",
"174 53 LINE",
"174 488 LINE",
"523 -10 LINE",
"585 0 LINE",
"585 559 LINE",
"666 578 LINE",
"666 611 LINE",
"444 611 LINE"
);
}
);
width = 692;
},
{
anchors = (
{
name = bottom;
position = "{360, 0}";
},
{
name = top;
position = "{360, 614}";
}
);
background = {
paths = (
{
closed = 1;
nodes = (
"461 569 LINE",
"546 546 LINE",
"546 163 LINE",
"241 614 LINE",
"35 614 LINE",
"35 569 LINE",
"120 546 LINE",
"120 69 LINE",
"36 45 LINE",
"36 0 LINE",
"274 0 LINE",
"274 45 LINE",
"189 69 LINE",
"189 456 LINE",
"507 -10 LINE",
"619 0 LINE",
"619 546 LINE",
"704 569 LINE",
"704 614 LINE",
"461 614 LINE"
);
}
);
};
layerId = "320D1F10-23EA-4160-876F-9C954522C215";
paths = (
{
closed = 1;
nodes = (
"461 569 LINE",
"546 546 LINE",
"546 163 LINE",
"241 614 LINE",
"35 614 LINE",
"35 569 LINE",
"120 546 LINE",
"120 69 LINE",
"36 45 LINE",
"36 0 LINE",
"274 0 LINE",
"274 45 LINE",
"189 69 LINE",
"189 456 LINE",
"507 -10 LINE",
"619 0 LINE",
"619 546 LINE",
"704 569 LINE",
"704 614 LINE",
"461 614 LINE"
);
}
);
width = 719;
}
);
unicode = 004E;
},
{
color = 11;
glyphname = Nacute;
lastChange = "2015-02-19 03:26:04 +0000";
layers = (
{
background = {
paths = (
{
closed = 1;
nodes = (
"442 578 LINE",
"527 559 LINE",
"527 130 LINE",
"182 611 LINE",
"34 611 LINE",
"34 578 LINE",
"114 559 LINE",
"114 53 LINE",
"34 33 LINE",
"34 0 LINE",
"258 0 LINE",
"258 33 LINE",
"172 53 LINE",
"172 488 LINE",
"521 -10 LINE",
"583 0 LINE",
"583 559 LINE",
"664 578 LINE",
"664 611 LINE",
"442 611 LINE"
);
},
{
closed = 1;
nodes = (
"480 753 LINE",
"480 771 LINE",
"404 799 LINE",
"250 669 LINE",
"266 650 LINE"
);
}
);
};
layerId = "C2E97133-8774-4C1F-A96F-338CBADF7D3D";
paths = (
{
closed = 1;
nodes = (
"442 578 LINE",
"527 559 LINE",
"527 130 LINE",
"182 611 LINE",
"34 611 LINE",
"34 578 LINE",
"114 559 LINE",
"114 53 LINE",
"34 33 LINE",
"34 0 LINE",
"258 0 LINE",
"258 33 LINE",
"172 53 LINE",
"172 488 LINE",
"521 -10 LINE",
"583 0 LINE",
"583 559 LINE",
"664 578 LINE",
"664 611 LINE",
"442 611 LINE"
);
},
{
closed = 1;
nodes = (
"480 753 LINE",
"480 771 LINE",
"404 799 LINE",
"250 669 LINE",
"266 650 LINE"
);
}
);
width = 694;
},
{
background = {
paths = (
{
closed = 1;
nodes = (
"461 569 LINE",
"546 546 LINE",
"546 163 LINE",
"241 614 LINE",
"35 614 LINE",
"35 569 LINE",
"120 546 LINE",
"120 69 LINE",
"36 45 LINE",
"36 0 LINE",
"274 0 LINE",
"274 45 LINE",
"189 69 LINE",
"189 456 LINE",
"507 -10 LINE",
"619 0 LINE",
"619 546 LINE",
"704 569 LINE",
"704 614 LINE",
"461 614 LINE"
);
},
{
closed = 1;
nodes = (
"526 743 LINE",
"526 766 LINE",
"427 800 LINE",
"271 669 LINE",
"298 634 LINE"
);
}
);
};
layerId = "320D1F10-23EA-4160-876F-9C954522C215";
paths = (
{
closed = 1;
nodes = (
"461 569 LINE",
"546 546 LINE",
"546 163 LINE",
"241 614 LINE",
"35 614 LINE",
"35 569 LINE",
"120 546 LINE",
"120 69 LINE",
"36 45 LINE",
"36 0 LINE",
"274 0 LINE",
"274 45 LINE",
"189 69 LINE",
"189 456 LINE",
"507 -10 LINE",
"619 0 LINE",
"619 546 LINE",
"704 569 LINE",
"704 614 LINE",
"461 614 LINE"
);
},
{
closed = 1;
nodes = (
"526 743 LINE",
"526 766 LINE",
"427 800 LINE",
"271 669 LINE",
"298 634 LINE"
);
}
);
width = 719;
}
);
unicode = 0143;
},
{
color = 11;
glyphname = Ncaron;
lastChange = "2015-02-19 03:26:04 +0000";
layers = (
{
background = {
paths = (
{
closed = 1;
nodes = (
"442 578 LINE",
"527 559 LINE",
"527 130 LINE",
"182 611 LINE",
"34 611 LINE",
"34 578 LINE",
"114 559 LINE",
"114 53 LINE",
"34 33 LINE",
"34 0 LINE",
"258 0 LINE",
"258 33 LINE",
"172 53 LINE",
"172 488 LINE",
"521 -10 LINE",
"583 0 LINE",
"583 559 LINE",
"664 578 LINE",
"664 611 LINE",
"442 611 LINE"
);
},
{
closed = 1;
nodes = (
"222 782 LINE",
"324 651 LINE",
"384 651 LINE",
"484 782 LINE",
"466 800 LINE",
"355 718 LINE",
"239 800 LINE"
);
}
);
};
layerId = "C2E97133-8774-4C1F-A96F-338CBADF7D3D";
paths = (
{
closed = 1;
nodes = (
"442 578 LINE",
"527 559 LINE",
"527 130 LINE",
"182 611 LINE",
"34 611 LINE",
"34 578 LINE",
"114 559 LINE",
"114 53 LINE",
"34 33 LINE",
"34 0 LINE",
"258 0 LINE",
"258 33 LINE",
"172 53 LINE",
"172 488 LINE",
"521 -10 LINE",
"583 0 LINE",
"583 559 LINE",
"664 578 LINE",
"664 611 LINE",
"442 611 LINE"
);
},
{
closed = 1;
nodes = (
"222 782 LINE",
"324 651 LINE",
"384 651 LINE",
"484 782 LINE",
"466 800 LINE",
"355 718 LINE",
"239 800 LINE"
);
}
);
width = 694;
},
{
background = {
paths = (
{
closed = 1;
nodes = (
"461 569 LINE",
"546 546 LINE",
"546 163 LINE",
"241 614 LINE",
"35 614 LINE",
"35 569 LINE",
"120 546 LINE",
"120 69 LINE",
"36 45 LINE",
"36 0 LINE",
"274 0 LINE",
"274 45 LINE",
"189 69 LINE",
"189 456 LINE",
"507 -10 LINE",
"619 0 LINE",
"619 546 LINE",
"704 569 LINE",
"704 614 LINE",
"461 614 LINE"
);
},
{
closed = 1;
nodes = (
"498 800 LINE",
"369 723 LINE",
"243 800 LINE",
"217 775 LINE",
"327 641 LINE",
"412 641 LINE",
"521 775 LINE"
);
}
);
};
layerId = "320D1F10-23EA-4160-876F-9C954522C215";
paths = (
{
closed = 1;
nodes = (
"461 569 LINE",
"546 546 LINE",
"546 163 LINE",
"241 614 LINE",
"35 614 LINE",
"35 569 LINE",
"120 546 LINE",
"120 69 LINE",
"36 45 LINE",
"36 0 LINE",
"274 0 LINE",
"274 45 LINE",
"189 69 LINE",
"189 456 LINE",
"507 -10 LINE",
"619 0 LINE",
"619 546 LINE",
"704 569 LINE",
"704 614 LINE",
"461 614 LINE"
);
},
{
closed = 1;
nodes = (
"498 800 LINE",
"369 723 LINE",
"243 800 LINE",
"217 775 LINE",
"327 641 LINE",
"412 641 LINE",
"521 775 LINE"
);
}
);
width = 719;
}
);
unicode = 0147;
},
{
color = 11;
glyphname = Ncommaaccent;
lastChange = "2015-02-19 03:26:04 +0000";
layers = (
{
background = {
paths = (
{
closed = 1;
nodes = (
"407 -42 LINE",
"393 -28 LINE",
"323 -43 LINE",
"309 -221 LINE",
"342 -221 LINE"
);
},
{
closed = 1;
nodes = (
"442 578 LINE",
"527 559 LINE",
"527 130 LINE",
"182 611 LINE",
"34 611 LINE",
"34 578 LINE",
"114 559 LINE",
"114 53 LINE",
"34 33 LINE",
"34 0 LINE",
"258 0 LINE",
"258 33 LINE",
"172 53 LINE",
"172 488 LINE",
"521 -10 LINE",
"583 0 LINE",
"583 559 LINE",
"664 578 LINE",
"664 611 LINE",
"442 611 LINE"
);
}
);
};
layerId = "C2E97133-8774-4C1F-A96F-338CBADF7D3D";
paths = (
{
closed = 1;
nodes = (
"407 -42 LINE",
"393 -28 LINE",
"323 -43 LINE",
"309 -221 LINE",
"342 -221 LINE"
);
},
{
closed = 1;
nodes = (
"442 578 LINE",
"527 559 LINE",
"527 130 LINE",
"182 611 LINE",
"34 611 LINE",
"34 578 LINE",
"114 559 LINE",
"114 53 LINE",
"34 33 LINE",
"34 0 LINE",
"258 0 LINE",
"258 33 LINE",
"172 53 LINE",
"172 488 LINE",
"521 -10 LINE",
"583 0 LINE",
"583 559 LINE",
"664 578 LINE",
"664 611 LINE",
"442 611 LINE"
);
}
);
width = 694;
},
{
background = {
paths = (
{
closed = 1;
nodes = (
"461 569 LINE",
"546 546 LINE",
"546 163 LINE",
"241 614 LINE",
"35 614 LINE",
"35 569 LINE",
"120 546 LINE",
"120 69 LINE",
"36 45 LINE",
"36 0 LINE",
"274 0 LINE",
"274 45 LINE",
"189 69 LINE",
"189 456 LINE",
"507 -10 LINE",
"619 0 LINE",
"619 546 LINE",
"704 569 LINE",
"704 614 LINE",
"461 614 LINE"
);
},
{
closed = 1;
nodes = (
"437 -48 LINE",
"412 -24 LINE",
"322 -44 LINE",
"313 -229 LINE",
"357 -236 LINE"
);
}
);
};
layerId = "320D1F10-23EA-4160-876F-9C954522C215";
paths = (
{
closed = 1;
nodes = (
"461 569 LINE",
"546 546 LINE",
"546 163 LINE",
"241 614 LINE",
"35 614 LINE",
"35 569 LINE",
"120 546 LINE",
"120 69 LINE",
"36 45 LINE",
"36 0 LINE",
"274 0 LINE",
"274 45 LINE",
"189 69 LINE",
"189 456 LINE",
"507 -10 LINE",
"619 0 LINE",
"619 546 LINE",
"704 569 LINE",
"704 614 LINE",
"461 614 LINE"
);
},
{
closed = 1;
nodes = (
"437 -48 LINE",
"412 -24 LINE",
"322 -44 LINE",
"313 -229 LINE",
"357 -236 LINE"
);
}
);
width = 719;
}
);
unicode = 0145;
},
{
color = 0;
glyphname = Eng;
lastChange = "2015-02-18 19:19:47 +0000";
layers = (
{
background = {
paths = (
{
closed = 1;
nodes = (
"537 -167 OFFCURVE",
"585 -113 OFFCURVE",
"585 57 CURVE SMOOTH",
"585 559 LINE",
"666 578 LINE",
"666 611 LINE",
"444 611 LINE",
"444 578 LINE",
"529 559 LINE",
"529 130 LINE",
"184 611 LINE",
"36 611 LINE",
"36 578 LINE",
"116 559 LINE",
"116 53 LINE",
"36 33 LINE",
"36 0 LINE",
"260 0 LINE",
"260 33 LINE",
"174 53 LINE",
"174 488 LINE",
"501 21 LINE",
"501 -20 LINE SMOOTH",
"501 -59 OFFCURVE",
"485 -113 OFFCURVE",
"432 -113 CURVE SMOOTH",
"386 -113 LINE",
"381 -144 LINE",
"414 -161 OFFCURVE",
"446 -167 OFFCURVE",
"462 -167 CURVE SMOOTH"
);
}
);
};
layerId = "C2E97133-8774-4C1F-A96F-338CBADF7D3D";
paths = (
{
closed = 1;
nodes = (
"537 -167 OFFCURVE",
"585 -113 OFFCURVE",
"585 57 CURVE SMOOTH",
"585 559 LINE",
"666 578 LINE",
"666 611 LINE",
"444 611 LINE",
"444 578 LINE",
"529 559 LINE",
"529 130 LINE",
"184 611 LINE",
"36 611 LINE",
"36 578 LINE",
"116 559 LINE",
"116 53 LINE",
"36 33 LINE",
"36 0 LINE",
"260 0 LINE",
"260 33 LINE",
"174 53 LINE",
"174 488 LINE",
"501 21 LINE",
"501 -20 LINE SMOOTH",
"501 -59 OFFCURVE",
"485 -113 OFFCURVE",
"432 -113 CURVE SMOOTH",
"386 -113 LINE",
"381 -144 LINE",
"414 -161 OFFCURVE",
"446 -167 OFFCURVE",
"462 -167 CURVE SMOOTH"
);
}
);
width = 692;
},
{
background = {
paths = (
{
closed = 1;
nodes = (
"541 -168 OFFCURVE",
"619 -114 OFFCURVE",
"619 56 CURVE SMOOTH",
"619 546 LINE",
"704 569 LINE",
"704 614 LINE",
"461 614 LINE",
"461 569 LINE",
"546 546 LINE",
"546 163 LINE",
"241 614 LINE",
"35 614 LINE",
"35 569 LINE",
"120 546 LINE",
"120 69 LINE",
"36 45 LINE",
"36 0 LINE",
"274 0 LINE",
"274 45 LINE",
"189 69 LINE",
"189 456 LINE",
"484 24 LINE",
"484 -19 LINE SMOOTH",
"484 -52 OFFCURVE",
"464 -92 OFFCURVE",
"411 -92 CURVE SMOOTH",
"366 -92 LINE",
"360 -139 LINE",
"402 -159 OFFCURVE",
"447 -168 OFFCURVE",
"470 -168 CURVE SMOOTH"
);
}
);
};
layerId = "320D1F10-23EA-4160-876F-9C954522C215";
paths = (
{
closed = 1;
nodes = (
"541 -168 OFFCURVE",
"619 -114 OFFCURVE",
"619 56 CURVE SMOOTH",
"619 546 LINE",
"704 569 LINE",
"704 614 LINE",
"461 614 LINE",
"461 569 LINE",
"546 546 LINE",
"546 163 LINE",
"241 614 LINE",
"35 614 LINE",
"35 569 LINE",
"120 546 LINE",
"120 69 LINE",
"36 45 LINE",
"36 0 LINE",
"274 0 LINE",
"274 45 LINE",
"189 69 LINE",
"189 456 LINE",
"484 24 LINE",
"484 -19 LINE SMOOTH",
"484 -52 OFFCURVE",
"464 -92 OFFCURVE",
"411 -92 CURVE SMOOTH",
"366 -92 LINE",
"360 -139 LINE",
"402 -159 OFFCURVE",
"447 -168 OFFCURVE",
"470 -168 CURVE SMOOTH"
);
}
);
width = 719;
}
);
unicode = 014A;
},
{
color = 0;
glyphname = Nhookleft;
lastChange = "2015-02-19 21:17:56 +0000";
layers = (
{
anchors = (
{
name = bottom;
position = "{346, 0}";
},
{
name = top;
position = "{346, 611}";
}
);
background = {
anchors = (
{
name = bottom;
position = "{291, 0}";
},
{
name = top;
position = "{149, 491}";
}
);
paths = (
{
closed = 1;
nodes = (
"116 430 LINE",
"116 -20 LINE SMOOTH",
"116 -59 OFFCURVE",
"100 -113 OFFCURVE",
"47 -113 CURVE SMOOTH",
"1 -113 LINE",
"-4 -144 LINE",
"29 -161 OFFCURVE",
"60 -167 OFFCURVE",
"80 -167 CURVE SMOOTH",
"132 -167 OFFCURVE",
"174 -127 OFFCURVE",
"174 -3 CURVE SMOOTH",
"174 500 LINE",
"147 500 LINE"
);
}
);
};
layerId = "C2E97133-8774-4C1F-A96F-338CBADF7D3D";
paths = (
{
closed = 1;
nodes = (
"444 578 LINE",
"529 559 LINE",
"529 130 LINE",
"184 611 LINE",
"36 611 LINE",
"36 578 LINE",
"116 559 LINE",
"116 -20 LINE SMOOTH",
"116 -59 OFFCURVE",
"100 -113 OFFCURVE",
"47 -113 CURVE SMOOTH",
"1 -113 LINE",
"-4 -144 LINE",
"29 -161 OFFCURVE",
"60 -167 OFFCURVE",
"80 -167 CURVE SMOOTH",
"132 -167 OFFCURVE",
"174 -125 OFFCURVE",
"174 7 CURVE SMOOTH",
"174 488 LINE",
"523 -10 LINE",
"585 0 LINE",
"585 559 LINE",
"666 578 LINE",
"666 611 LINE",
"444 611 LINE"
);
}
);
width = 692;
},
{
anchors = (
{
name = bottom;
position = "{360, 0}";
},
{
name = top;
position = "{360, 614}";
}
);
background = {
anchors = (
{
name = bottom;
position = "{326, 0}";
},
{
name = top;
position = "{165, 492}";
}
);
paths = (
{
closed = 1;
nodes = (
"120 404 LINE",
"120 -19 LINE SMOOTH",
"120 -52 OFFCURVE",
"100 -92 OFFCURVE",
"47 -92 CURVE SMOOTH",
"2 -92 LINE",
"-4 -139 LINE",
"30 -159 OFFCURVE",
"66 -168 OFFCURVE",
"88 -168 CURVE SMOOTH",
"134 -168 OFFCURVE",
"189 -126 OFFCURVE",
"189 6 CURVE SMOOTH",
"189 404 LINE"
);
}
);
};
layerId = "320D1F10-23EA-4160-876F-9C954522C215";
paths = (
{
closed = 1;
nodes = (
"461 569 LINE",
"546 546 LINE",
"546 163 LINE",
"241 614 LINE",
"35 614 LINE",
"35 569 LINE",
"120 546 LINE",
"120 -19 LINE SMOOTH",
"120 -52 OFFCURVE",
"100 -92 OFFCURVE",
"47 -92 CURVE SMOOTH",
"2 -92 LINE",
"-4 -139 LINE",
"30 -159 OFFCURVE",
"66 -168 OFFCURVE",
"88 -168 CURVE SMOOTH",
"134 -168 OFFCURVE",
"189 -126 OFFCURVE",
"189 6 CURVE SMOOTH",
"189 456 LINE",
"507 -10 LINE",
"619 0 LINE",
"619 546 LINE",
"704 569 LINE",
"704 614 LINE",
"461 614 LINE"
);
}
);
width = 719;
}
);
unicode = 019D;
},
{
color = 11;
glyphname = Ntilde;
lastChange = "2015-02-19 03:26:04 +0000";
layers = (
{
background = {
paths = (
{
closed = 1;
nodes = (
"442 578 LINE",
"527 559 LINE",
"527 130 LINE",
"182 611 LINE",
"34 611 LINE",
"34 578 LINE",
"114 559 LINE",
"114 53 LINE",
"34 33 LINE",
"34 0 LINE",
"258 0 LINE",
"258 33 LINE",
"172 53 LINE",
"172 488 LINE",
"521 -10 LINE",
"583 0 LINE",
"583 559 LINE",
"664 578 LINE",
"664 611 LINE",
"442 611 LINE"
);
},
{
closed = 1;
nodes = (
"470 774 LINE",
"470 774 OFFCURVE",
"450 739 OFFCURVE",
"427 739 CURVE SMOOTH",
"392 739 OFFCURVE",
"319 779 OFFCURVE",
"285 779 CURVE SMOOTH",
"252 779 OFFCURVE",
"232 737 OFFCURVE",
"211 685 CURVE",
"241 673 LINE",
"241 673 OFFCURVE",
"264 709 OFFCURVE",
"286 709 CURVE SMOOTH",
"319 709 OFFCURVE",
"394 669 OFFCURVE",
"428 669 CURVE SMOOTH",
"460 669 OFFCURVE",
"480 711 OFFCURVE",
"501 762 CURVE"
);
}
);
};
layerId = "C2E97133-8774-4C1F-A96F-338CBADF7D3D";
paths = (
{
closed = 1;
nodes = (
"442 578 LINE",
"527 559 LINE",
"527 130 LINE",
"182 611 LINE",
"34 611 LINE",
"34 578 LINE",
"114 559 LINE",
"114 53 LINE",
"34 33 LINE",
"34 0 LINE",
"258 0 LINE",
"258 33 LINE",
"172 53 LINE",
"172 488 LINE",
"521 -10 LINE",
"583 0 LINE",
"583 559 LINE",
"664 578 LINE",
"664 611 LINE",
"442 611 LINE"
);
},
{
closed = 1;
nodes = (
"470 774 LINE",
"470 774 OFFCURVE",
"450 739 OFFCURVE",
"427 739 CURVE SMOOTH",
"392 739 OFFCURVE",
"319 779 OFFCURVE",
"285 779 CURVE SMOOTH",
"252 779 OFFCURVE",
"232 737 OFFCURVE",
"211 685 CURVE",
"241 673 LINE",
"241 673 OFFCURVE",
"264 709 OFFCURVE",
"286 709 CURVE SMOOTH",
"319 709 OFFCURVE",
"394 669 OFFCURVE",
"428 669 CURVE SMOOTH",
"460 669 OFFCURVE",
"480 711 OFFCURVE",
"501 762 CURVE"
);
}
);
width = 694;
},
{
background = {
paths = (
{
closed = 1;
nodes = (
"461 569 LINE",
"546 546 LINE",
"546 163 LINE",
"241 614 LINE",
"35 614 LINE",
"35 569 LINE",
"120 546 LINE",
"120 69 LINE",
"36 45 LINE",
"36 0 LINE",
"274 0 LINE",
"274 45 LINE",
"189 69 LINE",
"189 456 LINE",
"507 -10 LINE",
"619 0 LINE",
"619 546 LINE",
"704 569 LINE",
"704 614 LINE",
"461 614 LINE"
);
},
{
closed = 1;
nodes = (
"503 784 LINE",
"503 784 OFFCURVE",
"486 753 OFFCURVE",
"461 753 CURVE SMOOTH",
"422 753 OFFCURVE",
"334 790 OFFCURVE",
"285 790 CURVE SMOOTH",
"252 790 OFFCURVE",
"218 744 OFFCURVE",
"198 686 CURVE",
"245 667 LINE",
"245 667 OFFCURVE",
"261 698 OFFCURVE",
"285 698 CURVE SMOOTH",
"323 698 OFFCURVE",
"412 661 OFFCURVE",
"461 661 CURVE SMOOTH",
"495 661 OFFCURVE",
"523 707 OFFCURVE",
"547 765 CURVE"
);
}
);
};
layerId = "320D1F10-23EA-4160-876F-9C954522C215";
paths = (
{
closed = 1;
nodes = (
"461 569 LINE",
"546 546 LINE",
"546 163 LINE",
"241 614 LINE",
"35 614 LINE",
"35 569 LINE",
"120 546 LINE",
"120 69 LINE",
"36 45 LINE",
"36 0 LINE",
"274 0 LINE",
"274 45 LINE",
"189 69 LINE",
"189 456 LINE",
"507 -10 LINE",
"619 0 LINE",
"619 546 LINE",
"704 569 LINE",
"704 614 LINE",
"461 614 LINE"
);
},
{
closed = 1;
nodes = (
"503 784 LINE",
"503 784 OFFCURVE",
"486 753 OFFCURVE",
"461 753 CURVE SMOOTH",
"422 753 OFFCURVE",
"334 790 OFFCURVE",
"285 790 CURVE SMOOTH",
"252 790 OFFCURVE",
"218 744 OFFCURVE",
"198 686 CURVE",
"245 667 LINE",
"245 667 OFFCURVE",
"261 698 OFFCURVE",
"285 698 CURVE SMOOTH",
"323 698 OFFCURVE",
"412 661 OFFCURVE",
"461 661 CURVE SMOOTH",
"495 661 OFFCURVE",
"523 707 OFFCURVE",
"547 765 CURVE"
);
}
);
width = 719;
}
);
unicode = 00D1;
},
{
color = 11;
glyphname = O;
lastChange = "2015-02-19 03:26:04 +0000";
layers = (
{
anchors = (
{
name = bottom;
position = "{329, 0}";
},
{
name = center;
position = "{329, 306}";
},
{
name = top;
position = "{329, 611}";
},
{
name = topright;
position = "{598, 651}";
}
);
background = {
paths = (
{
closed = 1;
nodes = (
"122 626 OFFCURVE",
"41 482 OFFCURVE",
"41 308 CURVE SMOOTH",
"41 134 OFFCURVE",
"124 -9 OFFCURVE",
"330 -9 CURVE SMOOTH",
"536 -9 OFFCURVE",
"617 134 OFFCURVE",
"617 308 CURVE SMOOTH",
"617 482 OFFCURVE",
"538 626 OFFCURVE",
"330 626 CURVE SMOOTH"
);
},
{
closed = 1;
nodes = (
"527 197 OFFCURVE",
"497 39 OFFCURVE",
"333 39 CURVE SMOOTH",
"167 39 OFFCURVE",
"131 197 OFFCURVE",
"131 308 CURVE SMOOTH",
"131 421 OFFCURVE",
"163 578 OFFCURVE",
"324 578 CURVE SMOOTH",
"491 578 OFFCURVE",
"527 421 OFFCURVE",
"527 308 CURVE SMOOTH"
);
}
);
};
layerId = "C2E97133-8774-4C1F-A96F-338CBADF7D3D";
paths = (
{
closed = 1;
nodes = (
"122 626 OFFCURVE",
"41 482 OFFCURVE",
"41 308 CURVE SMOOTH",
"41 134 OFFCURVE",
"124 -9 OFFCURVE",
"330 -9 CURVE SMOOTH",
"536 -9 OFFCURVE",
"617 134 OFFCURVE",
"617 308 CURVE SMOOTH",
"617 482 OFFCURVE",
"538 626 OFFCURVE",
"330 626 CURVE SMOOTH"
);
},
{
closed = 1;
nodes = (
"527 197 OFFCURVE",
"497 39 OFFCURVE",
"333 39 CURVE SMOOTH",
"167 39 OFFCURVE",
"131 197 OFFCURVE",
"131 308 CURVE SMOOTH",
"131 421 OFFCURVE",
"163 578 OFFCURVE",
"324 578 CURVE SMOOTH",
"491 578 OFFCURVE",
"527 421 OFFCURVE",
"527 308 CURVE SMOOTH"
);
}
);
width = 658;
},
{
anchors = (
{
name = bottom;
position = "{332, 0}";
},
{
name = center;
position = "{332, 307}";
},
{
name = top;
position = "{332, 614}";
},
{
name = topright;
position = "{611, 654}";
}
);
background = {
paths = (
{
closed = 1;
nodes = (
"117 628 OFFCURVE",
"30 484 OFFCURVE",
"30 311 CURVE SMOOTH",
"30 136 OFFCURVE",
"120 -9 OFFCURVE",
"333 -9 CURVE SMOOTH",
"549 -9 OFFCURVE",
"633 136 OFFCURVE",
"633 311 CURVE SMOOTH",
"633 484 OFFCURVE",
"551 628 OFFCURVE",
"333 628 CURVE SMOOTH"
);
},
{
closed = 1;
nodes = (
"488 207 OFFCURVE",
"471 62 OFFCURVE",
"337 62 CURVE SMOOTH",
"198 62 OFFCURVE",
"175 201 OFFCURVE",
"175 311 CURVE SMOOTH",
"175 412 OFFCURVE",
"194 558 OFFCURVE",
"327 558 CURVE SMOOTH",
"466 558 OFFCURVE",
"488 412 OFFCURVE",
"488 311 CURVE SMOOTH"
);
}
);
};
layerId = "320D1F10-23EA-4160-876F-9C954522C215";
paths = (
{
closed = 1;
nodes = (
"117 628 OFFCURVE",
"30 484 OFFCURVE",
"30 311 CURVE SMOOTH",
"30 136 OFFCURVE",
"120 -9 OFFCURVE",
"333 -9 CURVE SMOOTH",
"549 -9 OFFCURVE",
"633 136 OFFCURVE",
"633 311 CURVE SMOOTH",
"633 484 OFFCURVE",
"551 628 OFFCURVE",
"333 628 CURVE SMOOTH"
);
},
{
closed = 1;
nodes = (
"488 207 OFFCURVE",
"471 62 OFFCURVE",
"337 62 CURVE SMOOTH",
"198 62 OFFCURVE",
"175 201 OFFCURVE",
"175 311 CURVE SMOOTH",
"175 412 OFFCURVE",
"194 558 OFFCURVE",
"327 558 CURVE SMOOTH",
"466 558 OFFCURVE",
"488 412 OFFCURVE",
"488 311 CURVE SMOOTH"
);
}
);
width = 663;
}
);
leftKerningGroup = O;
rightKerningGroup = O;
unicode = 004F;
},
{
color = 11;
glyphname = Oacute;
lastChange = "2015-02-21 01:21:02 +0000";
layers = (
{
background = {
paths = (
{
closed = 1;
nodes = (
"122 626 OFFCURVE",
"41 482 OFFCURVE",
"41 308 CURVE SMOOTH",
"41 134 OFFCURVE",
"124 -9 OFFCURVE",
"330 -9 CURVE SMOOTH",
"536 -9 OFFCURVE",
"617 134 OFFCURVE",
"617 308 CURVE SMOOTH",
"617 482 OFFCURVE",
"538 626 OFFCURVE",
"330 626 CURVE SMOOTH"
);
},
{
closed = 1;
nodes = (
"527 197 OFFCURVE",
"497 39 OFFCURVE",
"333 39 CURVE SMOOTH",
"167 39 OFFCURVE",
"131 197 OFFCURVE",
"131 308 CURVE SMOOTH",
"131 421 OFFCURVE",
"163 578 OFFCURVE",
"324 578 CURVE SMOOTH",
"491 578 OFFCURVE",
"527 421 OFFCURVE",
"527 308 CURVE SMOOTH"
);
},
{
closed = 1;
nodes = (
"467 753 LINE",
"467 771 LINE",
"391 799 LINE",
"237 669 LINE",
"253 650 LINE"
);
}
);
};
components = (
{
name = O;
},
{
anchor = top;
name = acute.case;
transform = "{1, 0, 0, 1, 255, 0}";
}
);
layerId = "C2E97133-8774-4C1F-A96F-338CBADF7D3D";
width = 658;
},
{
background = {
paths = (
{
closed = 1;
nodes = (
"117 628 OFFCURVE",
"30 484 OFFCURVE",
"30 311 CURVE SMOOTH",
"30 136 OFFCURVE",
"120 -9 OFFCURVE",
"333 -9 CURVE SMOOTH",
"549 -9 OFFCURVE",
"633 136 OFFCURVE",
"633 311 CURVE SMOOTH",
"633 484 OFFCURVE",
"551 628 OFFCURVE",
"333 628 CURVE SMOOTH"
);
},
{
closed = 1;
nodes = (
"488 207 OFFCURVE",
"471 62 OFFCURVE",
"337 62 CURVE SMOOTH",
"198 62 OFFCURVE",
"175 201 OFFCURVE",
"175 311 CURVE SMOOTH",
"175 412 OFFCURVE",
"194 558 OFFCURVE",
"327 558 CURVE SMOOTH",
"466 558 OFFCURVE",
"488 412 OFFCURVE",
"488 311 CURVE SMOOTH"
);
},
{
closed = 1;
nodes = (
"492 743 LINE",
"492 766 LINE",
"393 800 LINE",
"237 669 LINE",
"264 634 LINE"
);
}
);
};
components = (
{
name = O;
},
{
anchor = top;
name = acute.case;
transform = "{1, 0, 0, 1, 267, 0}";
}
);
layerId = "320D1F10-23EA-4160-876F-9C954522C215";
width = 663;
}
);
leftKerningGroup = O;
rightKerningGroup = O;
unicode = 00D3;
},
{
color = 11;
glyphname = Ocircumflex;
lastChange = "2015-02-19 03:26:04 +0000";
layers = (
{
background = {
paths = (
{
closed = 1;
nodes = (
"122 626 OFFCURVE",
"41 482 OFFCURVE",
"41 308 CURVE SMOOTH",
"41 134 OFFCURVE",
"124 -9 OFFCURVE",
"330 -9 CURVE SMOOTH",
"536 -9 OFFCURVE",
"617 134 OFFCURVE",
"617 308 CURVE SMOOTH",
"617 482 OFFCURVE",
"538 626 OFFCURVE",
"330 626 CURVE SMOOTH"
);
},
{
closed = 1;
nodes = (
"527 197 OFFCURVE",
"497 39 OFFCURVE",
"333 39 CURVE SMOOTH",
"167 39 OFFCURVE",
"131 197 OFFCURVE",
"131 308 CURVE SMOOTH",
"131 421 OFFCURVE",
"163 578 OFFCURVE",
"324 578 CURVE SMOOTH",
"491 578 OFFCURVE",
"527 421 OFFCURVE",
"527 308 CURVE SMOOTH"
);
},
{
closed = 1;
nodes = (
"461 669 LINE",
"359 800 LINE",
"299 800 LINE",
"199 669 LINE",
"216 651 LINE",
"327 733 LINE",
"443 651 LINE"
);
}
);
};
layerId = "C2E97133-8774-4C1F-A96F-338CBADF7D3D";
paths = (
{
closed = 1;
nodes = (
"122 626 OFFCURVE",
"41 482 OFFCURVE",
"41 308 CURVE SMOOTH",
"41 134 OFFCURVE",
"124 -9 OFFCURVE",
"330 -9 CURVE SMOOTH",
"536 -9 OFFCURVE",
"617 134 OFFCURVE",
"617 308 CURVE SMOOTH",
"617 482 OFFCURVE",
"538 626 OFFCURVE",
"330 626 CURVE SMOOTH"
);
},
{
closed = 1;
nodes = (
"527 197 OFFCURVE",
"497 39 OFFCURVE",
"333 39 CURVE SMOOTH",
"167 39 OFFCURVE",
"131 197 OFFCURVE",
"131 308 CURVE SMOOTH",
"131 421 OFFCURVE",
"163 578 OFFCURVE",
"324 578 CURVE SMOOTH",
"491 578 OFFCURVE",
"527 421 OFFCURVE",
"527 308 CURVE SMOOTH"
);
},
{
closed = 1;
nodes = (
"461 669 LINE",
"359 800 LINE",
"299 800 LINE",
"199 669 LINE",
"216 651 LINE",
"327 733 LINE",
"443 651 LINE"
);
}
);
width = 658;
},
{
background = {
paths = (
{
closed = 1;
nodes = (
"117 628 OFFCURVE",
"30 484 OFFCURVE",
"30 311 CURVE SMOOTH",
"30 136 OFFCURVE",
"120 -9 OFFCURVE",
"333 -9 CURVE SMOOTH",
"549 -9 OFFCURVE",
"633 136 OFFCURVE",
"633 311 CURVE SMOOTH",
"633 484 OFFCURVE",
"551 628 OFFCURVE",
"333 628 CURVE SMOOTH"
);
},
{
closed = 1;
nodes = (
"488 207 OFFCURVE",
"471 62 OFFCURVE",
"337 62 CURVE SMOOTH",
"198 62 OFFCURVE",
"175 201 OFFCURVE",
"175 311 CURVE SMOOTH",
"175 412 OFFCURVE",
"194 558 OFFCURVE",
"327 558 CURVE SMOOTH",
"466 558 OFFCURVE",
"488 412 OFFCURVE",
"488 311 CURVE SMOOTH"
);
},
{
closed = 1;
nodes = (
"483 665 LINE",
"374 800 LINE",
"289 800 LINE",
"179 665 LINE",
"205 640 LINE",
"331 717 LINE",
"460 640 LINE"
);
}
);
};
layerId = "320D1F10-23EA-4160-876F-9C954522C215";
paths = (
{
closed = 1;
nodes = (
"117 628 OFFCURVE",
"30 484 OFFCURVE",
"30 311 CURVE SMOOTH",
"30 136 OFFCURVE",
"120 -9 OFFCURVE",
"333 -9 CURVE SMOOTH",
"549 -9 OFFCURVE",
"633 136 OFFCURVE",
"633 311 CURVE SMOOTH",
"633 484 OFFCURVE",
"551 628 OFFCURVE",
"333 628 CURVE SMOOTH"
);
},
{
closed = 1;
nodes = (
"488 207 OFFCURVE",
"471 62 OFFCURVE",
"337 62 CURVE SMOOTH",
"198 62 OFFCURVE",
"175 201 OFFCURVE",
"175 311 CURVE SMOOTH",
"175 412 OFFCURVE",
"194 558 OFFCURVE",
"327 558 CURVE SMOOTH",
"466 558 OFFCURVE",
"488 412 OFFCURVE",
"488 311 CURVE SMOOTH"
);
},
{
closed = 1;
nodes = (
"483 665 LINE",
"374 800 LINE",
"289 800 LINE",
"179 665 LINE",
"205 640 LINE",
"331 717 LINE",
"460 640 LINE"
);
}
);
width = 663;
}
);
leftKerningGroup = O;
rightKerningGroup = O;
unicode = 00D4;
},
{
color = 11;
glyphname = Odieresis;
lastChange = "2015-02-19 03:26:04 +0000";
layers = (
{
background = {
paths = (
{
closed = 1;
nodes = (
"122 626 OFFCURVE",
"41 482 OFFCURVE",
"41 308 CURVE SMOOTH",
"41 134 OFFCURVE",
"124 -9 OFFCURVE",
"330 -9 CURVE SMOOTH",
"536 -9 OFFCURVE",
"617 134 OFFCURVE",
"617 308 CURVE SMOOTH",
"617 482 OFFCURVE",
"538 626 OFFCURVE",
"330 626 CURVE SMOOTH"
);
},
{
closed = 1;
nodes = (
"527 197 OFFCURVE",
"497 39 OFFCURVE",
"333 39 CURVE SMOOTH",
"167 39 OFFCURVE",
"131 197 OFFCURVE",
"131 308 CURVE SMOOTH",
"131 421 OFFCURVE",
"163 578 OFFCURVE",
"324 578 CURVE SMOOTH",
"491 578 OFFCURVE",
"527 421 OFFCURVE",
"527 308 CURVE SMOOTH"
);
},
{
closed = 1;
nodes = (
"289 755 OFFCURVE",
"262 781 OFFCURVE",
"232 781 CURVE SMOOTH",
"202 781 OFFCURVE",
"175 755 OFFCURVE",
"175 723 CURVE SMOOTH",
"175 693 OFFCURVE",
"202 668 OFFCURVE",
"232 668 CURVE SMOOTH",
"262 668 OFFCURVE",
"289 693 OFFCURVE",
"289 723 CURVE SMOOTH"
);
},
{
closed = 1;
nodes = (
"484 755 OFFCURVE",
"456 781 OFFCURVE",
"426 781 CURVE SMOOTH",
"396 781 OFFCURVE",
"369 755 OFFCURVE",
"369 723 CURVE SMOOTH",
"369 693 OFFCURVE",
"396 668 OFFCURVE",
"426 668 CURVE SMOOTH",
"456 668 OFFCURVE",
"484 693 OFFCURVE",
"484 723 CURVE SMOOTH"
);
}
);
};
layerId = "C2E97133-8774-4C1F-A96F-338CBADF7D3D";
paths = (
{
closed = 1;
nodes = (
"122 626 OFFCURVE",
"41 482 OFFCURVE",
"41 308 CURVE SMOOTH",
"41 134 OFFCURVE",
"124 -9 OFFCURVE",
"330 -9 CURVE SMOOTH",
"536 -9 OFFCURVE",
"617 134 OFFCURVE",
"617 308 CURVE SMOOTH",
"617 482 OFFCURVE",
"538 626 OFFCURVE",
"330 626 CURVE SMOOTH"
);
},
{
closed = 1;
nodes = (
"527 197 OFFCURVE",
"497 39 OFFCURVE",
"333 39 CURVE SMOOTH",
"167 39 OFFCURVE",
"131 197 OFFCURVE",
"131 308 CURVE SMOOTH",
"131 421 OFFCURVE",
"163 578 OFFCURVE",
"324 578 CURVE SMOOTH",
"491 578 OFFCURVE",
"527 421 OFFCURVE",
"527 308 CURVE SMOOTH"
);
},
{
closed = 1;
nodes = (
"289 755 OFFCURVE",
"262 781 OFFCURVE",
"232 781 CURVE SMOOTH",
"202 781 OFFCURVE",
"175 755 OFFCURVE",
"175 723 CURVE SMOOTH",
"175 693 OFFCURVE",
"202 668 OFFCURVE",
"232 668 CURVE SMOOTH",
"262 668 OFFCURVE",
"289 693 OFFCURVE",
"289 723 CURVE SMOOTH"
);
},
{
closed = 1;
nodes = (
"484 755 OFFCURVE",
"456 781 OFFCURVE",
"426 781 CURVE SMOOTH",
"396 781 OFFCURVE",
"369 755 OFFCURVE",
"369 723 CURVE SMOOTH",
"369 693 OFFCURVE",
"396 668 OFFCURVE",
"426 668 CURVE SMOOTH",
"456 668 OFFCURVE",
"484 693 OFFCURVE",
"484 723 CURVE SMOOTH"
);
}
);
width = 658;
},
{
background = {
paths = (
{
closed = 1;
nodes = (
"117 628 OFFCURVE",
"30 484 OFFCURVE",
"30 311 CURVE SMOOTH",
"30 136 OFFCURVE",
"120 -9 OFFCURVE",
"333 -9 CURVE SMOOTH",
"549 -9 OFFCURVE",
"633 136 OFFCURVE",
"633 311 CURVE SMOOTH",
"633 484 OFFCURVE",
"551 628 OFFCURVE",
"333 628 CURVE SMOOTH"
);
},
{
closed = 1;
nodes = (
"488 207 OFFCURVE",
"471 62 OFFCURVE",
"337 62 CURVE SMOOTH",
"198 62 OFFCURVE",
"175 201 OFFCURVE",
"175 311 CURVE SMOOTH",
"175 412 OFFCURVE",
"194 558 OFFCURVE",
"327 558 CURVE SMOOTH",
"466 558 OFFCURVE",
"488 412 OFFCURVE",
"488 311 CURVE SMOOTH"
);
},
{
closed = 1;
nodes = (
"292 760 OFFCURVE",
"258 792 OFFCURVE",
"218 792 CURVE SMOOTH",
"177 792 OFFCURVE",
"140 760 OFFCURVE",
"140 719 CURVE SMOOTH",
"140 677 OFFCURVE",
"177 647 OFFCURVE",
"218 647 CURVE SMOOTH",
"258 647 OFFCURVE",
"292 677 OFFCURVE",
"292 719 CURVE SMOOTH"
);
},
{
closed = 1;
nodes = (
"523 760 OFFCURVE",
"488 792 OFFCURVE",
"450 792 CURVE SMOOTH",
"408 792 OFFCURVE",
"373 760 OFFCURVE",
"373 719 CURVE SMOOTH",
"373 677 OFFCURVE",
"408 647 OFFCURVE",
"450 647 CURVE SMOOTH",
"488 647 OFFCURVE",
"523 677 OFFCURVE",
"523 719 CURVE SMOOTH"
);
}
);
};
layerId = "320D1F10-23EA-4160-876F-9C954522C215";
paths = (
{
closed = 1;
nodes = (
"117 628 OFFCURVE",
"30 484 OFFCURVE",
"30 311 CURVE SMOOTH",
"30 136 OFFCURVE",
"120 -9 OFFCURVE",
"333 -9 CURVE SMOOTH",
"549 -9 OFFCURVE",
"633 136 OFFCURVE",
"633 311 CURVE SMOOTH",
"633 484 OFFCURVE",
"551 628 OFFCURVE",
"333 628 CURVE SMOOTH"
);
},
{
closed = 1;
nodes = (
"488 207 OFFCURVE",
"471 62 OFFCURVE",
"337 62 CURVE SMOOTH",
"198 62 OFFCURVE",
"175 201 OFFCURVE",
"175 311 CURVE SMOOTH",
"175 412 OFFCURVE",
"194 558 OFFCURVE",
"327 558 CURVE SMOOTH",
"466 558 OFFCURVE",
"488 412 OFFCURVE",
"488 311 CURVE SMOOTH"
);
},
{
closed = 1;
nodes = (
"292 760 OFFCURVE",
"258 792 OFFCURVE",
"218 792 CURVE SMOOTH",
"177 792 OFFCURVE",
"140 760 OFFCURVE",
"140 719 CURVE SMOOTH",
"140 677 OFFCURVE",
"177 647 OFFCURVE",
"218 647 CURVE SMOOTH",
"258 647 OFFCURVE",
"292 677 OFFCURVE",
"292 719 CURVE SMOOTH"
);
},
{
closed = 1;
nodes = (
"523 760 OFFCURVE",
"488 792 OFFCURVE",
"450 792 CURVE SMOOTH",
"408 792 OFFCURVE",
"373 760 OFFCURVE",
"373 719 CURVE SMOOTH",
"373 677 OFFCURVE",
"408 647 OFFCURVE",
"450 647 CURVE SMOOTH",
"488 647 OFFCURVE",
"523 677 OFFCURVE",
"523 719 CURVE SMOOTH"
);
}
);
width = 663;
}
);
leftKerningGroup = O;
rightKerningGroup = O;
unicode = 00D6;
},
{
color = 11;
glyphname = Ograve;
lastChange = "2015-02-19 03:26:04 +0000";
layers = (
{
background = {
paths = (
{
closed = 1;
nodes = (
"122 626 OFFCURVE",
"41 482 OFFCURVE",
"41 308 CURVE SMOOTH",
"41 134 OFFCURVE",
"124 -9 OFFCURVE",
"330 -9 CURVE SMOOTH",
"536 -9 OFFCURVE",
"617 134 OFFCURVE",
"617 308 CURVE SMOOTH",
"617 482 OFFCURVE",
"538 626 OFFCURVE",
"330 626 CURVE SMOOTH"
);
},
{
closed = 1;
nodes = (
"527 197 OFFCURVE",
"497 39 OFFCURVE",
"333 39 CURVE SMOOTH",
"167 39 OFFCURVE",
"131 197 OFFCURVE",
"131 308 CURVE SMOOTH",
"131 421 OFFCURVE",
"163 578 OFFCURVE",
"324 578 CURVE SMOOTH",
"491 578 OFFCURVE",
"527 421 OFFCURVE",
"527 308 CURVE SMOOTH"
);
},
{
closed = 1;
nodes = (
"436 669 LINE",
"283 799 LINE",
"206 771 LINE",
"206 753 LINE",
"422 650 LINE"
);
}
);
};
layerId = "C2E97133-8774-4C1F-A96F-338CBADF7D3D";
paths = (
{
closed = 1;
nodes = (
"122 626 OFFCURVE",
"41 482 OFFCURVE",
"41 308 CURVE SMOOTH",
"41 134 OFFCURVE",
"124 -9 OFFCURVE",
"330 -9 CURVE SMOOTH",
"536 -9 OFFCURVE",
"617 134 OFFCURVE",
"617 308 CURVE SMOOTH",
"617 482 OFFCURVE",
"538 626 OFFCURVE",
"330 626 CURVE SMOOTH"
);
},
{
closed = 1;
nodes = (
"527 197 OFFCURVE",
"497 39 OFFCURVE",
"333 39 CURVE SMOOTH",
"167 39 OFFCURVE",
"131 197 OFFCURVE",
"131 308 CURVE SMOOTH",
"131 421 OFFCURVE",
"163 578 OFFCURVE",
"324 578 CURVE SMOOTH",
"491 578 OFFCURVE",
"527 421 OFFCURVE",
"527 308 CURVE SMOOTH"
);
},
{
closed = 1;
nodes = (
"436 669 LINE",
"283 799 LINE",
"206 771 LINE",
"206 753 LINE",
"422 650 LINE"
);
}
);
width = 658;
},
{
background = {
paths = (
{
closed = 1;
nodes = (
"117 628 OFFCURVE",
"30 484 OFFCURVE",
"30 311 CURVE SMOOTH",
"30 136 OFFCURVE",
"120 -9 OFFCURVE",
"333 -9 CURVE SMOOTH",
"549 -9 OFFCURVE",
"633 136 OFFCURVE",
"633 311 CURVE SMOOTH",
"633 484 OFFCURVE",
"551 628 OFFCURVE",
"333 628 CURVE SMOOTH"
);
},
{
closed = 1;
nodes = (
"488 207 OFFCURVE",
"471 62 OFFCURVE",
"337 62 CURVE SMOOTH",
"198 62 OFFCURVE",
"175 201 OFFCURVE",
"175 311 CURVE SMOOTH",
"175 412 OFFCURVE",
"194 558 OFFCURVE",
"327 558 CURVE SMOOTH",
"466 558 OFFCURVE",
"488 412 OFFCURVE",
"488 311 CURVE SMOOTH"
);
},
{
closed = 1;
nodes = (
"439 669 LINE",
"285 800 LINE",
"188 766 LINE",
"184 743 LINE",
"416 634 LINE"
);
}
);
};
layerId = "320D1F10-23EA-4160-876F-9C954522C215";
paths = (
{
closed = 1;
nodes = (
"117 628 OFFCURVE",
"30 484 OFFCURVE",
"30 311 CURVE SMOOTH",
"30 136 OFFCURVE",
"120 -9 OFFCURVE",
"333 -9 CURVE SMOOTH",
"549 -9 OFFCURVE",
"633 136 OFFCURVE",
"633 311 CURVE SMOOTH",
"633 484 OFFCURVE",
"551 628 OFFCURVE",
"333 628 CURVE SMOOTH"
);
},
{
closed = 1;
nodes = (
"488 207 OFFCURVE",
"471 62 OFFCURVE",
"337 62 CURVE SMOOTH",
"198 62 OFFCURVE",
"175 201 OFFCURVE",
"175 311 CURVE SMOOTH",
"175 412 OFFCURVE",
"194 558 OFFCURVE",
"327 558 CURVE SMOOTH",
"466 558 OFFCURVE",
"488 412 OFFCURVE",
"488 311 CURVE SMOOTH"
);
},
{
closed = 1;
nodes = (
"439 669 LINE",
"285 800 LINE",
"188 766 LINE",
"184 743 LINE",
"416 634 LINE"
);
}
);
width = 663;
}
);
leftKerningGroup = O;
rightKerningGroup = O;
unicode = 00D2;
},
{
color = 11;
glyphname = Ohungarumlaut;
lastChange = "2015-02-19 03:26:04 +0000";
layers = (
{
background = {
paths = (
{
closed = 1;
nodes = (
"343 783 LINE",
"343 800 LINE",
"269 800 LINE",
"193 667 LINE",
"216 652 LINE"
);
},
{
closed = 1;
nodes = (
"504 783 LINE",
"504 800 LINE",
"430 800 LINE",
"354 667 LINE",
"377 652 LINE"
);
},
{
closed = 1;
nodes = (
"122 626 OFFCURVE",
"41 482 OFFCURVE",
"41 308 CURVE SMOOTH",
"41 134 OFFCURVE",
"124 -9 OFFCURVE",
"330 -9 CURVE SMOOTH",
"536 -9 OFFCURVE",
"617 134 OFFCURVE",
"617 308 CURVE SMOOTH",
"617 482 OFFCURVE",
"538 626 OFFCURVE",
"330 626 CURVE SMOOTH"
);
},
{
closed = 1;
nodes = (
"527 197 OFFCURVE",
"497 39 OFFCURVE",
"333 39 CURVE SMOOTH",
"167 39 OFFCURVE",
"131 197 OFFCURVE",
"131 308 CURVE SMOOTH",
"131 421 OFFCURVE",
"163 578 OFFCURVE",
"324 578 CURVE SMOOTH",
"491 578 OFFCURVE",
"527 421 OFFCURVE",
"527 308 CURVE SMOOTH"
);
}
);
};
layerId = "C2E97133-8774-4C1F-A96F-338CBADF7D3D";
paths = (
{
closed = 1;
nodes = (
"343 783 LINE",
"343 800 LINE",
"269 800 LINE",
"193 667 LINE",
"216 652 LINE"
);
},
{
closed = 1;
nodes = (
"504 783 LINE",
"504 800 LINE",
"430 800 LINE",
"354 667 LINE",
"377 652 LINE"
);
},
{
closed = 1;
nodes = (
"122 626 OFFCURVE",
"41 482 OFFCURVE",
"41 308 CURVE SMOOTH",
"41 134 OFFCURVE",
"124 -9 OFFCURVE",
"330 -9 CURVE SMOOTH",
"536 -9 OFFCURVE",
"617 134 OFFCURVE",
"617 308 CURVE SMOOTH",
"617 482 OFFCURVE",
"538 626 OFFCURVE",
"330 626 CURVE SMOOTH"
);
},
{
closed = 1;
nodes = (
"527 197 OFFCURVE",
"497 39 OFFCURVE",
"333 39 CURVE SMOOTH",
"167 39 OFFCURVE",
"131 197 OFFCURVE",
"131 308 CURVE SMOOTH",
"131 421 OFFCURVE",
"163 578 OFFCURVE",
"324 578 CURVE SMOOTH",
"491 578 OFFCURVE",
"527 421 OFFCURVE",
"527 308 CURVE SMOOTH"
);
}
);
width = 658;
},
{
background = {
paths = (
{
closed = 1;
nodes = (
"117 628 OFFCURVE",
"30 484 OFFCURVE",
"30 311 CURVE SMOOTH",
"30 136 OFFCURVE",
"120 -9 OFFCURVE",
"333 -9 CURVE SMOOTH",
"549 -9 OFFCURVE",
"633 136 OFFCURVE",
"633 311 CURVE SMOOTH",
"633 484 OFFCURVE",
"551 628 OFFCURVE",
"333 628 CURVE SMOOTH"
);
},
{
closed = 1;
nodes = (
"488 207 OFFCURVE",
"471 62 OFFCURVE",
"337 62 CURVE SMOOTH",
"198 62 OFFCURVE",
"175 201 OFFCURVE",
"175 311 CURVE SMOOTH",
"175 412 OFFCURVE",
"194 558 OFFCURVE",
"327 558 CURVE SMOOTH",
"466 558 OFFCURVE",
"488 412 OFFCURVE",
"488 311 CURVE SMOOTH"
);
},
{
closed = 1;
nodes = (
"382 792 LINE",
"382 814 LINE",
"290 814 LINE",
"198 654 LINE",
"229 631 LINE"
);
},
{
closed = 1;
nodes = (
"543 792 LINE",
"543 814 LINE",
"451 814 LINE",
"359 654 LINE",
"390 631 LINE"
);
}
);
};
layerId = "320D1F10-23EA-4160-876F-9C954522C215";
paths = (
{
closed = 1;
nodes = (
"117 628 OFFCURVE",
"30 484 OFFCURVE",
"30 311 CURVE SMOOTH",
"30 136 OFFCURVE",
"120 -9 OFFCURVE",
"333 -9 CURVE SMOOTH",
"549 -9 OFFCURVE",
"633 136 OFFCURVE",
"633 311 CURVE SMOOTH",
"633 484 OFFCURVE",
"551 628 OFFCURVE",
"333 628 CURVE SMOOTH"
);
},
{
closed = 1;
nodes = (
"488 207 OFFCURVE",
"471 62 OFFCURVE",
"337 62 CURVE SMOOTH",
"198 62 OFFCURVE",
"175 201 OFFCURVE",
"175 311 CURVE SMOOTH",
"175 412 OFFCURVE",
"194 558 OFFCURVE",
"327 558 CURVE SMOOTH",
"466 558 OFFCURVE",
"488 412 OFFCURVE",
"488 311 CURVE SMOOTH"
);
},
{
closed = 1;
nodes = (
"382 792 LINE",
"382 814 LINE",
"290 814 LINE",
"198 654 LINE",
"229 631 LINE"
);
},
{
closed = 1;
nodes = (
"543 792 LINE",
"543 814 LINE",
"451 814 LINE",
"359 654 LINE",
"390 631 LINE"
);
}
);
width = 663;
}
);
leftKerningGroup = O;
rightKerningGroup = O;
unicode = 0150;
},
{
color = 11;
glyphname = Omacron;
lastChange = "2015-02-19 03:26:04 +0000";
layers = (
{
background = {
paths = (
{
closed = 1;
nodes = (
"122 626 OFFCURVE",
"41 482 OFFCURVE",
"41 308 CURVE SMOOTH",
"41 134 OFFCURVE",
"124 -9 OFFCURVE",
"330 -9 CURVE SMOOTH",
"536 -9 OFFCURVE",
"617 134 OFFCURVE",
"617 308 CURVE SMOOTH",
"617 482 OFFCURVE",
"538 626 OFFCURVE",
"330 626 CURVE SMOOTH"
);
},
{
closed = 1;
nodes = (
"527 197 OFFCURVE",
"497 39 OFFCURVE",
"333 39 CURVE SMOOTH",
"167 39 OFFCURVE",
"131 197 OFFCURVE",
"131 308 CURVE SMOOTH",
"131 421 OFFCURVE",
"163 578 OFFCURVE",
"324 578 CURVE SMOOTH",
"491 578 OFFCURVE",
"527 421 OFFCURVE",
"527 308 CURVE SMOOTH"
);
},
{
closed = 1;
nodes = (
"220 697 LINE",
"437 697 LINE",
"437 749 LINE",
"220 749 LINE"
);
}
);
};
layerId = "C2E97133-8774-4C1F-A96F-338CBADF7D3D";
paths = (
{
closed = 1;
nodes = (
"122 626 OFFCURVE",
"41 482 OFFCURVE",
"41 308 CURVE SMOOTH",
"41 134 OFFCURVE",
"124 -9 OFFCURVE",
"330 -9 CURVE SMOOTH",
"536 -9 OFFCURVE",
"617 134 OFFCURVE",
"617 308 CURVE SMOOTH",
"617 482 OFFCURVE",
"538 626 OFFCURVE",
"330 626 CURVE SMOOTH"
);
},
{
closed = 1;
nodes = (
"527 197 OFFCURVE",
"497 39 OFFCURVE",
"333 39 CURVE SMOOTH",
"167 39 OFFCURVE",
"131 197 OFFCURVE",
"131 308 CURVE SMOOTH",
"131 421 OFFCURVE",
"163 578 OFFCURVE",
"324 578 CURVE SMOOTH",
"491 578 OFFCURVE",
"527 421 OFFCURVE",
"527 308 CURVE SMOOTH"
);
},
{
closed = 1;
nodes = (
"220 697 LINE",
"437 697 LINE",
"437 749 LINE",
"220 749 LINE"
);
}
);
width = 658;
},
{
background = {
paths = (
{
closed = 1;
nodes = (
"117 628 OFFCURVE",
"30 484 OFFCURVE",
"30 311 CURVE SMOOTH",
"30 136 OFFCURVE",
"120 -9 OFFCURVE",
"333 -9 CURVE SMOOTH",
"549 -9 OFFCURVE",
"633 136 OFFCURVE",
"633 311 CURVE SMOOTH",
"633 484 OFFCURVE",
"551 628 OFFCURVE",
"333 628 CURVE SMOOTH"
);
},
{
closed = 1;
nodes = (
"488 207 OFFCURVE",
"471 62 OFFCURVE",
"337 62 CURVE SMOOTH",
"198 62 OFFCURVE",
"175 201 OFFCURVE",
"175 311 CURVE SMOOTH",
"175 412 OFFCURVE",
"194 558 OFFCURVE",
"327 558 CURVE SMOOTH",
"466 558 OFFCURVE",
"488 412 OFFCURVE",
"488 311 CURVE SMOOTH"
);
},
{
closed = 1;
nodes = (
"211 679 LINE",
"452 679 LINE",
"452 758 LINE",
"211 758 LINE"
);
}
);
};
layerId = "320D1F10-23EA-4160-876F-9C954522C215";
paths = (
{
closed = 1;
nodes = (
"117 628 OFFCURVE",
"30 484 OFFCURVE",
"30 311 CURVE SMOOTH",
"30 136 OFFCURVE",
"120 -9 OFFCURVE",
"333 -9 CURVE SMOOTH",
"549 -9 OFFCURVE",
"633 136 OFFCURVE",
"633 311 CURVE SMOOTH",
"633 484 OFFCURVE",
"551 628 OFFCURVE",
"333 628 CURVE SMOOTH"
);
},
{
closed = 1;
nodes = (
"488 207 OFFCURVE",
"471 62 OFFCURVE",
"337 62 CURVE SMOOTH",
"198 62 OFFCURVE",
"175 201 OFFCURVE",
"175 311 CURVE SMOOTH",
"175 412 OFFCURVE",
"194 558 OFFCURVE",
"327 558 CURVE SMOOTH",
"466 558 OFFCURVE",
"488 412 OFFCURVE",
"488 311 CURVE SMOOTH"
);
},
{
closed = 1;
nodes = (
"211 679 LINE",
"452 679 LINE",
"452 758 LINE",
"211 758 LINE"
);
}
);
width = 663;
}
);
leftKerningGroup = O;
rightKerningGroup = O;
unicode = 014C;
},
{
glyphname = Oogonek;
lastChange = "2015-02-21 02:53:49 +0000";
layers = (
{
components = (
{
name = O;
}
);
layerId = "C2E97133-8774-4C1F-A96F-338CBADF7D3D";
paths = (
{
closed = 1;
nodes = (
"473 41 LINE",
"406 -12 OFFCURVE",
"379 -68 OFFCURVE",
"379 -110 CURVE SMOOTH",
"379 -153 OFFCURVE",
"406 -195 OFFCURVE",
"473 -195 CURVE SMOOTH",
"537 -195 OFFCURVE",
"567 -145 OFFCURVE",
"567 -145 CURVE",
"551 -129 LINE",
"535 -145 OFFCURVE",
"517 -151 OFFCURVE",
"501 -151 CURVE SMOOTH",
"467 -151 OFFCURVE",
"446 -130 OFFCURVE",
"446 -92 CURVE SMOOTH",
"446 -39 OFFCURVE",
"471 14 OFFCURVE",
"512 46 CURVE"
);
}
);
width = 658;
},
{
components = (
{
name = O;
}
);
layerId = "320D1F10-23EA-4160-876F-9C954522C215";
paths = (
{
closed = 1;
nodes = (
"468 38 LINE",
"405 -13 OFFCURVE",
"377 -69 OFFCURVE",
"377 -111 CURVE SMOOTH",
"377 -151 OFFCURVE",
"403 -195 OFFCURVE",
"475 -195 CURVE SMOOTH",
"539 -195 OFFCURVE",
"572 -160 OFFCURVE",
"589 -133 CURVE",
"566 -111 LINE",
"546 -125 OFFCURVE",
"527 -133 OFFCURVE",
"505 -133 CURVE SMOOTH",
"472 -133 OFFCURVE",
"462 -113 OFFCURVE",
"462 -86 CURVE SMOOTH",
"462 -44 OFFCURVE",
"490 20 OFFCURVE",
"534 55 CURVE"
);
}
);
width = 663;
}
);
unicode = 01EA;
},
{
color = 11;
glyphname = Oslash;
lastChange = "2015-02-21 01:36:53 +0000";
layers = (
{
anchors = (
{
name = top;
position = "{279, 611}";
}
);
background = {
paths = (
{
closed = 1;
nodes = (
"423 708 LINE",
"163 -96 LINE",
"224 -96 LINE",
"484 708 LINE"
);
},
{
closed = 1;
nodes = (
"122 626 OFFCURVE",
"41 482 OFFCURVE",
"41 308 CURVE SMOOTH",
"41 134 OFFCURVE",
"124 -9 OFFCURVE",
"330 -9 CURVE SMOOTH",
"536 -9 OFFCURVE",
"617 134 OFFCURVE",
"617 308 CURVE SMOOTH",
"617 482 OFFCURVE",
"538 626 OFFCURVE",
"330 626 CURVE SMOOTH"
);
},
{
closed = 1;
nodes = (
"527 197 OFFCURVE",
"497 39 OFFCURVE",
"333 39 CURVE SMOOTH",
"167 39 OFFCURVE",
"131 197 OFFCURVE",
"131 308 CURVE SMOOTH",
"131 421 OFFCURVE",
"163 578 OFFCURVE",
"324 578 CURVE SMOOTH",
"491 578 OFFCURVE",
"527 421 OFFCURVE",
"527 308 CURVE SMOOTH"
);
}
);
};
layerId = "C2E97133-8774-4C1F-A96F-338CBADF7D3D";
paths = (
{
closed = 1;
nodes = (
"423 708 LINE",
"163 -96 LINE",
"224 -96 LINE",
"484 708 LINE"
);
},
{
closed = 1;
nodes = (
"122 626 OFFCURVE",
"41 482 OFFCURVE",
"41 308 CURVE SMOOTH",
"41 134 OFFCURVE",
"124 -9 OFFCURVE",
"330 -9 CURVE SMOOTH",
"536 -9 OFFCURVE",
"617 134 OFFCURVE",
"617 308 CURVE SMOOTH",
"617 482 OFFCURVE",
"538 626 OFFCURVE",
"330 626 CURVE SMOOTH"
);
},
{
closed = 1;
nodes = (
"527 197 OFFCURVE",
"497 39 OFFCURVE",
"333 39 CURVE SMOOTH",
"167 39 OFFCURVE",
"131 197 OFFCURVE",
"131 308 CURVE SMOOTH",
"131 421 OFFCURVE",
"163 578 OFFCURVE",
"324 578 CURVE SMOOTH",
"491 578 OFFCURVE",
"527 421 OFFCURVE",
"527 308 CURVE SMOOTH"
);
}
);
width = 658;
},
{
anchors = (
{
name = top;
position = "{262, 614}";
}
);
background = {
paths = (
{
closed = 1;
nodes = (
"117 628 OFFCURVE",
"30 484 OFFCURVE",
"30 311 CURVE SMOOTH",
"30 187 OFFCURVE",
"74 79 OFFCURVE",
"175 26 CURVE",
"129 -94 LINE",
"210 -94 LINE",
"247 0 LINE",
"273 -6 OFFCURVE",
"301 -9 OFFCURVE",
"333 -9 CURVE SMOOTH",
"549 -9 OFFCURVE",
"633 136 OFFCURVE",
"633 311 CURVE SMOOTH",
"633 437 OFFCURVE",
"589 548 OFFCURVE",
"481 598 CURVE",
"524 708 LINE",
"440 708 LINE",
"406 622 LINE",
"384 626 OFFCURVE",
"359 628 OFFCURVE",
"333 628 CURVE SMOOTH"
);
},
{
closed = 1;
nodes = (
"488 203 OFFCURVE",
"471 54 OFFCURVE",
"337 54 CURVE SMOOTH",
"312 54 OFFCURVE",
"291 58 OFFCURVE",
"273 66 CURVE",
"444 504 LINE",
"480 451 OFFCURVE",
"488 373 OFFCURVE",
"488 311 CURVE SMOOTH"
);
},
{
closed = 1;
nodes = (
"175 416 OFFCURVE",
"194 565 OFFCURVE",
"327 565 CURVE SMOOTH",
"347 565 OFFCURVE",
"365 562 OFFCURVE",
"381 556 CURVE",
"213 122 LINE",
"182 174 OFFCURVE",
"175 247 OFFCURVE",
"175 311 CURVE SMOOTH"
);
}
);
};
layerId = "320D1F10-23EA-4160-876F-9C954522C215";
paths = (
{
closed = 1;
nodes = (
"117 628 OFFCURVE",
"30 484 OFFCURVE",
"30 311 CURVE SMOOTH",
"30 187 OFFCURVE",
"74 79 OFFCURVE",
"175 26 CURVE",
"129 -94 LINE",
"210 -94 LINE",
"247 0 LINE",
"273 -6 OFFCURVE",
"301 -9 OFFCURVE",
"333 -9 CURVE SMOOTH",
"549 -9 OFFCURVE",
"633 136 OFFCURVE",
"633 311 CURVE SMOOTH",
"633 437 OFFCURVE",
"589 548 OFFCURVE",
"481 598 CURVE",
"524 708 LINE",
"440 708 LINE",
"406 622 LINE",
"384 626 OFFCURVE",
"359 628 OFFCURVE",
"333 628 CURVE SMOOTH"
);
},
{
closed = 1;
nodes = (
"488 203 OFFCURVE",
"471 54 OFFCURVE",
"337 54 CURVE SMOOTH",
"312 54 OFFCURVE",
"291 58 OFFCURVE",
"273 66 CURVE",
"444 504 LINE",
"480 451 OFFCURVE",
"488 373 OFFCURVE",
"488 311 CURVE SMOOTH"
);
},
{
closed = 1;
nodes = (
"175 416 OFFCURVE",
"194 565 OFFCURVE",
"327 565 CURVE SMOOTH",
"347 565 OFFCURVE",
"365 562 OFFCURVE",
"381 556 CURVE",
"213 122 LINE",
"182 174 OFFCURVE",
"175 247 OFFCURVE",
"175 311 CURVE SMOOTH"
);
}
);
width = 663;
}
);
leftKerningGroup = O;
rightKerningGroup = O;
unicode = 00D8;
},
{
color = 11;
glyphname = Otilde;
lastChange = "2015-02-19 03:26:04 +0000";
layers = (
{
background = {
paths = (
{
closed = 1;
nodes = (
"122 626 OFFCURVE",
"41 482 OFFCURVE",
"41 308 CURVE SMOOTH",
"41 134 OFFCURVE",
"124 -9 OFFCURVE",
"330 -9 CURVE SMOOTH",
"536 -9 OFFCURVE",
"617 134 OFFCURVE",
"617 308 CURVE SMOOTH",
"617 482 OFFCURVE",
"538 626 OFFCURVE",
"330 626 CURVE SMOOTH"
);
},
{
closed = 1;
nodes = (
"527 197 OFFCURVE",
"497 39 OFFCURVE",
"333 39 CURVE SMOOTH",
"167 39 OFFCURVE",
"131 197 OFFCURVE",
"131 308 CURVE SMOOTH",
"131 421 OFFCURVE",
"163 578 OFFCURVE",
"324 578 CURVE SMOOTH",
"491 578 OFFCURVE",
"527 421 OFFCURVE",
"527 308 CURVE SMOOTH"
);
},
{
closed = 1;
nodes = (
"443 774 LINE",
"443 774 OFFCURVE",
"423 739 OFFCURVE",
"400 739 CURVE SMOOTH",
"365 739 OFFCURVE",
"292 779 OFFCURVE",
"258 779 CURVE SMOOTH",
"225 779 OFFCURVE",
"205 737 OFFCURVE",
"184 685 CURVE",
"214 673 LINE",
"214 673 OFFCURVE",
"237 709 OFFCURVE",
"259 709 CURVE SMOOTH",
"292 709 OFFCURVE",
"367 669 OFFCURVE",
"401 669 CURVE SMOOTH",
"433 669 OFFCURVE",
"453 711 OFFCURVE",
"474 762 CURVE"
);
}
);
};
layerId = "C2E97133-8774-4C1F-A96F-338CBADF7D3D";
paths = (
{
closed = 1;
nodes = (
"122 626 OFFCURVE",
"41 482 OFFCURVE",
"41 308 CURVE SMOOTH",
"41 134 OFFCURVE",
"124 -9 OFFCURVE",
"330 -9 CURVE SMOOTH",
"536 -9 OFFCURVE",
"617 134 OFFCURVE",
"617 308 CURVE SMOOTH",
"617 482 OFFCURVE",
"538 626 OFFCURVE",
"330 626 CURVE SMOOTH"
);
},
{
closed = 1;
nodes = (
"527 197 OFFCURVE",
"497 39 OFFCURVE",
"333 39 CURVE SMOOTH",
"167 39 OFFCURVE",
"131 197 OFFCURVE",
"131 308 CURVE SMOOTH",
"131 421 OFFCURVE",
"163 578 OFFCURVE",
"324 578 CURVE SMOOTH",
"491 578 OFFCURVE",
"527 421 OFFCURVE",
"527 308 CURVE SMOOTH"
);
},
{
closed = 1;
nodes = (
"443 774 LINE",
"443 774 OFFCURVE",
"423 739 OFFCURVE",
"400 739 CURVE SMOOTH",
"365 739 OFFCURVE",
"292 779 OFFCURVE",
"258 779 CURVE SMOOTH",
"225 779 OFFCURVE",
"205 737 OFFCURVE",
"184 685 CURVE",
"214 673 LINE",
"214 673 OFFCURVE",
"237 709 OFFCURVE",
"259 709 CURVE SMOOTH",
"292 709 OFFCURVE",
"367 669 OFFCURVE",
"401 669 CURVE SMOOTH",
"433 669 OFFCURVE",
"453 711 OFFCURVE",
"474 762 CURVE"
);
}
);
width = 658;
},
{
background = {
paths = (
{
closed = 1;
nodes = (
"117 628 OFFCURVE",
"30 484 OFFCURVE",
"30 311 CURVE SMOOTH",
"30 136 OFFCURVE",
"120 -9 OFFCURVE",
"333 -9 CURVE SMOOTH",
"549 -9 OFFCURVE",
"633 136 OFFCURVE",
"633 311 CURVE SMOOTH",
"633 484 OFFCURVE",
"551 628 OFFCURVE",
"333 628 CURVE SMOOTH"
);
},
{
closed = 1;
nodes = (
"488 207 OFFCURVE",
"471 62 OFFCURVE",
"337 62 CURVE SMOOTH",
"198 62 OFFCURVE",
"175 201 OFFCURVE",
"175 311 CURVE SMOOTH",
"175 412 OFFCURVE",
"194 558 OFFCURVE",
"327 558 CURVE SMOOTH",
"466 558 OFFCURVE",
"488 412 OFFCURVE",
"488 311 CURVE SMOOTH"
);
},
{
closed = 1;
nodes = (
"462 784 LINE",
"462 784 OFFCURVE",
"445 753 OFFCURVE",
"420 753 CURVE SMOOTH",
"381 753 OFFCURVE",
"293 790 OFFCURVE",
"244 790 CURVE SMOOTH",
"211 790 OFFCURVE",
"177 744 OFFCURVE",
"157 686 CURVE",
"204 667 LINE",
"204 667 OFFCURVE",
"220 698 OFFCURVE",
"244 698 CURVE SMOOTH",
"282 698 OFFCURVE",
"371 661 OFFCURVE",
"420 661 CURVE SMOOTH",
"454 661 OFFCURVE",
"482 707 OFFCURVE",
"506 765 CURVE"
);
}
);
};
layerId = "320D1F10-23EA-4160-876F-9C954522C215";
paths = (
{
closed = 1;
nodes = (
"117 628 OFFCURVE",
"30 484 OFFCURVE",
"30 311 CURVE SMOOTH",
"30 136 OFFCURVE",
"120 -9 OFFCURVE",
"333 -9 CURVE SMOOTH",
"549 -9 OFFCURVE",
"633 136 OFFCURVE",
"633 311 CURVE SMOOTH",
"633 484 OFFCURVE",
"551 628 OFFCURVE",
"333 628 CURVE SMOOTH"
);
},
{
closed = 1;
nodes = (
"488 207 OFFCURVE",
"471 62 OFFCURVE",
"337 62 CURVE SMOOTH",
"198 62 OFFCURVE",
"175 201 OFFCURVE",
"175 311 CURVE SMOOTH",
"175 412 OFFCURVE",
"194 558 OFFCURVE",
"327 558 CURVE SMOOTH",
"466 558 OFFCURVE",
"488 412 OFFCURVE",
"488 311 CURVE SMOOTH"
);
},
{
closed = 1;
nodes = (
"462 784 LINE",
"462 784 OFFCURVE",
"445 753 OFFCURVE",
"420 753 CURVE SMOOTH",
"381 753 OFFCURVE",
"293 790 OFFCURVE",
"244 790 CURVE SMOOTH",
"211 790 OFFCURVE",
"177 744 OFFCURVE",
"157 686 CURVE",
"204 667 LINE",
"204 667 OFFCURVE",
"220 698 OFFCURVE",
"244 698 CURVE SMOOTH",
"282 698 OFFCURVE",
"371 661 OFFCURVE",
"420 661 CURVE SMOOTH",
"454 661 OFFCURVE",
"482 707 OFFCURVE",
"506 765 CURVE"
);
}
);
width = 663;
}
);
leftKerningGroup = O;
rightKerningGroup = O;
unicode = 00D5;
},
{
color = 11;
glyphname = OE;
lastChange = "2015-02-19 03:26:04 +0000";
layers = (
{
anchors = (
{
name = top;
position = "{410, 611}";
}
);
background = {
paths = (
{
closed = 1;
nodes = (
"330 611 LINE SMOOTH",
"122 611 OFFCURVE",
"41 482 OFFCURVE",
"41 308 CURVE SMOOTH",
"41 134 OFFCURVE",
"124 0 OFFCURVE",
"330 0 CURVE SMOOTH",
"780 0 LINE",
"780 147 LINE",
"741 147 LINE",
"714 56 LINE",
"501 56 LINE",
"501 277 LINE",
"641 277 LINE",
"664 208 LINE",
"701 208 LINE",
"701 389 LINE",
"664 389 LINE",
"643 323 LINE",
"501 323 LINE",
"501 559 LINE",
"694 559 LINE",
"716 479 LINE",
"754 479 LINE",
"754 611 LINE"
);
},
{
closed = 1;
nodes = (
"418 53 LINE",
"391 47 OFFCURVE",
"361 46 OFFCURVE",
"333 46 CURVE SMOOTH",
"167 46 OFFCURVE",
"130 197 OFFCURVE",
"130 308 CURVE SMOOTH",
"130 421 OFFCURVE",
"163 566 OFFCURVE",
"324 566 CURVE SMOOTH",
"367 566 OFFCURVE",
"380 564 OFFCURVE",
"418 558 CURVE"
);
}
);
};
layerId = "C2E97133-8774-4C1F-A96F-338CBADF7D3D";
paths = (
{
closed = 1;
nodes = (
"330 611 LINE SMOOTH",
"122 611 OFFCURVE",
"41 482 OFFCURVE",
"41 308 CURVE SMOOTH",
"41 134 OFFCURVE",
"124 0 OFFCURVE",
"330 0 CURVE SMOOTH",
"780 0 LINE",
"780 147 LINE",
"741 147 LINE",
"714 56 LINE",
"501 56 LINE",
"501 277 LINE",
"641 277 LINE",
"664 208 LINE",
"701 208 LINE",
"701 389 LINE",
"664 389 LINE",
"643 323 LINE",
"501 323 LINE",
"501 559 LINE",
"694 559 LINE",
"716 479 LINE",
"754 479 LINE",
"754 611 LINE"
);
},
{
closed = 1;
nodes = (
"418 53 LINE",
"391 47 OFFCURVE",
"361 46 OFFCURVE",
"333 46 CURVE SMOOTH",
"167 46 OFFCURVE",
"130 197 OFFCURVE",
"130 308 CURVE SMOOTH",
"130 421 OFFCURVE",
"163 566 OFFCURVE",
"324 566 CURVE SMOOTH",
"367 566 OFFCURVE",
"380 564 OFFCURVE",
"418 558 CURVE"
);
}
);
width = 819;
},
{
anchors = (
{
name = top;
position = "{407, 614}";
}
);
background = {
paths = (
{
closed = 1;
nodes = (
"322 614 LINE SMOOTH",
"116 614 OFFCURVE",
"30 484 OFFCURVE",
"30 311 CURVE SMOOTH",
"30 136 OFFCURVE",
"118 0 OFFCURVE",
"323 0 CURVE SMOOTH",
"796 0 LINE",
"796 162 LINE",
"740 162 LINE",
"714 69 LINE",
"539 69 LINE",
"539 274 LINE",
"637 274 LINE",
"656 205 LINE",
"709 205 LINE",
"709 396 LINE",
"656 396 LINE",
"639 330 LINE",
"539 330 LINE",
"539 546 LINE",
"698 546 LINE",
"720 468 LINE",
"776 468 LINE",
"776 614 LINE"
);
},
{
closed = 1;
nodes = (
"407 69 LINE",
"387 61 OFFCURVE",
"362 54 OFFCURVE",
"327 54 CURVE SMOOTH",
"196 54 OFFCURVE",
"173 197 OFFCURVE",
"173 311 CURVE SMOOTH",
"173 416 OFFCURVE",
"192 560 OFFCURVE",
"317 560 CURVE SMOOTH",
"347 560 OFFCURVE",
"381 555 OFFCURVE",
"407 546 CURVE"
);
}
);
};
layerId = "320D1F10-23EA-4160-876F-9C954522C215";
paths = (
{
closed = 1;
nodes = (
"322 614 LINE SMOOTH",
"116 614 OFFCURVE",
"30 484 OFFCURVE",
"30 311 CURVE SMOOTH",
"30 136 OFFCURVE",
"118 0 OFFCURVE",
"323 0 CURVE SMOOTH",
"796 0 LINE",
"796 162 LINE",
"740 162 LINE",
"714 69 LINE",
"539 69 LINE",
"539 274 LINE",
"637 274 LINE",
"656 205 LINE",
"709 205 LINE",
"709 396 LINE",
"656 396 LINE",
"639 330 LINE",
"539 330 LINE",
"539 546 LINE",
"698 546 LINE",
"720 468 LINE",
"776 468 LINE",
"776 614 LINE"
);
},
{
closed = 1;
nodes = (
"407 69 LINE",
"387 61 OFFCURVE",
"362 54 OFFCURVE",
"327 54 CURVE SMOOTH",
"196 54 OFFCURVE",
"173 197 OFFCURVE",
"173 311 CURVE SMOOTH",
"173 416 OFFCURVE",
"192 560 OFFCURVE",
"317 560 CURVE SMOOTH",
"347 560 OFFCURVE",
"381 555 OFFCURVE",
"407 546 CURVE"
);
}
);
width = 813;
}
);
unicode = 0152;
},
